<svg width="209" height="50" viewBox="0 0 209 50" fill="none" xmlns="http://www.w3.org/2000/svg">
<rect width="208.106" height="50.1561" transform="matrix(0.999999 -0.00122668 0.00122303 0.999999 0.682617 -0.2854)" fill="#FF7800"/>
<path d="M55.4705 20.9384C55.4402 20.582 55.0131 20.3114 54.5165 20.3339L45.2547 20.7543C44.758 20.7769 44.38 21.0841 44.4103 21.4405C44.4406 21.797 44.8677 22.0676 45.3644 22.0451L54.6262 21.6246C55.1228 21.6021 55.5008 21.2949 55.4705 20.9384Z" fill="white"/>
<path d="M45.2544 24.1779C44.7601 24.2026 44.3838 24.5403 44.4139 24.9322C44.444 25.3241 44.8691 25.6218 45.3634 25.5971L50.9621 25.3173C51.4564 25.2926 51.8326 24.9549 51.8025 24.563C51.7724 24.1711 51.3473 23.8735 50.853 23.8982L45.2544 24.1779Z" fill="white"/>
<path d="M48.1194 32.1114L45.2915 32.2789C44.359 32.3341 43.555 31.6163 43.4993 30.6787L42.61 15.7154C42.5543 14.7778 43.2676 13.9701 44.2001 13.9149L54.5956 13.2992C55.5281 13.244 56.332 13.9618 56.3878 14.8994L56.6985 20.1281C56.7264 20.5976 57.1276 20.9558 57.5946 20.9282C58.0616 20.9005 58.4175 20.4975 58.3896 20.0279L58.0789 14.7992C57.9674 12.9241 56.3595 11.4884 54.4946 11.5988L44.099 12.2145C42.2341 12.3249 40.8075 13.9404 40.9189 15.8155L41.8082 30.7789C41.9197 32.654 43.5276 34.0897 45.3925 33.9793L48.2204 33.8118C48.6874 33.7842 49.0434 33.3811 49.0154 32.9115C48.9875 32.442 48.5864 32.0838 48.1194 32.1114Z" fill="white"/>
<path d="M60.2492 24.2676C59.1854 23.3446 57.5526 23.4404 56.6101 24.4804L52.1825 29.3547C52.0884 29.4582 52.022 29.5828 51.9891 29.7175L51.1663 33.0816C51.0933 33.3799 51.1921 33.6933 51.4241 33.8996C51.5978 34.0541 51.8257 34.1302 52.0537 34.1168C52.13 34.1123 52.2065 34.0978 52.2808 34.0728L55.6859 32.9312C55.826 32.8843 55.9514 32.8027 56.0497 32.6943L60.468 27.8287C61.4111 26.788 61.313 25.1905 60.2492 24.2676ZM54.9147 31.412L53.2017 31.9864L53.6106 30.3143L56.5981 27.0254L57.8845 28.1415L54.9147 31.412ZM59.1824 26.7123L59.0261 26.8843L57.7399 25.7685L57.8956 25.597C58.21 25.2501 58.7543 25.2182 59.1089 25.5258C59.4635 25.8335 59.4962 26.3659 59.1824 26.7123Z" fill="white"/>
<path d="M54.5105 16.778L45.2488 17.1984C44.7522 17.221 44.3742 17.5282 44.4045 17.8846C44.4348 18.2411 44.8619 18.5117 45.3585 18.4892L54.6202 18.0687C55.1168 18.0462 55.4949 17.739 55.4646 17.3825C55.4343 17.0261 55.0071 16.7554 54.5105 16.778Z" fill="white"/>
<path d="M76.0052 21.9792L74.2298 21.9814L74.2283 20.7246L75.7576 20.7227C76.3025 20.722 76.7448 20.6424 77.0844 20.4838C77.4241 20.3193 77.6699 20.0934 77.8219 19.8061C77.9797 19.5129 78.0584 19.173 78.0579 18.7863C78.0575 18.4406 77.9692 18.1243 77.7931 17.8374C77.6228 17.5505 77.3589 17.3223 77.0012 17.1528C76.6436 16.9775 76.1835 16.8901 75.621 16.8908C75.1992 16.8913 74.8155 16.968 74.4699 17.1207C74.1244 17.2735 73.8493 17.4877 73.6446 17.7634C73.4457 18.039 73.3465 18.3643 73.3469 18.7393L71.1409 18.742C71.1402 18.1854 71.2568 17.6872 71.4906 17.2474C71.7303 16.8018 72.055 16.4235 72.4648 16.1125C72.8804 15.8014 73.3577 15.5635 73.8965 15.3988C74.4413 15.2282 75.0154 15.1425 75.6189 15.1418C76.322 15.1409 76.9579 15.2193 77.5264 15.3768C78.095 15.5284 78.5845 15.7563 78.995 16.0605C79.4055 16.3647 79.7195 16.7452 79.9368 17.2019C80.1542 17.6528 80.2632 18.1771 80.264 18.7748C80.2645 19.2142 80.1625 19.6275 79.9579 20.0144C79.7591 20.4014 79.4724 20.7416 79.0978 21.035C78.7231 21.3284 78.2723 21.5604 77.7451 21.731C77.2238 21.8957 76.6439 21.9784 76.0052 21.9792ZM74.2289 21.2168L76.0043 21.2146C76.7132 21.2137 77.3432 21.2862 77.8942 21.432C78.4451 21.5778 78.9112 21.7911 79.2924 22.0719C79.6736 22.3527 79.9641 22.7009 80.1638 23.1167C80.3635 23.5266 80.4637 23.9982 80.4644 24.5314C80.4651 25.129 80.3456 25.6624 80.106 26.1314C79.8722 26.5946 79.5387 26.9876 79.1055 27.3104C78.6723 27.6332 78.1599 27.877 77.5683 28.0418C76.9825 28.2065 76.3381 28.2894 75.635 28.2902C75.0666 28.2909 74.504 28.2213 73.9472 28.0814C73.3963 27.9355 72.895 27.7135 72.4435 27.4152C71.9978 27.1111 71.6399 26.7248 71.3698 26.2564C71.0997 25.788 70.9642 25.2256 70.9634 24.5694L73.1783 24.5667C73.1787 24.93 73.2817 25.2638 73.4871 25.5682C73.6984 25.8668 73.9858 26.1067 74.3493 26.2879C74.7187 26.4632 75.1465 26.5506 75.6329 26.55C76.1895 26.5493 76.6611 26.4608 77.0476 26.2846C77.4399 26.1083 77.7385 25.8677 77.9432 25.5628C78.1537 25.2578 78.2588 24.9149 78.2583 24.5341C78.2579 24.1708 78.2018 23.8574 78.0902 23.5939C77.9844 23.3245 77.8259 23.1079 77.6148 22.944C77.4036 22.7744 77.1427 22.6487 76.8321 22.5671C76.5214 22.4854 76.164 22.4448 75.7597 22.4453L74.2304 22.4472L74.2289 21.2168ZM87.7086 26.1924L87.703 21.6573C87.7026 21.3174 87.6408 21.0245 87.5174 20.7786C87.3941 20.5327 87.2063 20.3425 86.9542 20.208C86.7079 20.0735 86.3973 20.0065 86.0223 20.007C85.6766 20.0074 85.3779 20.0664 85.126 20.1839C84.8742 20.3014 84.6781 20.4598 84.5378 20.6592C84.3974 20.8586 84.3273 21.0843 84.3277 21.3362L82.2183 21.3388C82.2178 20.9638 82.3082 20.6004 82.4894 20.2486C82.6706 19.8968 82.9339 19.583 83.2793 19.3072C83.6246 19.0314 84.0375 18.8141 84.5177 18.6553C84.998 18.4965 85.537 18.4168 86.1346 18.416C86.8495 18.4152 87.4824 18.5345 88.0335 18.7741C88.5904 19.0136 89.0274 19.3764 89.3444 19.8623C89.6673 20.3424 89.8291 20.9457 89.83 21.6723L89.8352 25.8998C89.8357 26.3334 89.8655 26.723 89.9245 27.0686C89.9894 27.4084 90.0806 27.7042 90.1981 27.956L90.1982 28.0966L88.0273 28.0993C87.9275 27.8709 87.848 27.5809 87.789 27.2294C87.7358 26.8721 87.709 26.5264 87.7086 26.1924ZM88.0115 22.3161L88.0307 23.6256L86.5101 23.6275C86.1176 23.628 85.7719 23.6665 85.4732 23.743C85.1744 23.8137 84.9255 23.9195 84.7265 24.0603C84.5275 24.2012 84.3782 24.3713 84.2789 24.5707C84.1795 24.77 84.13 24.9956 84.1303 25.2476C84.1306 25.4995 84.1895 25.7309 84.3069 25.9417C84.4244 26.1466 84.5945 26.3076 84.8173 26.4245C85.0459 26.5414 85.3214 26.5997 85.6437 26.5993C86.0773 26.5987 86.4551 26.5104 86.7771 26.3342C87.105 26.1522 87.3626 25.9321 87.5498 25.6741C87.7369 25.4102 87.8362 25.161 87.8477 24.9266L88.5344 25.8662C88.4644 26.1065 88.3446 26.3645 88.175 26.6401C88.0054 26.9157 87.7831 27.1796 87.508 27.4319C87.2387 27.6784 86.9138 27.8809 86.5331 28.0396C86.1583 28.1982 85.7248 28.2779 85.2326 28.2785C84.6115 28.2792 84.0577 28.1569 83.5711 27.9114C83.0844 27.66 82.7031 27.3236 82.4272 26.902C82.1513 26.4746 82.013 25.9914 82.0124 25.4523C82.0118 24.9484 82.105 24.503 82.292 24.1161C82.4849 23.7232 82.7657 23.3948 83.1345 23.1306C83.5092 22.8665 83.966 22.6667 84.5049 22.5313C85.0438 22.39 85.6589 22.319 86.3503 22.3181L88.0115 22.3161ZM98.4219 18.5768L98.424 20.2643L93.7307 20.27L93.7286 18.5825L98.4219 18.5768ZM94.2296 18.5819L94.2412 28.0917L92.123 28.0943L92.1114 18.5845L94.2296 18.5819ZM100.083 18.5747L100.095 28.0845L97.9678 28.0871L97.9561 18.5773L100.083 18.5747ZM104.521 24.9853L108.248 18.5647L110.366 18.5621L110.378 28.0719L108.26 28.0745L108.252 21.6497L104.524 28.0791L102.406 28.0817L102.395 18.5719L104.513 18.5693L104.521 24.9853ZM116.502 26.5527C116.848 26.5522 117.158 26.4845 117.433 26.3494C117.715 26.2084 117.94 26.0148 118.109 25.7685C118.285 25.5222 118.381 25.2379 118.398 24.9156L120.394 24.9131C120.383 25.5284 120.202 26.0882 119.851 26.5925C119.5 27.0968 119.034 27.4988 118.455 27.7983C117.875 28.092 117.234 28.2393 116.53 28.2401C115.804 28.241 115.171 28.1188 114.632 27.8733C114.092 27.622 113.644 27.2769 113.286 26.8379C112.928 26.3988 112.657 25.8923 112.475 25.3183C112.299 24.7443 112.21 24.1292 112.209 23.473L112.209 23.1653C112.208 22.5091 112.295 21.8938 112.47 21.3193C112.651 20.739 112.92 20.2289 113.277 19.789C113.634 19.3491 114.082 19.0058 114.62 18.7591C115.159 18.5065 115.789 18.3797 116.51 18.3788C117.271 18.3779 117.939 18.5294 118.514 18.8334C119.089 19.1315 119.54 19.5499 119.869 20.0886C120.204 20.6214 120.377 21.2423 120.39 21.9512L118.395 21.9537C118.377 21.6021 118.289 21.2858 118.13 21.0048C117.977 20.7179 117.76 20.4896 117.479 20.32C117.203 20.1504 116.872 20.0659 116.485 20.0664C116.058 20.0669 115.703 20.1552 115.422 20.3313C115.141 20.5016 114.922 20.7362 114.764 21.0353C114.606 21.3284 114.492 21.6596 114.422 22.0288C114.358 22.3922 114.327 22.7702 114.327 23.1628L114.327 23.4704C114.328 23.8629 114.361 24.2438 114.425 24.6128C114.49 24.9819 114.602 25.3128 114.761 25.6056C114.925 25.8925 115.148 26.1237 115.429 26.2991C115.711 26.4687 116.068 26.5532 116.502 26.5527ZM127.382 26.1438L127.377 21.6087C127.376 21.2688 127.315 20.9759 127.191 20.73C127.068 20.4841 126.88 20.2939 126.628 20.1594C126.382 20.0249 126.071 19.9579 125.696 19.9584C125.35 19.9588 125.052 20.0178 124.8 20.1353C124.548 20.2528 124.352 20.4112 124.212 20.6106C124.071 20.81 124.001 21.0357 124.001 21.2876L121.892 21.2902C121.892 20.9152 121.982 20.5518 122.163 20.2C122.344 19.8482 122.608 19.5344 122.953 19.2586C123.298 18.9828 123.711 18.7655 124.192 18.6067C124.672 18.4479 125.211 18.3682 125.808 18.3674C126.523 18.3666 127.156 18.4859 127.707 18.7255C128.264 18.965 128.701 19.3278 129.018 19.8137C129.341 20.2938 129.503 20.8971 129.504 21.6237L129.509 25.8512C129.51 26.2848 129.539 26.6744 129.598 27.02C129.663 27.3598 129.754 27.6556 129.872 27.9074L129.872 28.048L127.701 28.0507C127.601 27.8223 127.522 27.5323 127.463 27.1808C127.41 26.8235 127.383 26.4778 127.382 26.1438ZM127.685 22.2675L127.704 23.577L126.184 23.5789C125.791 23.5794 125.446 23.6179 125.147 23.6944C124.848 23.7651 124.599 23.8709 124.4 24.0117C124.201 24.1526 124.052 24.3227 123.953 24.5221C123.853 24.7214 123.804 24.947 123.804 25.199C123.804 25.451 123.863 25.6823 123.981 25.8931C124.098 26.0981 124.268 26.259 124.491 26.3759C124.72 26.4928 124.995 26.5511 125.317 26.5507C125.751 26.5501 126.129 26.4618 126.451 26.2856C126.779 26.1036 127.036 25.8835 127.224 25.6255C127.411 25.3616 127.51 25.1124 127.521 24.878L128.208 25.8176C128.138 26.0579 128.018 26.3159 127.849 26.5915C127.679 26.8671 127.457 27.131 127.182 27.3833C126.913 27.6298 126.588 27.8323 126.207 27.991C125.832 28.1496 125.399 28.2293 124.906 28.2299C124.285 28.2306 123.731 28.1083 123.245 27.8628C122.758 27.6114 122.377 27.275 122.101 26.8534C121.825 26.426 121.687 25.9428 121.686 25.4037C121.686 24.8998 121.779 24.4544 121.966 24.0675C122.159 23.6746 122.44 23.3462 122.808 23.0821C123.183 22.8179 123.64 22.6181 124.179 22.4827C124.718 22.3414 125.333 22.2704 126.024 22.2695L127.685 22.2675ZM135.986 18.5308L135.998 28.0405L133.871 28.0431L133.859 18.5334L135.986 18.5308ZM139.106 18.5269L139.109 20.1968L130.794 20.207L130.792 18.5371L139.106 18.5269ZM142.098 21.5467L144.902 21.5433C145.722 21.5423 146.42 21.6791 146.994 21.9538C147.569 22.2285 148.006 22.6117 148.305 23.1036C148.611 23.5895 148.764 24.146 148.765 24.7729C148.765 25.2358 148.681 25.6666 148.511 26.0652C148.342 26.458 148.09 26.8011 147.757 27.0945C147.429 27.3878 147.025 27.6168 146.545 27.7815C146.07 27.9461 145.525 28.0288 144.91 28.0296L140.7 28.0347L140.689 18.525L142.815 18.5224L142.825 26.3534L144.908 26.3509C145.33 26.3504 145.667 26.2767 145.919 26.1299C146.17 25.9831 146.352 25.7925 146.463 25.558C146.58 25.3234 146.638 25.0743 146.638 24.8107C146.637 24.5411 146.578 24.2863 146.461 24.0462C146.349 23.8061 146.167 23.6101 145.915 23.458C145.663 23.306 145.326 23.2303 144.904 23.2308L142.101 23.2342L142.098 21.5467ZM154.348 26.5063C154.693 26.5059 155.004 26.4381 155.279 26.303C155.56 26.1621 155.786 25.9684 155.955 25.7221C156.131 25.4758 156.227 25.1915 156.244 24.8692L158.239 24.8668C158.228 25.482 158.047 26.0418 157.696 26.5462C157.345 27.0505 156.88 27.4524 156.3 27.752C155.721 28.0456 155.079 28.1929 154.376 28.1938C153.65 28.1947 153.017 28.0724 152.477 27.827C151.938 27.5757 151.489 27.2305 151.131 26.7915C150.773 26.3525 150.503 25.846 150.321 25.272C150.144 24.698 150.056 24.0829 150.055 23.4266L150.054 23.119C150.054 22.4627 150.141 21.8474 150.316 21.273C150.497 20.6927 150.766 20.1826 151.123 19.7427C151.48 19.3028 151.927 18.9595 152.466 18.7127C153.005 18.4601 153.635 18.3334 154.355 18.3325C155.117 18.3315 155.785 18.4831 156.36 18.787C156.934 19.0852 157.386 19.5036 157.715 20.0422C158.049 20.575 158.223 21.1959 158.236 21.9049L156.241 21.9073C156.223 21.5558 156.134 21.2395 155.976 20.9584C155.823 20.6715 155.606 20.4432 155.324 20.2737C155.049 20.1041 154.718 20.0195 154.331 20.02C153.903 20.0205 153.549 20.1088 153.268 20.285C152.987 20.4552 152.767 20.6899 152.61 20.9889C152.452 21.2821 152.338 21.6133 152.268 21.9825C152.204 22.3458 152.172 22.7238 152.173 23.1164L152.173 23.424C152.174 23.8166 152.206 24.1974 152.271 24.5665C152.336 24.9355 152.448 25.2665 152.606 25.5592C152.771 25.8461 152.994 26.0773 153.275 26.2527C153.557 26.4223 153.914 26.5068 154.348 26.5063ZM161.867 23.3594L164.065 23.3567L161.372 28.0094L159.184 28.0121L161.867 23.3594ZM163.408 18.4972L167.486 18.4922L167.498 28.0019L165.389 28.0045L165.379 20.1647L163.41 20.1671C163.012 20.1676 162.684 20.2383 162.426 20.3792C162.169 20.5143 161.978 20.6933 161.856 20.9161C161.733 21.133 161.671 21.3557 161.672 21.5843C161.672 21.8128 161.728 22.0324 161.84 22.2432C161.957 22.454 162.136 22.6267 162.376 22.7611C162.623 22.8956 162.93 22.9626 163.299 22.9621L166.094 22.9587L166.096 24.5056L163.301 24.509C162.715 24.5097 162.191 24.4371 161.728 24.2912C161.265 24.1394 160.872 23.9319 160.549 23.6686C160.227 23.3995 159.98 23.0863 159.81 22.7291C159.64 22.366 159.554 21.9706 159.554 21.5429C159.553 21.1034 159.64 20.699 159.816 20.3297C159.991 19.9603 160.243 19.6378 160.57 19.362C160.904 19.0862 161.308 18.8747 161.783 18.7277C162.263 18.5747 162.805 18.4979 163.408 18.4972Z" fill="white"/>
</svg>
