<svg width="470" height="29" viewBox="0 0 470 29" fill="none" xmlns="http://www.w3.org/2000/svg">
<path d="M53.7246 8.67773H51.3281L50.7715 8.44922C50.1543 8.25391 49.6797 7.95508 49.3477 7.55273C49.0156 7.14648 48.8496 6.64258 48.8496 6.04102C48.8496 5.49023 48.9707 5.02344 49.2129 4.64062C49.459 4.25781 49.8066 3.9668 50.2559 3.76758C50.709 3.56836 51.2441 3.46875 51.8613 3.46875H54.5918V12H53.4609V4.39453H51.8613C51.2363 4.39453 50.7656 4.54297 50.4492 4.83984C50.1367 5.13672 49.9805 5.53711 49.9805 6.04102C49.9805 6.36914 50.0488 6.66211 50.1855 6.91992C50.3262 7.17773 50.5332 7.38086 50.8066 7.5293C51.0801 7.67773 51.4199 7.75195 51.8262 7.75195H53.7305L53.7246 8.67773ZM51.8027 8.0918L49.7285 12H48.5273L50.6602 8.0918H51.8027ZM61.9805 11.2266C62.2383 11.2266 62.4766 11.1738 62.6953 11.0684C62.9141 10.9629 63.0938 10.8184 63.2344 10.6348C63.375 10.4473 63.4551 10.2344 63.4746 9.99609H64.5059C64.4863 10.3711 64.3594 10.7207 64.125 11.0449C63.8945 11.3652 63.5918 11.625 63.2168 11.8242C62.8418 12.0195 62.4297 12.1172 61.9805 12.1172C61.5039 12.1172 61.0879 12.0332 60.7324 11.8652C60.3809 11.6973 60.0879 11.4668 59.8535 11.1738C59.623 10.8809 59.4492 10.5449 59.332 10.166C59.2188 9.7832 59.1621 9.37891 59.1621 8.95312V8.70703C59.1621 8.28125 59.2188 7.87891 59.332 7.5C59.4492 7.11719 59.623 6.7793 59.8535 6.48633C60.0879 6.19336 60.3809 5.96289 60.7324 5.79492C61.0879 5.62695 61.5039 5.54297 61.9805 5.54297C62.4766 5.54297 62.9102 5.64453 63.2812 5.84766C63.6523 6.04688 63.9434 6.32031 64.1543 6.66797C64.3691 7.01172 64.4863 7.40234 64.5059 7.83984H63.4746C63.4551 7.57812 63.3809 7.3418 63.252 7.13086C63.127 6.91992 62.9551 6.75195 62.7363 6.62695C62.5215 6.49805 62.2695 6.43359 61.9805 6.43359C61.6484 6.43359 61.3691 6.5 61.1426 6.63281C60.9199 6.76172 60.7422 6.9375 60.6094 7.16016C60.4805 7.37891 60.3867 7.62305 60.3281 7.89258C60.2734 8.1582 60.2461 8.42969 60.2461 8.70703V8.95312C60.2461 9.23047 60.2734 9.50391 60.3281 9.77344C60.3828 10.043 60.4746 10.2871 60.6035 10.5059C60.7363 10.7246 60.9141 10.9004 61.1367 11.0332C61.3633 11.1621 61.6445 11.2266 61.9805 11.2266ZM65.4375 8.90039V8.76562C65.4375 8.30859 65.5039 7.88477 65.6367 7.49414C65.7695 7.09961 65.9609 6.75781 66.2109 6.46875C66.4609 6.17578 66.7637 5.94922 67.1191 5.78906C67.4746 5.625 67.873 5.54297 68.3145 5.54297C68.7598 5.54297 69.1602 5.625 69.5156 5.78906C69.875 5.94922 70.1797 6.17578 70.4297 6.46875C70.6836 6.75781 70.877 7.09961 71.0098 7.49414C71.1426 7.88477 71.209 8.30859 71.209 8.76562V8.90039C71.209 9.35742 71.1426 9.78125 71.0098 10.1719C70.877 10.5625 70.6836 10.9043 70.4297 11.1973C70.1797 11.4863 69.877 11.7129 69.5215 11.877C69.1699 12.0371 68.7715 12.1172 68.3262 12.1172C67.8809 12.1172 67.4805 12.0371 67.125 11.877C66.7695 11.7129 66.4648 11.4863 66.2109 11.1973C65.9609 10.9043 65.7695 10.5625 65.6367 10.1719C65.5039 9.78125 65.4375 9.35742 65.4375 8.90039ZM66.5215 8.76562V8.90039C66.5215 9.2168 66.5586 9.51562 66.6328 9.79688C66.707 10.0742 66.8184 10.3203 66.9668 10.5352C67.1191 10.75 67.3086 10.9199 67.5352 11.0449C67.7617 11.166 68.0254 11.2266 68.3262 11.2266C68.623 11.2266 68.8828 11.166 69.1055 11.0449C69.332 10.9199 69.5195 10.75 69.668 10.5352C69.8164 10.3203 69.9277 10.0742 70.002 9.79688C70.0801 9.51562 70.1191 9.2168 70.1191 8.90039V8.76562C70.1191 8.45312 70.0801 8.1582 70.002 7.88086C69.9277 7.59961 69.8145 7.35156 69.6621 7.13672C69.5137 6.91797 69.3262 6.74609 69.0996 6.62109C68.877 6.49609 68.6152 6.43359 68.3145 6.43359C68.0176 6.43359 67.7559 6.49609 67.5293 6.62109C67.3066 6.74609 67.1191 6.91797 66.9668 7.13672C66.8184 7.35156 66.707 7.59961 66.6328 7.88086C66.5586 8.1582 66.5215 8.45312 66.5215 8.76562ZM76.6641 5.66016V6.55664H73.7344V12H72.6504V5.66016H76.6641ZM81.6094 5.66016V6.55664H78.5449V5.66016H81.6094ZM82.5645 5.66016V12H81.4805V5.66016H82.5645ZM78.2812 5.66016H79.3711L79.207 8.71875C79.1797 9.19141 79.1348 9.60938 79.0723 9.97266C79.0137 10.332 78.9316 10.6406 78.8262 10.8984C78.7246 11.1562 78.5957 11.3672 78.4395 11.5312C78.2871 11.6914 78.1035 11.8105 77.8887 11.8887C77.6738 11.9629 77.4258 12 77.1445 12H76.8047V11.0449L77.0391 11.0273C77.207 11.0156 77.3496 10.9766 77.4668 10.9102C77.5879 10.8438 77.6895 10.7461 77.7715 10.6172C77.8535 10.4844 77.9199 10.3145 77.9707 10.1074C78.0254 9.90039 78.0664 9.6543 78.0938 9.36914C78.125 9.08398 78.1484 8.75195 78.1641 8.37305L78.2812 5.66016ZM88.0488 10.916V7.65234C88.0488 7.40234 87.998 7.18555 87.8965 7.00195C87.7988 6.81445 87.6504 6.66992 87.4512 6.56836C87.252 6.4668 87.0059 6.41602 86.7129 6.41602C86.4395 6.41602 86.1992 6.46289 85.9922 6.55664C85.7891 6.65039 85.6289 6.77344 85.5117 6.92578C85.3984 7.07812 85.3418 7.24219 85.3418 7.41797H84.2578C84.2578 7.19141 84.3164 6.9668 84.4336 6.74414C84.5508 6.52148 84.7188 6.32031 84.9375 6.14062C85.1602 5.95703 85.4258 5.8125 85.7344 5.70703C86.0469 5.59766 86.3945 5.54297 86.7773 5.54297C87.2383 5.54297 87.6445 5.62109 87.9961 5.77734C88.3516 5.93359 88.6289 6.16992 88.8281 6.48633C89.0312 6.79883 89.1328 7.19141 89.1328 7.66406V10.6172C89.1328 10.8281 89.1504 11.0527 89.1855 11.291C89.2246 11.5293 89.2812 11.7344 89.3555 11.9062V12H88.2246C88.1699 11.875 88.127 11.709 88.0957 11.502C88.0645 11.291 88.0488 11.0957 88.0488 10.916ZM88.2363 8.15625L88.248 8.91797H87.1523C86.8438 8.91797 86.5684 8.94336 86.3262 8.99414C86.084 9.04102 85.8809 9.11328 85.7168 9.21094C85.5527 9.30859 85.4277 9.43164 85.3418 9.58008C85.2559 9.72461 85.2129 9.89453 85.2129 10.0898C85.2129 10.2891 85.2578 10.4707 85.3477 10.6348C85.4375 10.7988 85.5723 10.9297 85.752 11.0273C85.9355 11.1211 86.1602 11.168 86.4258 11.168C86.7578 11.168 87.0508 11.0977 87.3047 10.957C87.5586 10.8164 87.7598 10.6445 87.9082 10.4414C88.0605 10.2383 88.1426 10.041 88.1543 9.84961L88.6172 10.3711C88.5898 10.5352 88.5156 10.7168 88.3945 10.916C88.2734 11.1152 88.1113 11.3066 87.9082 11.4902C87.709 11.6699 87.4707 11.8203 87.1934 11.9414C86.9199 12.0586 86.6113 12.1172 86.2676 12.1172C85.8379 12.1172 85.4609 12.0332 85.1367 11.8652C84.8164 11.6973 84.5664 11.4727 84.3867 11.1914C84.2109 10.9062 84.123 10.5879 84.123 10.2363C84.123 9.89648 84.1895 9.59766 84.3223 9.33984C84.4551 9.07812 84.6465 8.86133 84.8965 8.68945C85.1465 8.51367 85.4473 8.38086 85.7988 8.29102C86.1504 8.20117 86.543 8.15625 86.9766 8.15625H88.2363ZM90.9316 5.66016H92.0156V11.1094H94.3359V5.66016H95.4258V11.1094H97.7402V5.66016H98.8242V12H90.9316V5.66016ZM104.291 10.916V7.65234C104.291 7.40234 104.24 7.18555 104.139 7.00195C104.041 6.81445 103.893 6.66992 103.693 6.56836C103.494 6.4668 103.248 6.41602 102.955 6.41602C102.682 6.41602 102.441 6.46289 102.234 6.55664C102.031 6.65039 101.871 6.77344 101.754 6.92578C101.641 7.07812 101.584 7.24219 101.584 7.41797H100.5C100.5 7.19141 100.559 6.9668 100.676 6.74414C100.793 6.52148 100.961 6.32031 101.18 6.14062C101.402 5.95703 101.668 5.8125 101.977 5.70703C102.289 5.59766 102.637 5.54297 103.02 5.54297C103.48 5.54297 103.887 5.62109 104.238 5.77734C104.594 5.93359 104.871 6.16992 105.07 6.48633C105.273 6.79883 105.375 7.19141 105.375 7.66406V10.6172C105.375 10.8281 105.393 11.0527 105.428 11.291C105.467 11.5293 105.523 11.7344 105.598 11.9062V12H104.467C104.412 11.875 104.369 11.709 104.338 11.502C104.307 11.291 104.291 11.0957 104.291 10.916ZM104.479 8.15625L104.49 8.91797H103.395C103.086 8.91797 102.811 8.94336 102.568 8.99414C102.326 9.04102 102.123 9.11328 101.959 9.21094C101.795 9.30859 101.67 9.43164 101.584 9.58008C101.498 9.72461 101.455 9.89453 101.455 10.0898C101.455 10.2891 101.5 10.4707 101.59 10.6348C101.68 10.7988 101.814 10.9297 101.994 11.0273C102.178 11.1211 102.402 11.168 102.668 11.168C103 11.168 103.293 11.0977 103.547 10.957C103.801 10.8164 104.002 10.6445 104.15 10.4414C104.303 10.2383 104.385 10.041 104.396 9.84961L104.859 10.3711C104.832 10.5352 104.758 10.7168 104.637 10.916C104.516 11.1152 104.354 11.3066 104.15 11.4902C103.951 11.6699 103.713 11.8203 103.436 11.9414C103.162 12.0586 102.854 12.1172 102.51 12.1172C102.08 12.1172 101.703 12.0332 101.379 11.8652C101.059 11.6973 100.809 11.4727 100.629 11.1914C100.453 10.9062 100.365 10.5879 100.365 10.2363C100.365 9.89648 100.432 9.59766 100.564 9.33984C100.697 9.07812 100.889 8.86133 101.139 8.68945C101.389 8.51367 101.689 8.38086 102.041 8.29102C102.393 8.20117 102.785 8.15625 103.219 8.15625H104.479ZM110.689 8.34961V9.23438H107.32V8.34961H110.689ZM108.264 5.66016V12H107.18V5.66016H108.264ZM109.764 8.90039V8.76562C109.764 8.30859 109.83 7.88477 109.963 7.49414C110.096 7.09961 110.287 6.75781 110.537 6.46875C110.791 6.17578 111.094 5.94922 111.445 5.78906C111.801 5.625 112.199 5.54297 112.641 5.54297C113.09 5.54297 113.492 5.625 113.848 5.78906C114.203 5.94922 114.506 6.17578 114.756 6.46875C115.01 6.75781 115.203 7.09961 115.336 7.49414C115.469 7.88477 115.535 8.30859 115.535 8.76562V8.90039C115.535 9.35742 115.469 9.78125 115.336 10.1719C115.203 10.5625 115.012 10.9043 114.762 11.1973C114.512 11.4863 114.209 11.7129 113.854 11.877C113.498 12.0371 113.098 12.1172 112.652 12.1172C112.207 12.1172 111.807 12.0371 111.451 11.877C111.096 11.7129 110.791 11.4863 110.537 11.1973C110.287 10.9043 110.096 10.5625 109.963 10.1719C109.83 9.78125 109.764 9.35742 109.764 8.90039ZM110.854 8.76562V8.90039C110.854 9.2168 110.891 9.51562 110.965 9.79688C111.039 10.0742 111.15 10.3203 111.299 10.5352C111.451 10.75 111.639 10.9199 111.861 11.0449C112.088 11.166 112.352 11.2266 112.652 11.2266C112.953 11.2266 113.215 11.166 113.438 11.0449C113.664 10.9199 113.852 10.75 114 10.5352C114.148 10.3203 114.26 10.0742 114.334 9.79688C114.412 9.51562 114.451 9.2168 114.451 8.90039V8.76562C114.451 8.45312 114.412 8.1582 114.334 7.88086C114.26 7.59961 114.146 7.35156 113.994 7.13672C113.846 6.91797 113.658 6.74609 113.432 6.62109C113.205 6.49609 112.941 6.43359 112.641 6.43359C112.344 6.43359 112.084 6.49609 111.861 6.62109C111.639 6.74609 111.451 6.91797 111.299 7.13672C111.15 7.35156 111.039 7.59961 110.965 7.88086C110.891 8.1582 110.854 8.45312 110.854 8.76562ZM119.414 11.2266C119.672 11.2266 119.91 11.1738 120.129 11.0684C120.348 10.9629 120.527 10.8184 120.668 10.6348C120.809 10.4473 120.889 10.2344 120.908 9.99609H121.939C121.92 10.3711 121.793 10.7207 121.559 11.0449C121.328 11.3652 121.025 11.625 120.65 11.8242C120.275 12.0195 119.863 12.1172 119.414 12.1172C118.938 12.1172 118.521 12.0332 118.166 11.8652C117.814 11.6973 117.521 11.4668 117.287 11.1738C117.057 10.8809 116.883 10.5449 116.766 10.166C116.652 9.7832 116.596 9.37891 116.596 8.95312V8.70703C116.596 8.28125 116.652 7.87891 116.766 7.5C116.883 7.11719 117.057 6.7793 117.287 6.48633C117.521 6.19336 117.814 5.96289 118.166 5.79492C118.521 5.62695 118.938 5.54297 119.414 5.54297C119.91 5.54297 120.344 5.64453 120.715 5.84766C121.086 6.04688 121.377 6.32031 121.588 6.66797C121.803 7.01172 121.92 7.40234 121.939 7.83984H120.908C120.889 7.57812 120.814 7.3418 120.686 7.13086C120.561 6.91992 120.389 6.75195 120.17 6.62695C119.955 6.49805 119.703 6.43359 119.414 6.43359C119.082 6.43359 118.803 6.5 118.576 6.63281C118.354 6.76172 118.176 6.9375 118.043 7.16016C117.914 7.37891 117.82 7.62305 117.762 7.89258C117.707 8.1582 117.68 8.42969 117.68 8.70703V8.95312C117.68 9.23047 117.707 9.50391 117.762 9.77344C117.816 10.043 117.908 10.2871 118.037 10.5059C118.17 10.7246 118.348 10.9004 118.57 11.0332C118.797 11.1621 119.078 11.2266 119.414 11.2266ZM124.049 7.83984H125.953C126.465 7.83984 126.896 7.92969 127.248 8.10938C127.6 8.28516 127.865 8.5293 128.045 8.8418C128.229 9.15039 128.32 9.50195 128.32 9.89648C128.32 10.1895 128.27 10.4648 128.168 10.7227C128.066 10.9766 127.914 11.1992 127.711 11.3906C127.512 11.582 127.264 11.7324 126.967 11.8418C126.674 11.9473 126.336 12 125.953 12H123.258V5.66016H124.342V11.1094H125.953C126.266 11.1094 126.516 11.0527 126.703 10.9395C126.891 10.8262 127.025 10.6797 127.107 10.5C127.189 10.3203 127.23 10.1328 127.23 9.9375C127.23 9.74609 127.189 9.55859 127.107 9.375C127.025 9.19141 126.891 9.03906 126.703 8.91797C126.516 8.79297 126.266 8.73047 125.953 8.73047H124.049V7.83984ZM136.951 8.4082V9.28711H133.6V8.4082H136.951ZM133.828 5.66016V12H132.744V5.66016H133.828ZM137.83 5.66016V12H136.74V5.66016H137.83ZM143.314 10.916V7.65234C143.314 7.40234 143.264 7.18555 143.162 7.00195C143.064 6.81445 142.916 6.66992 142.717 6.56836C142.518 6.4668 142.271 6.41602 141.979 6.41602C141.705 6.41602 141.465 6.46289 141.258 6.55664C141.055 6.65039 140.895 6.77344 140.777 6.92578C140.664 7.07812 140.607 7.24219 140.607 7.41797H139.523C139.523 7.19141 139.582 6.9668 139.699 6.74414C139.816 6.52148 139.984 6.32031 140.203 6.14062C140.426 5.95703 140.691 5.8125 141 5.70703C141.312 5.59766 141.66 5.54297 142.043 5.54297C142.504 5.54297 142.91 5.62109 143.262 5.77734C143.617 5.93359 143.895 6.16992 144.094 6.48633C144.297 6.79883 144.398 7.19141 144.398 7.66406V10.6172C144.398 10.8281 144.416 11.0527 144.451 11.291C144.49 11.5293 144.547 11.7344 144.621 11.9062V12H143.49C143.436 11.875 143.393 11.709 143.361 11.502C143.33 11.291 143.314 11.0957 143.314 10.916ZM143.502 8.15625L143.514 8.91797H142.418C142.109 8.91797 141.834 8.94336 141.592 8.99414C141.35 9.04102 141.146 9.11328 140.982 9.21094C140.818 9.30859 140.693 9.43164 140.607 9.58008C140.521 9.72461 140.479 9.89453 140.479 10.0898C140.479 10.2891 140.523 10.4707 140.613 10.6348C140.703 10.7988 140.838 10.9297 141.018 11.0273C141.201 11.1211 141.426 11.168 141.691 11.168C142.023 11.168 142.316 11.0977 142.57 10.957C142.824 10.8164 143.025 10.6445 143.174 10.4414C143.326 10.2383 143.408 10.041 143.42 9.84961L143.883 10.3711C143.855 10.5352 143.781 10.7168 143.66 10.916C143.539 11.1152 143.377 11.3066 143.174 11.4902C142.975 11.6699 142.736 11.8203 142.459 11.9414C142.186 12.0586 141.877 12.1172 141.533 12.1172C141.104 12.1172 140.727 12.0332 140.402 11.8652C140.082 11.6973 139.832 11.4727 139.652 11.1914C139.477 10.9062 139.389 10.5879 139.389 10.2363C139.389 9.89648 139.455 9.59766 139.588 9.33984C139.721 9.07812 139.912 8.86133 140.162 8.68945C140.412 8.51367 140.713 8.38086 141.064 8.29102C141.416 8.20117 141.809 8.15625 142.242 8.15625H143.502ZM148.793 8.90039V8.76562C148.793 8.30859 148.859 7.88477 148.992 7.49414C149.125 7.09961 149.316 6.75781 149.566 6.46875C149.816 6.17578 150.119 5.94922 150.475 5.78906C150.83 5.625 151.229 5.54297 151.67 5.54297C152.115 5.54297 152.516 5.625 152.871 5.78906C153.23 5.94922 153.535 6.17578 153.785 6.46875C154.039 6.75781 154.232 7.09961 154.365 7.49414C154.498 7.88477 154.564 8.30859 154.564 8.76562V8.90039C154.564 9.35742 154.498 9.78125 154.365 10.1719C154.232 10.5625 154.039 10.9043 153.785 11.1973C153.535 11.4863 153.232 11.7129 152.877 11.877C152.525 12.0371 152.127 12.1172 151.682 12.1172C151.236 12.1172 150.836 12.0371 150.48 11.877C150.125 11.7129 149.82 11.4863 149.566 11.1973C149.316 10.9043 149.125 10.5625 148.992 10.1719C148.859 9.78125 148.793 9.35742 148.793 8.90039ZM149.877 8.76562V8.90039C149.877 9.2168 149.914 9.51562 149.988 9.79688C150.062 10.0742 150.174 10.3203 150.322 10.5352C150.475 10.75 150.664 10.9199 150.891 11.0449C151.117 11.166 151.381 11.2266 151.682 11.2266C151.979 11.2266 152.238 11.166 152.461 11.0449C152.688 10.9199 152.875 10.75 153.023 10.5352C153.172 10.3203 153.283 10.0742 153.357 9.79688C153.436 9.51562 153.475 9.2168 153.475 8.90039V8.76562C153.475 8.45312 153.436 8.1582 153.357 7.88086C153.283 7.59961 153.17 7.35156 153.018 7.13672C152.869 6.91797 152.682 6.74609 152.455 6.62109C152.232 6.49609 151.971 6.43359 151.67 6.43359C151.373 6.43359 151.111 6.49609 150.885 6.62109C150.662 6.74609 150.475 6.91797 150.322 7.13672C150.174 7.35156 150.062 7.59961 149.988 7.88086C149.914 8.1582 149.877 8.45312 149.877 8.76562ZM159.99 2.90039H160.881C160.881 3.2832 160.822 3.58789 160.705 3.81445C160.588 4.03711 160.428 4.20898 160.225 4.33008C160.025 4.45117 159.799 4.54297 159.545 4.60547C159.295 4.66797 159.035 4.72852 158.766 4.78711C158.43 4.85742 158.117 4.96875 157.828 5.12109C157.543 5.26953 157.297 5.48047 157.09 5.75391C156.887 6.02734 156.736 6.38281 156.639 6.82031C156.545 7.25781 156.52 7.79883 156.562 8.44336V8.98242H155.672V8.44336C155.672 7.7207 155.74 7.08984 155.877 6.55078C156.018 6.01172 156.215 5.55664 156.469 5.18555C156.723 4.81445 157.023 4.51953 157.371 4.30078C157.723 4.08203 158.109 3.93164 158.531 3.84961C158.836 3.79102 159.098 3.72852 159.316 3.66211C159.535 3.5918 159.701 3.49805 159.814 3.38086C159.932 3.26367 159.99 3.10352 159.99 2.90039ZM158.707 6.02344C159.121 6.02344 159.49 6.0957 159.814 6.24023C160.139 6.38477 160.414 6.58594 160.641 6.84375C160.867 7.10156 161.039 7.40625 161.156 7.75781C161.277 8.10547 161.338 8.48438 161.338 8.89453V9.02344C161.338 9.46484 161.273 9.875 161.145 10.2539C161.02 10.6289 160.834 10.957 160.588 11.2383C160.346 11.5156 160.049 11.7324 159.697 11.8887C159.35 12.0449 158.953 12.123 158.508 12.123C158.062 12.123 157.664 12.0449 157.312 11.8887C156.965 11.7324 156.668 11.5156 156.422 11.2383C156.176 10.957 155.988 10.6289 155.859 10.2539C155.734 9.875 155.672 9.46484 155.672 9.02344V8.89453C155.672 8.79688 155.689 8.70117 155.725 8.60742C155.76 8.51367 155.803 8.41797 155.854 8.32031C155.908 8.22266 155.957 8.11914 156 8.00977C156.145 7.6582 156.342 7.33203 156.592 7.03125C156.846 6.73047 157.148 6.48828 157.5 6.30469C157.855 6.11719 158.258 6.02344 158.707 6.02344ZM158.496 6.9082C158.098 6.9082 157.77 7 157.512 7.18359C157.258 7.36719 157.068 7.61133 156.943 7.91602C156.818 8.2168 156.756 8.54297 156.756 8.89453V9.02344C156.756 9.32031 156.791 9.60156 156.861 9.86719C156.932 10.1328 157.037 10.3691 157.178 10.5762C157.322 10.7793 157.504 10.9395 157.723 11.0566C157.945 11.1738 158.207 11.2324 158.508 11.2324C158.809 11.2324 159.068 11.1738 159.287 11.0566C159.506 10.9395 159.686 10.7793 159.826 10.5762C159.967 10.3691 160.072 10.1328 160.143 9.86719C160.213 9.60156 160.248 9.32031 160.248 9.02344V8.89453C160.248 8.62891 160.213 8.37695 160.143 8.13867C160.072 7.90039 159.965 7.68945 159.82 7.50586C159.68 7.32227 159.498 7.17773 159.275 7.07227C159.057 6.96289 158.797 6.9082 158.496 6.9082ZM163.547 6.87891V14.4375H162.457V5.66016H163.453L163.547 6.87891ZM167.818 8.77734V8.90039C167.818 9.36133 167.764 9.78906 167.654 10.1836C167.545 10.5742 167.385 10.9141 167.174 11.2031C166.967 11.4922 166.711 11.7168 166.406 11.877C166.102 12.0371 165.752 12.1172 165.357 12.1172C164.955 12.1172 164.6 12.0508 164.291 11.918C163.982 11.7852 163.721 11.5918 163.506 11.3379C163.291 11.084 163.119 10.7793 162.99 10.4238C162.865 10.0684 162.779 9.66797 162.732 9.22266V8.56641C162.779 8.09766 162.867 7.67773 162.996 7.30664C163.125 6.93555 163.295 6.61914 163.506 6.35742C163.721 6.0918 163.98 5.89062 164.285 5.75391C164.59 5.61328 164.941 5.54297 165.34 5.54297C165.738 5.54297 166.092 5.62109 166.4 5.77734C166.709 5.92969 166.969 6.14844 167.18 6.43359C167.391 6.71875 167.549 7.06055 167.654 7.45898C167.764 7.85352 167.818 8.29297 167.818 8.77734ZM166.729 8.90039V8.77734C166.729 8.46094 166.695 8.16406 166.629 7.88672C166.562 7.60547 166.459 7.35938 166.318 7.14844C166.182 6.93359 166.006 6.76562 165.791 6.64453C165.576 6.51953 165.32 6.45703 165.023 6.45703C164.75 6.45703 164.512 6.50391 164.309 6.59766C164.109 6.69141 163.939 6.81836 163.799 6.97852C163.658 7.13477 163.543 7.31445 163.453 7.51758C163.367 7.7168 163.303 7.92383 163.26 8.13867V9.65625C163.338 9.92969 163.447 10.1875 163.588 10.4297C163.729 10.668 163.916 10.8613 164.15 11.0098C164.385 11.1543 164.68 11.2266 165.035 11.2266C165.328 11.2266 165.58 11.166 165.791 11.0449C166.006 10.9199 166.182 10.75 166.318 10.5352C166.459 10.3203 166.562 10.0742 166.629 9.79688C166.695 9.51562 166.729 9.2168 166.729 8.90039ZM172.939 10.916V7.65234C172.939 7.40234 172.889 7.18555 172.787 7.00195C172.689 6.81445 172.541 6.66992 172.342 6.56836C172.143 6.4668 171.896 6.41602 171.604 6.41602C171.33 6.41602 171.09 6.46289 170.883 6.55664C170.68 6.65039 170.52 6.77344 170.402 6.92578C170.289 7.07812 170.232 7.24219 170.232 7.41797H169.148C169.148 7.19141 169.207 6.9668 169.324 6.74414C169.441 6.52148 169.609 6.32031 169.828 6.14062C170.051 5.95703 170.316 5.8125 170.625 5.70703C170.938 5.59766 171.285 5.54297 171.668 5.54297C172.129 5.54297 172.535 5.62109 172.887 5.77734C173.242 5.93359 173.52 6.16992 173.719 6.48633C173.922 6.79883 174.023 7.19141 174.023 7.66406V10.6172C174.023 10.8281 174.041 11.0527 174.076 11.291C174.115 11.5293 174.172 11.7344 174.246 11.9062V12H173.115C173.061 11.875 173.018 11.709 172.986 11.502C172.955 11.291 172.939 11.0957 172.939 10.916ZM173.127 8.15625L173.139 8.91797H172.043C171.734 8.91797 171.459 8.94336 171.217 8.99414C170.975 9.04102 170.771 9.11328 170.607 9.21094C170.443 9.30859 170.318 9.43164 170.232 9.58008C170.146 9.72461 170.104 9.89453 170.104 10.0898C170.104 10.2891 170.148 10.4707 170.238 10.6348C170.328 10.7988 170.463 10.9297 170.643 11.0273C170.826 11.1211 171.051 11.168 171.316 11.168C171.648 11.168 171.941 11.0977 172.195 10.957C172.449 10.8164 172.65 10.6445 172.799 10.4414C172.951 10.2383 173.033 10.041 173.045 9.84961L173.508 10.3711C173.48 10.5352 173.406 10.7168 173.285 10.916C173.164 11.1152 173.002 11.3066 172.799 11.4902C172.6 11.6699 172.361 11.8203 172.084 11.9414C171.811 12.0586 171.502 12.1172 171.158 12.1172C170.729 12.1172 170.352 12.0332 170.027 11.8652C169.707 11.6973 169.457 11.4727 169.277 11.1914C169.102 10.9062 169.014 10.5879 169.014 10.2363C169.014 9.89648 169.08 9.59766 169.213 9.33984C169.346 9.07812 169.537 8.86133 169.787 8.68945C170.037 8.51367 170.338 8.38086 170.689 8.29102C171.041 8.20117 171.434 8.15625 171.867 8.15625H173.127ZM179.795 2.90039H180.686C180.686 3.2832 180.627 3.58789 180.51 3.81445C180.393 4.03711 180.232 4.20898 180.029 4.33008C179.83 4.45117 179.604 4.54297 179.35 4.60547C179.1 4.66797 178.84 4.72852 178.57 4.78711C178.234 4.85742 177.922 4.96875 177.633 5.12109C177.348 5.26953 177.102 5.48047 176.895 5.75391C176.691 6.02734 176.541 6.38281 176.443 6.82031C176.35 7.25781 176.324 7.79883 176.367 8.44336V8.98242H175.477V8.44336C175.477 7.7207 175.545 7.08984 175.682 6.55078C175.822 6.01172 176.02 5.55664 176.273 5.18555C176.527 4.81445 176.828 4.51953 177.176 4.30078C177.527 4.08203 177.914 3.93164 178.336 3.84961C178.641 3.79102 178.902 3.72852 179.121 3.66211C179.34 3.5918 179.506 3.49805 179.619 3.38086C179.736 3.26367 179.795 3.10352 179.795 2.90039ZM178.512 6.02344C178.926 6.02344 179.295 6.0957 179.619 6.24023C179.943 6.38477 180.219 6.58594 180.445 6.84375C180.672 7.10156 180.844 7.40625 180.961 7.75781C181.082 8.10547 181.143 8.48438 181.143 8.89453V9.02344C181.143 9.46484 181.078 9.875 180.949 10.2539C180.824 10.6289 180.639 10.957 180.393 11.2383C180.15 11.5156 179.854 11.7324 179.502 11.8887C179.154 12.0449 178.758 12.123 178.312 12.123C177.867 12.123 177.469 12.0449 177.117 11.8887C176.77 11.7324 176.473 11.5156 176.227 11.2383C175.98 10.957 175.793 10.6289 175.664 10.2539C175.539 9.875 175.477 9.46484 175.477 9.02344V8.89453C175.477 8.79688 175.494 8.70117 175.529 8.60742C175.564 8.51367 175.607 8.41797 175.658 8.32031C175.713 8.22266 175.762 8.11914 175.805 8.00977C175.949 7.6582 176.146 7.33203 176.396 7.03125C176.65 6.73047 176.953 6.48828 177.305 6.30469C177.66 6.11719 178.062 6.02344 178.512 6.02344ZM178.301 6.9082C177.902 6.9082 177.574 7 177.316 7.18359C177.062 7.36719 176.873 7.61133 176.748 7.91602C176.623 8.2168 176.561 8.54297 176.561 8.89453V9.02344C176.561 9.32031 176.596 9.60156 176.666 9.86719C176.736 10.1328 176.842 10.3691 176.982 10.5762C177.127 10.7793 177.309 10.9395 177.527 11.0566C177.75 11.1738 178.012 11.2324 178.312 11.2324C178.613 11.2324 178.873 11.1738 179.092 11.0566C179.311 10.9395 179.49 10.7793 179.631 10.5762C179.771 10.3691 179.877 10.1328 179.947 9.86719C180.018 9.60156 180.053 9.32031 180.053 9.02344V8.89453C180.053 8.62891 180.018 8.37695 179.947 8.13867C179.877 7.90039 179.77 7.68945 179.625 7.50586C179.484 7.32227 179.303 7.17773 179.08 7.07227C178.861 6.96289 178.602 6.9082 178.301 6.9082ZM182.086 8.90039V8.76562C182.086 8.30859 182.152 7.88477 182.285 7.49414C182.418 7.09961 182.609 6.75781 182.859 6.46875C183.109 6.17578 183.412 5.94922 183.768 5.78906C184.123 5.625 184.521 5.54297 184.963 5.54297C185.408 5.54297 185.809 5.625 186.164 5.78906C186.523 5.94922 186.828 6.17578 187.078 6.46875C187.332 6.75781 187.525 7.09961 187.658 7.49414C187.791 7.88477 187.857 8.30859 187.857 8.76562V8.90039C187.857 9.35742 187.791 9.78125 187.658 10.1719C187.525 10.5625 187.332 10.9043 187.078 11.1973C186.828 11.4863 186.525 11.7129 186.17 11.877C185.818 12.0371 185.42 12.1172 184.975 12.1172C184.529 12.1172 184.129 12.0371 183.773 11.877C183.418 11.7129 183.113 11.4863 182.859 11.1973C182.609 10.9043 182.418 10.5625 182.285 10.1719C182.152 9.78125 182.086 9.35742 182.086 8.90039ZM183.17 8.76562V8.90039C183.17 9.2168 183.207 9.51562 183.281 9.79688C183.355 10.0742 183.467 10.3203 183.615 10.5352C183.768 10.75 183.957 10.9199 184.184 11.0449C184.41 11.166 184.674 11.2266 184.975 11.2266C185.271 11.2266 185.531 11.166 185.754 11.0449C185.98 10.9199 186.168 10.75 186.316 10.5352C186.465 10.3203 186.576 10.0742 186.65 9.79688C186.729 9.51562 186.768 9.2168 186.768 8.90039V8.76562C186.768 8.45312 186.729 8.1582 186.65 7.88086C186.576 7.59961 186.463 7.35156 186.311 7.13672C186.162 6.91797 185.975 6.74609 185.748 6.62109C185.525 6.49609 185.264 6.43359 184.963 6.43359C184.666 6.43359 184.404 6.49609 184.178 6.62109C183.955 6.74609 183.768 6.91797 183.615 7.13672C183.467 7.35156 183.355 7.59961 183.281 7.88086C183.207 8.1582 183.17 8.45312 183.17 8.76562ZM191.672 5.66016V12H190.582V5.66016H191.672ZM193.799 5.66016V6.53906H188.496V5.66016H193.799ZM196.043 5.66016V12H194.959V5.66016H196.043ZM200.203 5.66016L197.197 9.29297H195.68L195.516 8.34375H196.758L198.885 5.66016H200.203ZM199.037 12L196.705 9.12891L197.402 8.34375L200.414 12H199.037ZM203.139 11.3438L204.902 5.66016H206.062L203.52 12.9785C203.461 13.1348 203.383 13.3027 203.285 13.4824C203.191 13.666 203.07 13.8398 202.922 14.0039C202.773 14.168 202.594 14.3008 202.383 14.4023C202.176 14.5078 201.928 14.5605 201.639 14.5605C201.553 14.5605 201.443 14.5488 201.311 14.5254C201.178 14.502 201.084 14.4824 201.029 14.4668L201.023 13.5879C201.055 13.5918 201.104 13.5957 201.17 13.5996C201.24 13.6074 201.289 13.6113 201.316 13.6113C201.562 13.6113 201.771 13.5781 201.943 13.5117C202.115 13.4492 202.26 13.3418 202.377 13.1895C202.498 13.041 202.602 12.8359 202.688 12.5742L203.139 11.3438ZM201.844 5.66016L203.49 10.582L203.771 11.7246L202.992 12.123L200.66 5.66016H201.844ZM213.662 10.5586L215.818 5.66016H216.861L214.037 12H213.287L210.475 5.66016H211.518L213.662 10.5586ZM211.201 5.66016V12H210.117V5.66016H211.201ZM216.088 12V5.66016H217.178V12H216.088ZM218.637 8.90039V8.76562C218.637 8.30859 218.703 7.88477 218.836 7.49414C218.969 7.09961 219.16 6.75781 219.41 6.46875C219.66 6.17578 219.963 5.94922 220.318 5.78906C220.674 5.625 221.072 5.54297 221.514 5.54297C221.959 5.54297 222.359 5.625 222.715 5.78906C223.074 5.94922 223.379 6.17578 223.629 6.46875C223.883 6.75781 224.076 7.09961 224.209 7.49414C224.342 7.88477 224.408 8.30859 224.408 8.76562V8.90039C224.408 9.35742 224.342 9.78125 224.209 10.1719C224.076 10.5625 223.883 10.9043 223.629 11.1973C223.379 11.4863 223.076 11.7129 222.721 11.877C222.369 12.0371 221.971 12.1172 221.525 12.1172C221.08 12.1172 220.68 12.0371 220.324 11.877C219.969 11.7129 219.664 11.4863 219.41 11.1973C219.16 10.9043 218.969 10.5625 218.836 10.1719C218.703 9.78125 218.637 9.35742 218.637 8.90039ZM219.721 8.76562V8.90039C219.721 9.2168 219.758 9.51562 219.832 9.79688C219.906 10.0742 220.018 10.3203 220.166 10.5352C220.318 10.75 220.508 10.9199 220.734 11.0449C220.961 11.166 221.225 11.2266 221.525 11.2266C221.822 11.2266 222.082 11.166 222.305 11.0449C222.531 10.9199 222.719 10.75 222.867 10.5352C223.016 10.3203 223.127 10.0742 223.201 9.79688C223.279 9.51562 223.318 9.2168 223.318 8.90039V8.76562C223.318 8.45312 223.279 8.1582 223.201 7.88086C223.127 7.59961 223.014 7.35156 222.861 7.13672C222.713 6.91797 222.525 6.74609 222.299 6.62109C222.076 6.49609 221.814 6.43359 221.514 6.43359C221.217 6.43359 220.955 6.49609 220.729 6.62109C220.506 6.74609 220.318 6.91797 220.166 7.13672C220.018 7.35156 219.906 7.59961 219.832 7.88086C219.758 8.1582 219.721 8.45312 219.721 8.76562ZM226.939 10.2832L229.863 5.66016H230.953V12H229.863V7.37695L226.939 12H225.861V5.66016H226.939V10.2832ZM233.426 5.66016L234.814 7.96875L236.221 5.66016H237.492L235.418 8.78906L237.557 12H236.303L234.838 9.62109L233.373 12H232.113L234.246 8.78906L232.178 5.66016H233.426ZM245.848 5.66016V6.55664H242.643V5.66016H245.848ZM242.801 5.66016V12H241.717V5.66016H242.801ZM246.809 5.66016V12H245.719V5.66016H246.809ZM251.18 12.1172C250.738 12.1172 250.338 12.043 249.979 11.8945C249.623 11.7422 249.316 11.5293 249.059 11.2559C248.805 10.9824 248.609 10.6582 248.473 10.2832C248.336 9.9082 248.268 9.49805 248.268 9.05273V8.80664C248.268 8.29102 248.344 7.83203 248.496 7.42969C248.648 7.02344 248.855 6.67969 249.117 6.39844C249.379 6.11719 249.676 5.9043 250.008 5.75977C250.34 5.61523 250.684 5.54297 251.039 5.54297C251.492 5.54297 251.883 5.62109 252.211 5.77734C252.543 5.93359 252.814 6.15234 253.025 6.43359C253.236 6.71094 253.393 7.03906 253.494 7.41797C253.596 7.79297 253.646 8.20312 253.646 8.64844V9.13477H248.912V8.25H252.562V8.16797C252.547 7.88672 252.488 7.61328 252.387 7.34766C252.289 7.08203 252.133 6.86328 251.918 6.69141C251.703 6.51953 251.41 6.43359 251.039 6.43359C250.793 6.43359 250.566 6.48633 250.359 6.5918C250.152 6.69336 249.975 6.8457 249.826 7.04883C249.678 7.25195 249.562 7.5 249.48 7.79297C249.398 8.08594 249.357 8.42383 249.357 8.80664V9.05273C249.357 9.35352 249.398 9.63672 249.48 9.90234C249.566 10.1641 249.689 10.3945 249.85 10.5938C250.014 10.793 250.211 10.9492 250.441 11.0625C250.676 11.1758 250.941 11.2324 251.238 11.2324C251.621 11.2324 251.945 11.1543 252.211 10.998C252.477 10.8418 252.709 10.6328 252.908 10.3711L253.564 10.8926C253.428 11.0996 253.254 11.2969 253.043 11.4844C252.832 11.6719 252.572 11.8242 252.264 11.9414C251.959 12.0586 251.598 12.1172 251.18 12.1172ZM255.996 6.87891V14.4375H254.906V5.66016H255.902L255.996 6.87891ZM260.268 8.77734V8.90039C260.268 9.36133 260.213 9.78906 260.104 10.1836C259.994 10.5742 259.834 10.9141 259.623 11.2031C259.416 11.4922 259.16 11.7168 258.855 11.877C258.551 12.0371 258.201 12.1172 257.807 12.1172C257.404 12.1172 257.049 12.0508 256.74 11.918C256.432 11.7852 256.17 11.5918 255.955 11.3379C255.74 11.084 255.568 10.7793 255.439 10.4238C255.314 10.0684 255.229 9.66797 255.182 9.22266V8.56641C255.229 8.09766 255.316 7.67773 255.445 7.30664C255.574 6.93555 255.744 6.61914 255.955 6.35742C256.17 6.0918 256.43 5.89062 256.734 5.75391C257.039 5.61328 257.391 5.54297 257.789 5.54297C258.188 5.54297 258.541 5.62109 258.85 5.77734C259.158 5.92969 259.418 6.14844 259.629 6.43359C259.84 6.71875 259.998 7.06055 260.104 7.45898C260.213 7.85352 260.268 8.29297 260.268 8.77734ZM259.178 8.90039V8.77734C259.178 8.46094 259.145 8.16406 259.078 7.88672C259.012 7.60547 258.908 7.35938 258.768 7.14844C258.631 6.93359 258.455 6.76562 258.24 6.64453C258.025 6.51953 257.77 6.45703 257.473 6.45703C257.199 6.45703 256.961 6.50391 256.758 6.59766C256.559 6.69141 256.389 6.81836 256.248 6.97852C256.107 7.13477 255.992 7.31445 255.902 7.51758C255.816 7.7168 255.752 7.92383 255.709 8.13867V9.65625C255.787 9.92969 255.896 10.1875 256.037 10.4297C256.178 10.668 256.365 10.8613 256.6 11.0098C256.834 11.1543 257.129 11.2266 257.484 11.2266C257.777 11.2266 258.029 11.166 258.24 11.0449C258.455 10.9199 258.631 10.75 258.768 10.5352C258.908 10.3203 259.012 10.0742 259.078 9.79688C259.145 9.51562 259.178 9.2168 259.178 8.90039ZM264.188 11.2266C264.445 11.2266 264.684 11.1738 264.902 11.0684C265.121 10.9629 265.301 10.8184 265.441 10.6348C265.582 10.4473 265.662 10.2344 265.682 9.99609H266.713C266.693 10.3711 266.566 10.7207 266.332 11.0449C266.102 11.3652 265.799 11.625 265.424 11.8242C265.049 12.0195 264.637 12.1172 264.188 12.1172C263.711 12.1172 263.295 12.0332 262.939 11.8652C262.588 11.6973 262.295 11.4668 262.061 11.1738C261.83 10.8809 261.656 10.5449 261.539 10.166C261.426 9.7832 261.369 9.37891 261.369 8.95312V8.70703C261.369 8.28125 261.426 7.87891 261.539 7.5C261.656 7.11719 261.83 6.7793 262.061 6.48633C262.295 6.19336 262.588 5.96289 262.939 5.79492C263.295 5.62695 263.711 5.54297 264.188 5.54297C264.684 5.54297 265.117 5.64453 265.488 5.84766C265.859 6.04688 266.15 6.32031 266.361 6.66797C266.576 7.01172 266.693 7.40234 266.713 7.83984H265.682C265.662 7.57812 265.588 7.3418 265.459 7.13086C265.334 6.91992 265.162 6.75195 264.943 6.62695C264.729 6.49805 264.477 6.43359 264.188 6.43359C263.855 6.43359 263.576 6.5 263.35 6.63281C263.127 6.76172 262.949 6.9375 262.816 7.16016C262.688 7.37891 262.594 7.62305 262.535 7.89258C262.48 8.1582 262.453 8.42969 262.453 8.70703V8.95312C262.453 9.23047 262.48 9.50391 262.535 9.77344C262.59 10.043 262.682 10.2871 262.811 10.5059C262.943 10.7246 263.121 10.9004 263.344 11.0332C263.57 11.1621 263.852 11.2266 264.188 11.2266ZM267.645 8.90039V8.76562C267.645 8.30859 267.711 7.88477 267.844 7.49414C267.977 7.09961 268.168 6.75781 268.418 6.46875C268.668 6.17578 268.971 5.94922 269.326 5.78906C269.682 5.625 270.08 5.54297 270.521 5.54297C270.967 5.54297 271.367 5.625 271.723 5.78906C272.082 5.94922 272.387 6.17578 272.637 6.46875C272.891 6.75781 273.084 7.09961 273.217 7.49414C273.35 7.88477 273.416 8.30859 273.416 8.76562V8.90039C273.416 9.35742 273.35 9.78125 273.217 10.1719C273.084 10.5625 272.891 10.9043 272.637 11.1973C272.387 11.4863 272.084 11.7129 271.729 11.877C271.377 12.0371 270.979 12.1172 270.533 12.1172C270.088 12.1172 269.688 12.0371 269.332 11.877C268.977 11.7129 268.672 11.4863 268.418 11.1973C268.168 10.9043 267.977 10.5625 267.844 10.1719C267.711 9.78125 267.645 9.35742 267.645 8.90039ZM268.729 8.76562V8.90039C268.729 9.2168 268.766 9.51562 268.84 9.79688C268.914 10.0742 269.025 10.3203 269.174 10.5352C269.326 10.75 269.516 10.9199 269.742 11.0449C269.969 11.166 270.232 11.2266 270.533 11.2266C270.83 11.2266 271.09 11.166 271.312 11.0449C271.539 10.9199 271.727 10.75 271.875 10.5352C272.023 10.3203 272.135 10.0742 272.209 9.79688C272.287 9.51562 272.326 9.2168 272.326 8.90039V8.76562C272.326 8.45312 272.287 8.1582 272.209 7.88086C272.135 7.59961 272.021 7.35156 271.869 7.13672C271.721 6.91797 271.533 6.74609 271.307 6.62109C271.084 6.49609 270.822 6.43359 270.521 6.43359C270.225 6.43359 269.963 6.49609 269.736 6.62109C269.514 6.74609 269.326 6.91797 269.174 7.13672C269.025 7.35156 268.914 7.59961 268.84 7.88086C268.766 8.1582 268.729 8.45312 268.729 8.76562ZM279.076 8.4082V9.28711H275.725V8.4082H279.076ZM275.953 5.66016V12H274.869V5.66016H275.953ZM279.955 5.66016V12H278.865V5.66016H279.955ZM285.439 10.916V7.65234C285.439 7.40234 285.389 7.18555 285.287 7.00195C285.189 6.81445 285.041 6.66992 284.842 6.56836C284.643 6.4668 284.396 6.41602 284.104 6.41602C283.83 6.41602 283.59 6.46289 283.383 6.55664C283.18 6.65039 283.02 6.77344 282.902 6.92578C282.789 7.07812 282.732 7.24219 282.732 7.41797H281.648C281.648 7.19141 281.707 6.9668 281.824 6.74414C281.941 6.52148 282.109 6.32031 282.328 6.14062C282.551 5.95703 282.816 5.8125 283.125 5.70703C283.438 5.59766 283.785 5.54297 284.168 5.54297C284.629 5.54297 285.035 5.62109 285.387 5.77734C285.742 5.93359 286.02 6.16992 286.219 6.48633C286.422 6.79883 286.523 7.19141 286.523 7.66406V10.6172C286.523 10.8281 286.541 11.0527 286.576 11.291C286.615 11.5293 286.672 11.7344 286.746 11.9062V12H285.615C285.561 11.875 285.518 11.709 285.486 11.502C285.455 11.291 285.439 11.0957 285.439 10.916ZM285.627 8.15625L285.639 8.91797H284.543C284.234 8.91797 283.959 8.94336 283.717 8.99414C283.475 9.04102 283.271 9.11328 283.107 9.21094C282.943 9.30859 282.818 9.43164 282.732 9.58008C282.646 9.72461 282.604 9.89453 282.604 10.0898C282.604 10.2891 282.648 10.4707 282.738 10.6348C282.828 10.7988 282.963 10.9297 283.143 11.0273C283.326 11.1211 283.551 11.168 283.816 11.168C284.148 11.168 284.441 11.0977 284.695 10.957C284.949 10.8164 285.15 10.6445 285.299 10.4414C285.451 10.2383 285.533 10.041 285.545 9.84961L286.008 10.3711C285.98 10.5352 285.906 10.7168 285.785 10.916C285.664 11.1152 285.502 11.3066 285.299 11.4902C285.1 11.6699 284.861 11.8203 284.584 11.9414C284.311 12.0586 284.002 12.1172 283.658 12.1172C283.229 12.1172 282.852 12.0332 282.527 11.8652C282.207 11.6973 281.957 11.4727 281.777 11.1914C281.602 10.9062 281.514 10.5879 281.514 10.2363C281.514 9.89648 281.58 9.59766 281.713 9.33984C281.846 9.07812 282.037 8.86133 282.287 8.68945C282.537 8.51367 282.838 8.38086 283.189 8.29102C283.541 8.20117 283.934 8.15625 284.367 8.15625H285.627ZM292.465 5.66016V6.55664H289.4V5.66016H292.465ZM293.42 5.66016V12H292.336V5.66016H293.42ZM289.137 5.66016H290.227L290.062 8.71875C290.035 9.19141 289.99 9.60938 289.928 9.97266C289.869 10.332 289.787 10.6406 289.682 10.8984C289.58 11.1562 289.451 11.3672 289.295 11.5312C289.143 11.6914 288.959 11.8105 288.744 11.8887C288.529 11.9629 288.281 12 288 12H287.66V11.0449L287.895 11.0273C288.062 11.0156 288.205 10.9766 288.322 10.9102C288.443 10.8438 288.545 10.7461 288.627 10.6172C288.709 10.4844 288.775 10.3145 288.826 10.1074C288.881 9.90039 288.922 9.6543 288.949 9.36914C288.98 9.08398 289.004 8.75195 289.02 8.37305L289.137 5.66016ZM296.057 7.83984H297.961C298.473 7.83984 298.904 7.92969 299.256 8.10938C299.607 8.28516 299.873 8.5293 300.053 8.8418C300.236 9.15039 300.328 9.50195 300.328 9.89648C300.328 10.1895 300.277 10.4648 300.176 10.7227C300.074 10.9766 299.922 11.1992 299.719 11.3906C299.52 11.582 299.271 11.7324 298.975 11.8418C298.682 11.9473 298.344 12 297.961 12H295.266V5.66016H296.35V11.1094H297.961C298.273 11.1094 298.523 11.0527 298.711 10.9395C298.898 10.8262 299.033 10.6797 299.115 10.5C299.197 10.3203 299.238 10.1328 299.238 9.9375C299.238 9.74609 299.197 9.55859 299.115 9.375C299.033 9.19141 298.898 9.03906 298.711 8.91797C298.523 8.79297 298.273 8.73047 297.961 8.73047H296.057V7.83984ZM305.982 8.4082V9.28711H302.631V8.4082H305.982ZM302.859 5.66016V12H301.775V5.66016H302.859ZM306.861 5.66016V12H305.771V5.66016H306.861ZM309.498 7.83984H311.402C311.914 7.83984 312.346 7.92969 312.697 8.10938C313.049 8.28516 313.314 8.5293 313.494 8.8418C313.678 9.15039 313.77 9.50195 313.77 9.89648C313.77 10.1895 313.719 10.4648 313.617 10.7227C313.516 10.9766 313.363 11.1992 313.16 11.3906C312.961 11.582 312.713 11.7324 312.416 11.8418C312.123 11.9473 311.785 12 311.402 12H308.707V5.66016H309.791V11.1094H311.402C311.715 11.1094 311.965 11.0527 312.152 10.9395C312.34 10.8262 312.475 10.6797 312.557 10.5C312.639 10.3203 312.68 10.1328 312.68 9.9375C312.68 9.74609 312.639 9.55859 312.557 9.375C312.475 9.19141 312.34 9.03906 312.152 8.91797C311.965 8.79297 311.715 8.73047 311.402 8.73047H309.498V7.83984ZM316.025 5.66016V12H314.941V5.66016H316.025ZM318.656 5.66016L320.045 7.96875L321.451 5.66016H322.723L320.648 8.78906L322.787 12H321.533L320.068 9.62109L318.604 12H317.344L319.477 8.78906L317.408 5.66016H318.656ZM327.996 5.66016H329.08L328.986 8.0332C328.963 8.63477 328.895 9.1543 328.781 9.5918C328.668 10.0293 328.523 10.4023 328.348 10.7109C328.172 11.0156 327.975 11.2715 327.756 11.4785C327.541 11.6855 327.318 11.8594 327.088 12H326.549L326.578 11.1152L326.801 11.1094C326.93 10.957 327.055 10.8008 327.176 10.6406C327.297 10.4766 327.408 10.2832 327.51 10.0605C327.611 9.83398 327.695 9.55859 327.762 9.23438C327.832 8.90625 327.877 8.50586 327.896 8.0332L327.996 5.66016ZM328.266 5.66016H332.08V12H330.996V6.66211H328.266V5.66016ZM326.303 11.1094H332.895V13.8691H331.811V12H327.387V13.8691H326.297L326.303 11.1094ZM337.834 10.916V7.65234C337.834 7.40234 337.783 7.18555 337.682 7.00195C337.584 6.81445 337.436 6.66992 337.236 6.56836C337.037 6.4668 336.791 6.41602 336.498 6.41602C336.225 6.41602 335.984 6.46289 335.777 6.55664C335.574 6.65039 335.414 6.77344 335.297 6.92578C335.184 7.07812 335.127 7.24219 335.127 7.41797H334.043C334.043 7.19141 334.102 6.9668 334.219 6.74414C334.336 6.52148 334.504 6.32031 334.723 6.14062C334.945 5.95703 335.211 5.8125 335.52 5.70703C335.832 5.59766 336.18 5.54297 336.562 5.54297C337.023 5.54297 337.43 5.62109 337.781 5.77734C338.137 5.93359 338.414 6.16992 338.613 6.48633C338.816 6.79883 338.918 7.19141 338.918 7.66406V10.6172C338.918 10.8281 338.936 11.0527 338.971 11.291C339.01 11.5293 339.066 11.7344 339.141 11.9062V12H338.01C337.955 11.875 337.912 11.709 337.881 11.502C337.85 11.291 337.834 11.0957 337.834 10.916ZM338.021 8.15625L338.033 8.91797H336.938C336.629 8.91797 336.354 8.94336 336.111 8.99414C335.869 9.04102 335.666 9.11328 335.502 9.21094C335.338 9.30859 335.213 9.43164 335.127 9.58008C335.041 9.72461 334.998 9.89453 334.998 10.0898C334.998 10.2891 335.043 10.4707 335.133 10.6348C335.223 10.7988 335.357 10.9297 335.537 11.0273C335.721 11.1211 335.945 11.168 336.211 11.168C336.543 11.168 336.836 11.0977 337.09 10.957C337.344 10.8164 337.545 10.6445 337.693 10.4414C337.846 10.2383 337.928 10.041 337.939 9.84961L338.402 10.3711C338.375 10.5352 338.301 10.7168 338.18 10.916C338.059 11.1152 337.896 11.3066 337.693 11.4902C337.494 11.6699 337.256 11.8203 336.979 11.9414C336.705 12.0586 336.396 12.1172 336.053 12.1172C335.623 12.1172 335.246 12.0332 334.922 11.8652C334.602 11.6973 334.352 11.4727 334.172 11.1914C333.996 10.9062 333.908 10.5879 333.908 10.2363C333.908 9.89648 333.975 9.59766 334.107 9.33984C334.24 9.07812 334.432 8.86133 334.682 8.68945C334.932 8.51367 335.232 8.38086 335.584 8.29102C335.936 8.20117 336.328 8.15625 336.762 8.15625H338.021ZM344.924 8.4082V9.28711H341.572V8.4082H344.924ZM341.801 5.66016V12H340.717V5.66016H341.801ZM345.803 5.66016V12H344.713V5.66016H345.803ZM351.85 8.4082V9.28711H348.498V8.4082H351.85ZM348.727 5.66016V12H347.643V5.66016H348.727ZM352.729 5.66016V12H351.639V5.66016H352.729ZM355.365 7.83984H357.27C357.781 7.83984 358.213 7.92969 358.564 8.10938C358.916 8.28516 359.182 8.5293 359.361 8.8418C359.545 9.15039 359.637 9.50195 359.637 9.89648C359.637 10.1895 359.586 10.4648 359.484 10.7227C359.383 10.9766 359.23 11.1992 359.027 11.3906C358.828 11.582 358.58 11.7324 358.283 11.8418C357.99 11.9473 357.652 12 357.27 12H354.574V5.66016H355.658V11.1094H357.27C357.582 11.1094 357.832 11.0527 358.02 10.9395C358.207 10.8262 358.342 10.6797 358.424 10.5C358.506 10.3203 358.547 10.1328 358.547 9.9375C358.547 9.74609 358.506 9.55859 358.424 9.375C358.342 9.19141 358.207 9.03906 358.02 8.91797C357.832 8.79297 357.582 8.73047 357.27 8.73047H355.365V7.83984ZM361.893 5.66016V12H360.809V5.66016H361.893ZM364.523 5.66016L365.912 7.96875L367.318 5.66016H368.59L366.516 8.78906L368.654 12H367.4L365.936 9.62109L364.471 12H363.211L365.344 8.78906L363.275 5.66016H364.523ZM51.8027 23.2109H49.7227L49.7109 22.3438H51.4102C51.7461 22.3438 52.0254 22.3105 52.248 22.2441C52.4746 22.1777 52.6445 22.0781 52.7578 21.9453C52.8711 21.8125 52.9277 21.6484 52.9277 21.4531C52.9277 21.3008 52.8945 21.168 52.8281 21.0547C52.7656 20.9375 52.6699 20.8418 52.541 20.7676C52.4121 20.6895 52.252 20.6328 52.0605 20.5977C51.873 20.5586 51.6523 20.5391 51.3984 20.5391H50.0098V26H48.9258V19.6602H51.3984C51.8008 19.6602 52.1621 19.6953 52.4824 19.7656C52.8066 19.8359 53.082 19.9434 53.3086 20.0879C53.5391 20.2285 53.7148 20.4082 53.8359 20.627C53.957 20.8457 54.0176 21.1035 54.0176 21.4004C54.0176 21.5918 53.9785 21.7734 53.9004 21.9453C53.8223 22.1172 53.707 22.2695 53.5547 22.4023C53.4023 22.5352 53.2148 22.6445 52.9922 22.7305C52.7695 22.8125 52.5137 22.8652 52.2246 22.8887L51.8027 23.2109ZM51.8027 26H49.3301L49.8691 25.1211H51.8027C52.1035 25.1211 52.3535 25.084 52.5527 25.0098C52.752 24.9316 52.9004 24.8223 52.998 24.6816C53.0996 24.5371 53.1504 24.3652 53.1504 24.166C53.1504 23.9668 53.0996 23.7969 52.998 23.6562C52.9004 23.5117 52.752 23.4023 52.5527 23.3281C52.3535 23.25 52.1035 23.2109 51.8027 23.2109H50.1562L50.168 22.3438H52.2246L52.6172 22.6719C52.9648 22.6992 53.2598 22.7852 53.502 22.9297C53.7441 23.0742 53.9277 23.2578 54.0527 23.4805C54.1777 23.6992 54.2402 23.9375 54.2402 24.1953C54.2402 24.4922 54.1836 24.7539 54.0703 24.9805C53.9609 25.207 53.8008 25.3965 53.5898 25.5488C53.3789 25.6973 53.123 25.8105 52.8223 25.8887C52.5215 25.9629 52.1816 26 51.8027 26ZM61.207 25.2266C61.4648 25.2266 61.7031 25.1738 61.9219 25.0684C62.1406 24.9629 62.3203 24.8184 62.4609 24.6348C62.6016 24.4473 62.6816 24.2344 62.7012 23.9961H63.7324C63.7129 24.3711 63.5859 24.7207 63.3516 25.0449C63.1211 25.3652 62.8184 25.625 62.4434 25.8242C62.0684 26.0195 61.6562 26.1172 61.207 26.1172C60.7305 26.1172 60.3145 26.0332 59.959 25.8652C59.6074 25.6973 59.3145 25.4668 59.0801 25.1738C58.8496 24.8809 58.6758 24.5449 58.5586 24.166C58.4453 23.7832 58.3887 23.3789 58.3887 22.9531V22.707C58.3887 22.2812 58.4453 21.8789 58.5586 21.5C58.6758 21.1172 58.8496 20.7793 59.0801 20.4863C59.3145 20.1934 59.6074 19.9629 59.959 19.7949C60.3145 19.627 60.7305 19.543 61.207 19.543C61.7031 19.543 62.1367 19.6445 62.5078 19.8477C62.8789 20.0469 63.1699 20.3203 63.3809 20.668C63.5957 21.0117 63.7129 21.4023 63.7324 21.8398H62.7012C62.6816 21.5781 62.6074 21.3418 62.4785 21.1309C62.3535 20.9199 62.1816 20.752 61.9629 20.627C61.748 20.498 61.4961 20.4336 61.207 20.4336C60.875 20.4336 60.5957 20.5 60.3691 20.6328C60.1465 20.7617 59.9688 20.9375 59.8359 21.1602C59.707 21.3789 59.6133 21.623 59.5547 21.8926C59.5 22.1582 59.4727 22.4297 59.4727 22.707V22.9531C59.4727 23.2305 59.5 23.5039 59.5547 23.7734C59.6094 24.043 59.7012 24.2871 59.8301 24.5059C59.9629 24.7246 60.1406 24.9004 60.3633 25.0332C60.5898 25.1621 60.8711 25.2266 61.207 25.2266ZM64.6641 22.9004V22.7656C64.6641 22.3086 64.7305 21.8848 64.8633 21.4941C64.9961 21.0996 65.1875 20.7578 65.4375 20.4688C65.6875 20.1758 65.9902 19.9492 66.3457 19.7891C66.7012 19.625 67.0996 19.543 67.541 19.543C67.9863 19.543 68.3867 19.625 68.7422 19.7891C69.1016 19.9492 69.4062 20.1758 69.6562 20.4688C69.9102 20.7578 70.1035 21.0996 70.2363 21.4941C70.3691 21.8848 70.4355 22.3086 70.4355 22.7656V22.9004C70.4355 23.3574 70.3691 23.7812 70.2363 24.1719C70.1035 24.5625 69.9102 24.9043 69.6562 25.1973C69.4062 25.4863 69.1035 25.7129 68.748 25.877C68.3965 26.0371 67.998 26.1172 67.5527 26.1172C67.1074 26.1172 66.707 26.0371 66.3516 25.877C65.9961 25.7129 65.6914 25.4863 65.4375 25.1973C65.1875 24.9043 64.9961 24.5625 64.8633 24.1719C64.7305 23.7812 64.6641 23.3574 64.6641 22.9004ZM65.748 22.7656V22.9004C65.748 23.2168 65.7852 23.5156 65.8594 23.7969C65.9336 24.0742 66.0449 24.3203 66.1934 24.5352C66.3457 24.75 66.5352 24.9199 66.7617 25.0449C66.9883 25.166 67.252 25.2266 67.5527 25.2266C67.8496 25.2266 68.1094 25.166 68.332 25.0449C68.5586 24.9199 68.7461 24.75 68.8945 24.5352C69.043 24.3203 69.1543 24.0742 69.2285 23.7969C69.3066 23.5156 69.3457 23.2168 69.3457 22.9004V22.7656C69.3457 22.4531 69.3066 22.1582 69.2285 21.8809C69.1543 21.5996 69.041 21.3516 68.8887 21.1367C68.7402 20.918 68.5527 20.7461 68.3262 20.6211C68.1035 20.4961 67.8418 20.4336 67.541 20.4336C67.2441 20.4336 66.9824 20.4961 66.7559 20.6211C66.5332 20.7461 66.3457 20.918 66.1934 21.1367C66.0449 21.3516 65.9336 21.5996 65.8594 21.8809C65.7852 22.1582 65.748 22.4531 65.748 22.7656ZM71.5078 22.9004V22.7656C71.5078 22.3086 71.5742 21.8848 71.707 21.4941C71.8398 21.0996 72.0312 20.7578 72.2812 20.4688C72.5312 20.1758 72.834 19.9492 73.1895 19.7891C73.5449 19.625 73.9434 19.543 74.3848 19.543C74.8301 19.543 75.2305 19.625 75.5859 19.7891C75.9453 19.9492 76.25 20.1758 76.5 20.4688C76.7539 20.7578 76.9473 21.0996 77.0801 21.4941C77.2129 21.8848 77.2793 22.3086 77.2793 22.7656V22.9004C77.2793 23.3574 77.2129 23.7812 77.0801 24.1719C76.9473 24.5625 76.7539 24.9043 76.5 25.1973C76.25 25.4863 75.9473 25.7129 75.5918 25.877C75.2402 26.0371 74.8418 26.1172 74.3965 26.1172C73.9512 26.1172 73.5508 26.0371 73.1953 25.877C72.8398 25.7129 72.5352 25.4863 72.2812 25.1973C72.0312 24.9043 71.8398 24.5625 71.707 24.1719C71.5742 23.7812 71.5078 23.3574 71.5078 22.9004ZM72.5918 22.7656V22.9004C72.5918 23.2168 72.6289 23.5156 72.7031 23.7969C72.7773 24.0742 72.8887 24.3203 73.0371 24.5352C73.1895 24.75 73.3789 24.9199 73.6055 25.0449C73.832 25.166 74.0957 25.2266 74.3965 25.2266C74.6934 25.2266 74.9531 25.166 75.1758 25.0449C75.4023 24.9199 75.5898 24.75 75.7383 24.5352C75.8867 24.3203 75.998 24.0742 76.0723 23.7969C76.1504 23.5156 76.1895 23.2168 76.1895 22.9004V22.7656C76.1895 22.4531 76.1504 22.1582 76.0723 21.8809C75.998 21.5996 75.8848 21.3516 75.7324 21.1367C75.584 20.918 75.3965 20.7461 75.1699 20.6211C74.9473 20.4961 74.6855 20.4336 74.3848 20.4336C74.0879 20.4336 73.8262 20.4961 73.5996 20.6211C73.377 20.7461 73.1895 20.918 73.0371 21.1367C72.8887 21.3516 72.7773 21.5996 72.7031 21.8809C72.6289 22.1582 72.5918 22.4531 72.5918 22.7656ZM81.0938 19.6602V26H80.0039V19.6602H81.0938ZM83.2207 19.6602V20.5391H77.918V19.6602H83.2207ZM87.2637 23.2109H85.1836L85.1719 22.3438H86.8711C87.207 22.3438 87.4863 22.3105 87.709 22.2441C87.9355 22.1777 88.1055 22.0781 88.2188 21.9453C88.332 21.8125 88.3887 21.6484 88.3887 21.4531C88.3887 21.3008 88.3555 21.168 88.2891 21.0547C88.2266 20.9375 88.1309 20.8418 88.002 20.7676C87.873 20.6895 87.7129 20.6328 87.5215 20.5977C87.334 20.5586 87.1133 20.5391 86.8594 20.5391H85.4707V26H84.3867V19.6602H86.8594C87.2617 19.6602 87.623 19.6953 87.9434 19.7656C88.2676 19.8359 88.543 19.9434 88.7695 20.0879C89 20.2285 89.1758 20.4082 89.2969 20.627C89.418 20.8457 89.4785 21.1035 89.4785 21.4004C89.4785 21.5918 89.4395 21.7734 89.3613 21.9453C89.2832 22.1172 89.168 22.2695 89.0156 22.4023C88.8633 22.5352 88.6758 22.6445 88.4531 22.7305C88.2305 22.8125 87.9746 22.8652 87.6855 22.8887L87.2637 23.2109ZM87.2637 26H84.791L85.3301 25.1211H87.2637C87.5645 25.1211 87.8145 25.084 88.0137 25.0098C88.2129 24.9316 88.3613 24.8223 88.459 24.6816C88.5605 24.5371 88.6113 24.3652 88.6113 24.166C88.6113 23.9668 88.5605 23.7969 88.459 23.6562C88.3613 23.5117 88.2129 23.4023 88.0137 23.3281C87.8145 23.25 87.5645 23.2109 87.2637 23.2109H85.6172L85.6289 22.3438H87.6855L88.0781 22.6719C88.4258 22.6992 88.7207 22.7852 88.9629 22.9297C89.2051 23.0742 89.3887 23.2578 89.5137 23.4805C89.6387 23.6992 89.7012 23.9375 89.7012 24.1953C89.7012 24.4922 89.6445 24.7539 89.5312 24.9805C89.4219 25.207 89.2617 25.3965 89.0508 25.5488C88.8398 25.6973 88.584 25.8105 88.2832 25.8887C87.9824 25.9629 87.6426 26 87.2637 26ZM93.7852 26.1172C93.3438 26.1172 92.9434 26.043 92.584 25.8945C92.2285 25.7422 91.9219 25.5293 91.6641 25.2559C91.4102 24.9824 91.2148 24.6582 91.0781 24.2832C90.9414 23.9082 90.873 23.498 90.873 23.0527V22.8066C90.873 22.291 90.9492 21.832 91.1016 21.4297C91.2539 21.0234 91.4609 20.6797 91.7227 20.3984C91.9844 20.1172 92.2812 19.9043 92.6133 19.7598C92.9453 19.6152 93.2891 19.543 93.6445 19.543C94.0977 19.543 94.4883 19.6211 94.8164 19.7773C95.1484 19.9336 95.4199 20.1523 95.6309 20.4336C95.8418 20.7109 95.998 21.0391 96.0996 21.418C96.2012 21.793 96.252 22.2031 96.252 22.6484V23.1348H91.5176V22.25H95.168V22.168C95.1523 21.8867 95.0938 21.6133 94.9922 21.3477C94.8945 21.082 94.7383 20.8633 94.5234 20.6914C94.3086 20.5195 94.0156 20.4336 93.6445 20.4336C93.3984 20.4336 93.1719 20.4863 92.9648 20.5918C92.7578 20.6934 92.5801 20.8457 92.4316 21.0488C92.2832 21.252 92.168 21.5 92.0859 21.793C92.0039 22.0859 91.9629 22.4238 91.9629 22.8066V23.0527C91.9629 23.3535 92.0039 23.6367 92.0859 23.9023C92.1719 24.1641 92.2949 24.3945 92.4551 24.5938C92.6191 24.793 92.8164 24.9492 93.0469 25.0625C93.2812 25.1758 93.5469 25.2324 93.8438 25.2324C94.2266 25.2324 94.5508 25.1543 94.8164 24.998C95.082 24.8418 95.3145 24.6328 95.5137 24.3711L96.1699 24.8926C96.0332 25.0996 95.8594 25.2969 95.6484 25.4844C95.4375 25.6719 95.1777 25.8242 94.8691 25.9414C94.5645 26.0586 94.2031 26.1172 93.7852 26.1172ZM100.031 19.6602V26H98.9414V19.6602H100.031ZM102.158 19.6602V20.5391H96.8555V19.6602H102.158ZM105.293 25.2266C105.551 25.2266 105.789 25.1738 106.008 25.0684C106.227 24.9629 106.406 24.8184 106.547 24.6348C106.688 24.4473 106.768 24.2344 106.787 23.9961H107.818C107.799 24.3711 107.672 24.7207 107.438 25.0449C107.207 25.3652 106.904 25.625 106.529 25.8242C106.154 26.0195 105.742 26.1172 105.293 26.1172C104.816 26.1172 104.4 26.0332 104.045 25.8652C103.693 25.6973 103.4 25.4668 103.166 25.1738C102.936 24.8809 102.762 24.5449 102.645 24.166C102.531 23.7832 102.475 23.3789 102.475 22.9531V22.707C102.475 22.2812 102.531 21.8789 102.645 21.5C102.762 21.1172 102.936 20.7793 103.166 20.4863C103.4 20.1934 103.693 19.9629 104.045 19.7949C104.4 19.627 104.816 19.543 105.293 19.543C105.789 19.543 106.223 19.6445 106.594 19.8477C106.965 20.0469 107.256 20.3203 107.467 20.668C107.682 21.0117 107.799 21.4023 107.818 21.8398H106.787C106.768 21.5781 106.693 21.3418 106.564 21.1309C106.439 20.9199 106.268 20.752 106.049 20.627C105.834 20.498 105.582 20.4336 105.293 20.4336C104.961 20.4336 104.682 20.5 104.455 20.6328C104.232 20.7617 104.055 20.9375 103.922 21.1602C103.793 21.3789 103.699 21.623 103.641 21.8926C103.586 22.1582 103.559 22.4297 103.559 22.707V22.9531C103.559 23.2305 103.586 23.5039 103.641 23.7734C103.695 24.043 103.787 24.2871 103.916 24.5059C104.049 24.7246 104.227 24.9004 104.449 25.0332C104.676 25.1621 104.957 25.2266 105.293 25.2266ZM111.621 19.6602V26H110.531V19.6602H111.621ZM113.748 19.6602V20.5391H108.445V19.6602H113.748ZM117.791 23.2109H115.711L115.699 22.3438H117.398C117.734 22.3438 118.014 22.3105 118.236 22.2441C118.463 22.1777 118.633 22.0781 118.746 21.9453C118.859 21.8125 118.916 21.6484 118.916 21.4531C118.916 21.3008 118.883 21.168 118.816 21.0547C118.754 20.9375 118.658 20.8418 118.529 20.7676C118.4 20.6895 118.24 20.6328 118.049 20.5977C117.861 20.5586 117.641 20.5391 117.387 20.5391H115.998V26H114.914V19.6602H117.387C117.789 19.6602 118.15 19.6953 118.471 19.7656C118.795 19.8359 119.07 19.9434 119.297 20.0879C119.527 20.2285 119.703 20.4082 119.824 20.627C119.945 20.8457 120.006 21.1035 120.006 21.4004C120.006 21.5918 119.967 21.7734 119.889 21.9453C119.811 22.1172 119.695 22.2695 119.543 22.4023C119.391 22.5352 119.203 22.6445 118.98 22.7305C118.758 22.8125 118.502 22.8652 118.213 22.8887L117.791 23.2109ZM117.791 26H115.318L115.857 25.1211H117.791C118.092 25.1211 118.342 25.084 118.541 25.0098C118.74 24.9316 118.889 24.8223 118.986 24.6816C119.088 24.5371 119.139 24.3652 119.139 24.166C119.139 23.9668 119.088 23.7969 118.986 23.6562C118.889 23.5117 118.74 23.4023 118.541 23.3281C118.342 23.25 118.092 23.2109 117.791 23.2109H116.145L116.156 22.3438H118.213L118.605 22.6719C118.953 22.6992 119.248 22.7852 119.49 22.9297C119.732 23.0742 119.916 23.2578 120.041 23.4805C120.166 23.6992 120.229 23.9375 120.229 24.1953C120.229 24.4922 120.172 24.7539 120.059 24.9805C119.949 25.207 119.789 25.3965 119.578 25.5488C119.367 25.6973 119.111 25.8105 118.811 25.8887C118.51 25.9629 118.17 26 117.791 26ZM122.854 24.2832L125.777 19.6602H126.867V26H125.777V21.377L122.854 26H121.775V19.6602H122.854V24.2832ZM129.779 24.2832L132.703 19.6602H133.793V26H132.703V21.377L129.779 26H128.701V19.6602H129.779V24.2832ZM141.047 25.2266C141.305 25.2266 141.543 25.1738 141.762 25.0684C141.98 24.9629 142.16 24.8184 142.301 24.6348C142.441 24.4473 142.521 24.2344 142.541 23.9961H143.572C143.553 24.3711 143.426 24.7207 143.191 25.0449C142.961 25.3652 142.658 25.625 142.283 25.8242C141.908 26.0195 141.496 26.1172 141.047 26.1172C140.57 26.1172 140.154 26.0332 139.799 25.8652C139.447 25.6973 139.154 25.4668 138.92 25.1738C138.689 24.8809 138.516 24.5449 138.398 24.166C138.285 23.7832 138.229 23.3789 138.229 22.9531V22.707C138.229 22.2812 138.285 21.8789 138.398 21.5C138.516 21.1172 138.689 20.7793 138.92 20.4863C139.154 20.1934 139.447 19.9629 139.799 19.7949C140.154 19.627 140.57 19.543 141.047 19.543C141.543 19.543 141.977 19.6445 142.348 19.8477C142.719 20.0469 143.01 20.3203 143.221 20.668C143.436 21.0117 143.553 21.4023 143.572 21.8398H142.541C142.521 21.5781 142.447 21.3418 142.318 21.1309C142.193 20.9199 142.021 20.752 141.803 20.627C141.588 20.498 141.336 20.4336 141.047 20.4336C140.715 20.4336 140.436 20.5 140.209 20.6328C139.986 20.7617 139.809 20.9375 139.676 21.1602C139.547 21.3789 139.453 21.623 139.395 21.8926C139.34 22.1582 139.312 22.4297 139.312 22.707V22.9531C139.312 23.2305 139.34 23.5039 139.395 23.7734C139.449 24.043 139.541 24.2871 139.67 24.5059C139.803 24.7246 139.98 24.9004 140.203 25.0332C140.43 25.1621 140.711 25.2266 141.047 25.2266ZM149.549 25.3438L151.312 19.6602H152.473L149.93 26.9785C149.871 27.1348 149.793 27.3027 149.695 27.4824C149.602 27.666 149.48 27.8398 149.332 28.0039C149.184 28.168 149.004 28.3008 148.793 28.4023C148.586 28.5078 148.338 28.5605 148.049 28.5605C147.963 28.5605 147.854 28.5488 147.721 28.5254C147.588 28.502 147.494 28.4824 147.439 28.4668L147.434 27.5879C147.465 27.5918 147.514 27.5957 147.58 27.5996C147.65 27.6074 147.699 27.6113 147.727 27.6113C147.973 27.6113 148.182 27.5781 148.354 27.5117C148.525 27.4492 148.67 27.3418 148.787 27.1895C148.908 27.041 149.012 26.8359 149.098 26.5742L149.549 25.3438ZM148.254 19.6602L149.9 24.582L150.182 25.7246L149.402 26.123L147.07 19.6602H148.254ZM154.629 19.6602V26H153.545V19.6602H154.629ZM158.789 19.6602L155.783 23.293H154.266L154.102 22.3438H155.344L157.471 19.6602H158.789ZM157.623 26L155.291 23.1289L155.988 22.3438L159 26H157.623ZM163.682 24.916V21.6523C163.682 21.4023 163.631 21.1855 163.529 21.002C163.432 20.8145 163.283 20.6699 163.084 20.5684C162.885 20.4668 162.639 20.416 162.346 20.416C162.072 20.416 161.832 20.4629 161.625 20.5566C161.422 20.6504 161.262 20.7734 161.145 20.9258C161.031 21.0781 160.975 21.2422 160.975 21.418H159.891C159.891 21.1914 159.949 20.9668 160.066 20.7441C160.184 20.5215 160.352 20.3203 160.57 20.1406C160.793 19.957 161.059 19.8125 161.367 19.707C161.68 19.5977 162.027 19.543 162.41 19.543C162.871 19.543 163.277 19.6211 163.629 19.7773C163.984 19.9336 164.262 20.1699 164.461 20.4863C164.664 20.7988 164.766 21.1914 164.766 21.6641V24.6172C164.766 24.8281 164.783 25.0527 164.818 25.291C164.857 25.5293 164.914 25.7344 164.988 25.9062V26H163.857C163.803 25.875 163.76 25.709 163.729 25.502C163.697 25.291 163.682 25.0957 163.682 24.916ZM163.869 22.1562L163.881 22.918H162.785C162.477 22.918 162.201 22.9434 161.959 22.9941C161.717 23.041 161.514 23.1133 161.35 23.2109C161.186 23.3086 161.061 23.4316 160.975 23.5801C160.889 23.7246 160.846 23.8945 160.846 24.0898C160.846 24.2891 160.891 24.4707 160.98 24.6348C161.07 24.7988 161.205 24.9297 161.385 25.0273C161.568 25.1211 161.793 25.168 162.059 25.168C162.391 25.168 162.684 25.0977 162.938 24.957C163.191 24.8164 163.393 24.6445 163.541 24.4414C163.693 24.2383 163.775 24.041 163.787 23.8496L164.25 24.3711C164.223 24.5352 164.148 24.7168 164.027 24.916C163.906 25.1152 163.744 25.3066 163.541 25.4902C163.342 25.6699 163.104 25.8203 162.826 25.9414C162.553 26.0586 162.244 26.1172 161.9 26.1172C161.471 26.1172 161.094 26.0332 160.77 25.8652C160.449 25.6973 160.199 25.4727 160.02 25.1914C159.844 24.9062 159.756 24.5879 159.756 24.2363C159.756 23.8965 159.822 23.5977 159.955 23.3398C160.088 23.0781 160.279 22.8613 160.529 22.6895C160.779 22.5137 161.08 22.3809 161.432 22.291C161.783 22.2012 162.176 22.1562 162.609 22.1562H163.869ZM168.838 22.9707H167.672V22.3027H168.75C169.051 22.3027 169.289 22.2656 169.465 22.1914C169.641 22.1133 169.766 22.0059 169.84 21.8691C169.914 21.7324 169.951 21.5723 169.951 21.3887C169.951 21.2246 169.908 21.0703 169.822 20.9258C169.74 20.7773 169.607 20.6582 169.424 20.5684C169.24 20.4746 168.994 20.4277 168.686 20.4277C168.436 20.4277 168.209 20.4727 168.006 20.5625C167.803 20.6484 167.641 20.7676 167.52 20.9199C167.402 21.0684 167.344 21.2363 167.344 21.4238H166.26C166.26 21.0371 166.369 20.7051 166.588 20.4277C166.811 20.1465 167.105 19.9297 167.473 19.7773C167.844 19.625 168.248 19.5488 168.686 19.5488C169.053 19.5488 169.381 19.5898 169.67 19.6719C169.963 19.75 170.211 19.8672 170.414 20.0234C170.617 20.1758 170.771 20.3672 170.877 20.5977C170.986 20.8242 171.041 21.0879 171.041 21.3887C171.041 21.6035 170.99 21.8066 170.889 21.998C170.787 22.1895 170.641 22.3594 170.449 22.5078C170.258 22.6523 170.025 22.7656 169.752 22.8477C169.482 22.9297 169.178 22.9707 168.838 22.9707ZM167.672 22.5605H168.838C169.217 22.5605 169.551 22.5977 169.84 22.6719C170.129 22.7422 170.371 22.8477 170.566 22.9883C170.762 23.1289 170.908 23.3027 171.006 23.5098C171.107 23.7129 171.158 23.9473 171.158 24.2129C171.158 24.5098 171.098 24.7773 170.977 25.0156C170.859 25.25 170.691 25.4492 170.473 25.6133C170.254 25.7773 169.992 25.9023 169.688 25.9883C169.387 26.0742 169.053 26.1172 168.686 26.1172C168.275 26.1172 167.877 26.0469 167.49 25.9062C167.104 25.7656 166.785 25.5488 166.535 25.2559C166.285 24.959 166.16 24.582 166.16 24.125H167.244C167.244 24.3164 167.305 24.498 167.426 24.6699C167.547 24.8418 167.715 24.9805 167.93 25.0859C168.148 25.1914 168.4 25.2441 168.686 25.2441C168.99 25.2441 169.244 25.1973 169.447 25.1035C169.65 25.0098 169.803 24.8848 169.904 24.7285C170.01 24.5723 170.062 24.4023 170.062 24.2188C170.062 23.9805 170.016 23.7891 169.922 23.6445C169.828 23.5 169.684 23.3945 169.488 23.3281C169.297 23.2578 169.051 23.2227 168.75 23.2227H167.672V22.5605ZM176.303 24.916V21.6523C176.303 21.4023 176.252 21.1855 176.15 21.002C176.053 20.8145 175.904 20.6699 175.705 20.5684C175.506 20.4668 175.26 20.416 174.967 20.416C174.693 20.416 174.453 20.4629 174.246 20.5566C174.043 20.6504 173.883 20.7734 173.766 20.9258C173.652 21.0781 173.596 21.2422 173.596 21.418H172.512C172.512 21.1914 172.57 20.9668 172.688 20.7441C172.805 20.5215 172.973 20.3203 173.191 20.1406C173.414 19.957 173.68 19.8125 173.988 19.707C174.301 19.5977 174.648 19.543 175.031 19.543C175.492 19.543 175.898 19.6211 176.25 19.7773C176.605 19.9336 176.883 20.1699 177.082 20.4863C177.285 20.7988 177.387 21.1914 177.387 21.6641V24.6172C177.387 24.8281 177.404 25.0527 177.439 25.291C177.479 25.5293 177.535 25.7344 177.609 25.9062V26H176.479C176.424 25.875 176.381 25.709 176.35 25.502C176.318 25.291 176.303 25.0957 176.303 24.916ZM176.49 22.1562L176.502 22.918H175.406C175.098 22.918 174.822 22.9434 174.58 22.9941C174.338 23.041 174.135 23.1133 173.971 23.2109C173.807 23.3086 173.682 23.4316 173.596 23.5801C173.51 23.7246 173.467 23.8945 173.467 24.0898C173.467 24.2891 173.512 24.4707 173.602 24.6348C173.691 24.7988 173.826 24.9297 174.006 25.0273C174.189 25.1211 174.414 25.168 174.68 25.168C175.012 25.168 175.305 25.0977 175.559 24.957C175.812 24.8164 176.014 24.6445 176.162 24.4414C176.314 24.2383 176.396 24.041 176.408 23.8496L176.871 24.3711C176.844 24.5352 176.77 24.7168 176.648 24.916C176.527 25.1152 176.365 25.3066 176.162 25.4902C175.963 25.6699 175.725 25.8203 175.447 25.9414C175.174 26.0586 174.865 26.1172 174.521 26.1172C174.092 26.1172 173.715 26.0332 173.391 25.8652C173.07 25.6973 172.82 25.4727 172.641 25.1914C172.465 24.9062 172.377 24.5879 172.377 24.2363C172.377 23.8965 172.443 23.5977 172.576 23.3398C172.709 23.0781 172.9 22.8613 173.15 22.6895C173.4 22.5137 173.701 22.3809 174.053 22.291C174.404 22.2012 174.797 22.1562 175.23 22.1562H176.49ZM183.393 22.4082V23.2871H180.041V22.4082H183.393ZM180.27 19.6602V26H179.186V19.6602H180.27ZM184.271 19.6602V26H183.182V19.6602H184.271ZM190.318 22.4082V23.2871H186.967V22.4082H190.318ZM187.195 19.6602V26H186.111V19.6602H187.195ZM191.197 19.6602V26H190.107V19.6602H191.197ZM193.834 21.8398H195.738C196.25 21.8398 196.682 21.9297 197.033 22.1094C197.385 22.2852 197.65 22.5293 197.83 22.8418C198.014 23.1504 198.105 23.502 198.105 23.8965C198.105 24.1895 198.055 24.4648 197.953 24.7227C197.852 24.9766 197.699 25.1992 197.496 25.3906C197.297 25.582 197.049 25.7324 196.752 25.8418C196.459 25.9473 196.121 26 195.738 26H193.043V19.6602H194.127V25.1094H195.738C196.051 25.1094 196.301 25.0527 196.488 24.9395C196.676 24.8262 196.811 24.6797 196.893 24.5C196.975 24.3203 197.016 24.1328 197.016 23.9375C197.016 23.7461 196.975 23.5586 196.893 23.375C196.811 23.1914 196.676 23.0391 196.488 22.918C196.301 22.793 196.051 22.7305 195.738 22.7305H193.834V21.8398ZM200.361 19.6602V26H199.277V19.6602H200.361ZM205.904 24.5586L208.061 19.6602H209.104L206.279 26H205.529L202.717 19.6602H203.76L205.904 24.5586ZM203.443 19.6602V26H202.359V19.6602H203.443ZM208.33 26V19.6602H209.42V26H208.33ZM212.338 24.2832L215.262 19.6602H216.352V26H215.262V21.377L212.338 26H211.26V19.6602H212.338V24.2832Z" fill="#1B274A" fill-opacity="0.64"/>
<path d="M223.436 22.9707H222.27V22.3027H223.348C223.648 22.3027 223.887 22.2656 224.062 22.1914C224.238 22.1133 224.363 22.0059 224.438 21.8691C224.512 21.7324 224.549 21.5723 224.549 21.3887C224.549 21.2246 224.506 21.0703 224.42 20.9258C224.338 20.7773 224.205 20.6582 224.021 20.5684C223.838 20.4746 223.592 20.4277 223.283 20.4277C223.033 20.4277 222.807 20.4727 222.604 20.5625C222.4 20.6484 222.238 20.7676 222.117 20.9199C222 21.0684 221.941 21.2363 221.941 21.4238H220.857C220.857 21.0371 220.967 20.7051 221.186 20.4277C221.408 20.1465 221.703 19.9297 222.07 19.7773C222.441 19.625 222.846 19.5488 223.283 19.5488C223.65 19.5488 223.979 19.5898 224.268 19.6719C224.561 19.75 224.809 19.8672 225.012 20.0234C225.215 20.1758 225.369 20.3672 225.475 20.5977C225.584 20.8242 225.639 21.0879 225.639 21.3887C225.639 21.6035 225.588 21.8066 225.486 21.998C225.385 22.1895 225.238 22.3594 225.047 22.5078C224.855 22.6523 224.623 22.7656 224.35 22.8477C224.08 22.9297 223.775 22.9707 223.436 22.9707ZM222.27 22.5605H223.436C223.814 22.5605 224.148 22.5977 224.438 22.6719C224.727 22.7422 224.969 22.8477 225.164 22.9883C225.359 23.1289 225.506 23.3027 225.604 23.5098C225.705 23.7129 225.756 23.9473 225.756 24.2129C225.756 24.5098 225.695 24.7773 225.574 25.0156C225.457 25.25 225.289 25.4492 225.07 25.6133C224.852 25.7773 224.59 25.9023 224.285 25.9883C223.984 26.0742 223.65 26.1172 223.283 26.1172C222.873 26.1172 222.475 26.0469 222.088 25.9062C221.701 25.7656 221.383 25.5488 221.133 25.2559C220.883 24.959 220.758 24.582 220.758 24.125H221.842C221.842 24.3164 221.902 24.498 222.023 24.6699C222.145 24.8418 222.312 24.9805 222.527 25.0859C222.746 25.1914 222.998 25.2441 223.283 25.2441C223.588 25.2441 223.842 25.1973 224.045 25.1035C224.248 25.0098 224.4 24.8848 224.502 24.7285C224.607 24.5723 224.66 24.4023 224.66 24.2188C224.66 23.9805 224.613 23.7891 224.52 23.6445C224.426 23.5 224.281 23.3945 224.086 23.3281C223.895 23.2578 223.648 23.2227 223.348 23.2227H222.27V22.5605ZM228.305 19.6602H229.389L229.295 22.0332C229.271 22.6348 229.203 23.1543 229.09 23.5918C228.977 24.0293 228.832 24.4023 228.656 24.7109C228.48 25.0156 228.283 25.2715 228.064 25.4785C227.85 25.6855 227.627 25.8594 227.396 26H226.857L226.887 25.1152L227.109 25.1094C227.238 24.957 227.363 24.8008 227.484 24.6406C227.605 24.4766 227.717 24.2832 227.818 24.0605C227.92 23.834 228.004 23.5586 228.07 23.2344C228.141 22.9062 228.186 22.5059 228.205 22.0332L228.305 19.6602ZM228.574 19.6602H232.389V26H231.305V20.6621H228.574V19.6602ZM226.611 25.1094H233.203V27.8691H232.119V26H227.695V27.8691H226.605L226.611 25.1094ZM237.035 26.1172C236.594 26.1172 236.193 26.043 235.834 25.8945C235.479 25.7422 235.172 25.5293 234.914 25.2559C234.66 24.9824 234.465 24.6582 234.328 24.2832C234.191 23.9082 234.123 23.498 234.123 23.0527V22.8066C234.123 22.291 234.199 21.832 234.352 21.4297C234.504 21.0234 234.711 20.6797 234.973 20.3984C235.234 20.1172 235.531 19.9043 235.863 19.7598C236.195 19.6152 236.539 19.543 236.895 19.543C237.348 19.543 237.738 19.6211 238.066 19.7773C238.398 19.9336 238.67 20.1523 238.881 20.4336C239.092 20.7109 239.248 21.0391 239.35 21.418C239.451 21.793 239.502 22.2031 239.502 22.6484V23.1348H234.768V22.25H238.418V22.168C238.402 21.8867 238.344 21.6133 238.242 21.3477C238.145 21.082 237.988 20.8633 237.773 20.6914C237.559 20.5195 237.266 20.4336 236.895 20.4336C236.648 20.4336 236.422 20.4863 236.215 20.5918C236.008 20.6934 235.83 20.8457 235.682 21.0488C235.533 21.252 235.418 21.5 235.336 21.793C235.254 22.0859 235.213 22.4238 235.213 22.8066V23.0527C235.213 23.3535 235.254 23.6367 235.336 23.9023C235.422 24.1641 235.545 24.3945 235.705 24.5938C235.869 24.793 236.066 24.9492 236.297 25.0625C236.531 25.1758 236.797 25.2324 237.094 25.2324C237.477 25.2324 237.801 25.1543 238.066 24.998C238.332 24.8418 238.564 24.6328 238.764 24.3711L239.42 24.8926C239.283 25.0996 239.109 25.2969 238.898 25.4844C238.688 25.6719 238.428 25.8242 238.119 25.9414C237.814 26.0586 237.453 26.1172 237.035 26.1172ZM243.305 25.2266C243.562 25.2266 243.801 25.1738 244.02 25.0684C244.238 24.9629 244.418 24.8184 244.559 24.6348C244.699 24.4473 244.779 24.2344 244.799 23.9961H245.83C245.811 24.3711 245.684 24.7207 245.449 25.0449C245.219 25.3652 244.916 25.625 244.541 25.8242C244.166 26.0195 243.754 26.1172 243.305 26.1172C242.828 26.1172 242.412 26.0332 242.057 25.8652C241.705 25.6973 241.412 25.4668 241.178 25.1738C240.947 24.8809 240.773 24.5449 240.656 24.166C240.543 23.7832 240.486 23.3789 240.486 22.9531V22.707C240.486 22.2812 240.543 21.8789 240.656 21.5C240.773 21.1172 240.947 20.7793 241.178 20.4863C241.412 20.1934 241.705 19.9629 242.057 19.7949C242.412 19.627 242.828 19.543 243.305 19.543C243.801 19.543 244.234 19.6445 244.605 19.8477C244.977 20.0469 245.268 20.3203 245.479 20.668C245.693 21.0117 245.811 21.4023 245.83 21.8398H244.799C244.779 21.5781 244.705 21.3418 244.576 21.1309C244.451 20.9199 244.279 20.752 244.061 20.627C243.846 20.498 243.594 20.4336 243.305 20.4336C242.973 20.4336 242.693 20.5 242.467 20.6328C242.244 20.7617 242.066 20.9375 241.934 21.1602C241.805 21.3789 241.711 21.623 241.652 21.8926C241.598 22.1582 241.57 22.4297 241.57 22.707V22.9531C241.57 23.2305 241.598 23.5039 241.652 23.7734C241.707 24.043 241.799 24.2871 241.928 24.5059C242.061 24.7246 242.238 24.9004 242.461 25.0332C242.688 25.1621 242.969 25.2266 243.305 25.2266ZM247.939 21.8398H249.844C250.355 21.8398 250.787 21.9297 251.139 22.1094C251.49 22.2852 251.756 22.5293 251.936 22.8418C252.119 23.1504 252.211 23.502 252.211 23.8965C252.211 24.1895 252.16 24.4648 252.059 24.7227C251.957 24.9766 251.805 25.1992 251.602 25.3906C251.402 25.582 251.154 25.7324 250.857 25.8418C250.564 25.9473 250.227 26 249.844 26H247.148V19.6602H248.232V25.1094H249.844C250.156 25.1094 250.406 25.0527 250.594 24.9395C250.781 24.8262 250.916 24.6797 250.998 24.5C251.08 24.3203 251.121 24.1328 251.121 23.9375C251.121 23.7461 251.08 23.5586 250.998 23.375C250.916 23.1914 250.781 23.0391 250.594 22.918C250.406 22.793 250.156 22.7305 249.844 22.7305H247.939V21.8398ZM260.766 19.6602V20.5566H257.561V19.6602H260.766ZM257.719 19.6602V26H256.635V19.6602H257.719ZM261.727 19.6602V26H260.637V19.6602H261.727ZM264.551 20.8789V28.4375H263.461V19.6602H264.457L264.551 20.8789ZM268.822 22.7773V22.9004C268.822 23.3613 268.768 23.7891 268.658 24.1836C268.549 24.5742 268.389 24.9141 268.178 25.2031C267.971 25.4922 267.715 25.7168 267.41 25.877C267.105 26.0371 266.756 26.1172 266.361 26.1172C265.959 26.1172 265.604 26.0508 265.295 25.918C264.986 25.7852 264.725 25.5918 264.51 25.3379C264.295 25.084 264.123 24.7793 263.994 24.4238C263.869 24.0684 263.783 23.668 263.736 23.2227V22.5664C263.783 22.0977 263.871 21.6777 264 21.3066C264.129 20.9355 264.299 20.6191 264.51 20.3574C264.725 20.0918 264.984 19.8906 265.289 19.7539C265.594 19.6133 265.945 19.543 266.344 19.543C266.742 19.543 267.096 19.6211 267.404 19.7773C267.713 19.9297 267.973 20.1484 268.184 20.4336C268.395 20.7188 268.553 21.0605 268.658 21.459C268.768 21.8535 268.822 22.293 268.822 22.7773ZM267.732 22.9004V22.7773C267.732 22.4609 267.699 22.1641 267.633 21.8867C267.566 21.6055 267.463 21.3594 267.322 21.1484C267.186 20.9336 267.01 20.7656 266.795 20.6445C266.58 20.5195 266.324 20.457 266.027 20.457C265.754 20.457 265.516 20.5039 265.312 20.5977C265.113 20.6914 264.943 20.8184 264.803 20.9785C264.662 21.1348 264.547 21.3145 264.457 21.5176C264.371 21.7168 264.307 21.9238 264.264 22.1387V23.6562C264.342 23.9297 264.451 24.1875 264.592 24.4297C264.732 24.668 264.92 24.8613 265.154 25.0098C265.389 25.1543 265.684 25.2266 266.039 25.2266C266.332 25.2266 266.584 25.166 266.795 25.0449C267.01 24.9199 267.186 24.75 267.322 24.5352C267.463 24.3203 267.566 24.0742 267.633 23.7969C267.699 23.5156 267.732 23.2168 267.732 22.9004ZM273.943 24.916V21.6523C273.943 21.4023 273.893 21.1855 273.791 21.002C273.693 20.8145 273.545 20.6699 273.346 20.5684C273.146 20.4668 272.9 20.416 272.607 20.416C272.334 20.416 272.094 20.4629 271.887 20.5566C271.684 20.6504 271.523 20.7734 271.406 20.9258C271.293 21.0781 271.236 21.2422 271.236 21.418H270.152C270.152 21.1914 270.211 20.9668 270.328 20.7441C270.445 20.5215 270.613 20.3203 270.832 20.1406C271.055 19.957 271.32 19.8125 271.629 19.707C271.941 19.5977 272.289 19.543 272.672 19.543C273.133 19.543 273.539 19.6211 273.891 19.7773C274.246 19.9336 274.523 20.1699 274.723 20.4863C274.926 20.7988 275.027 21.1914 275.027 21.6641V24.6172C275.027 24.8281 275.045 25.0527 275.08 25.291C275.119 25.5293 275.176 25.7344 275.25 25.9062V26H274.119C274.064 25.875 274.021 25.709 273.99 25.502C273.959 25.291 273.943 25.0957 273.943 24.916ZM274.131 22.1562L274.143 22.918H273.047C272.738 22.918 272.463 22.9434 272.221 22.9941C271.979 23.041 271.775 23.1133 271.611 23.2109C271.447 23.3086 271.322 23.4316 271.236 23.5801C271.15 23.7246 271.107 23.8945 271.107 24.0898C271.107 24.2891 271.152 24.4707 271.242 24.6348C271.332 24.7988 271.467 24.9297 271.646 25.0273C271.83 25.1211 272.055 25.168 272.32 25.168C272.652 25.168 272.945 25.0977 273.199 24.957C273.453 24.8164 273.654 24.6445 273.803 24.4414C273.955 24.2383 274.037 24.041 274.049 23.8496L274.512 24.3711C274.484 24.5352 274.41 24.7168 274.289 24.916C274.168 25.1152 274.006 25.3066 273.803 25.4902C273.604 25.6699 273.365 25.8203 273.088 25.9414C272.814 26.0586 272.506 26.1172 272.162 26.1172C271.732 26.1172 271.355 26.0332 271.031 25.8652C270.711 25.6973 270.461 25.4727 270.281 25.1914C270.105 24.9062 270.018 24.5879 270.018 24.2363C270.018 23.8965 270.084 23.5977 270.217 23.3398C270.35 23.0781 270.541 22.8613 270.791 22.6895C271.041 22.5137 271.342 22.3809 271.693 22.291C272.045 22.2012 272.438 22.1562 272.871 22.1562H274.131ZM279.709 23.2109H277.629L277.617 22.3438H279.316C279.652 22.3438 279.932 22.3105 280.154 22.2441C280.381 22.1777 280.551 22.0781 280.664 21.9453C280.777 21.8125 280.834 21.6484 280.834 21.4531C280.834 21.3008 280.801 21.168 280.734 21.0547C280.672 20.9375 280.576 20.8418 280.447 20.7676C280.318 20.6895 280.158 20.6328 279.967 20.5977C279.779 20.5586 279.559 20.5391 279.305 20.5391H277.916V26H276.832V19.6602H279.305C279.707 19.6602 280.068 19.6953 280.389 19.7656C280.713 19.8359 280.988 19.9434 281.215 20.0879C281.445 20.2285 281.621 20.4082 281.742 20.627C281.863 20.8457 281.924 21.1035 281.924 21.4004C281.924 21.5918 281.885 21.7734 281.807 21.9453C281.729 22.1172 281.613 22.2695 281.461 22.4023C281.309 22.5352 281.121 22.6445 280.898 22.7305C280.676 22.8125 280.42 22.8652 280.131 22.8887L279.709 23.2109ZM279.709 26H277.236L277.775 25.1211H279.709C280.01 25.1211 280.26 25.084 280.459 25.0098C280.658 24.9316 280.807 24.8223 280.904 24.6816C281.006 24.5371 281.057 24.3652 281.057 24.166C281.057 23.9668 281.006 23.7969 280.904 23.6562C280.807 23.5117 280.658 23.4023 280.459 23.3281C280.26 23.25 280.01 23.2109 279.709 23.2109H278.062L278.074 22.3438H280.131L280.523 22.6719C280.871 22.6992 281.166 22.7852 281.408 22.9297C281.65 23.0742 281.834 23.2578 281.959 23.4805C282.084 23.6992 282.146 23.9375 282.146 24.1953C282.146 24.4922 282.09 24.7539 281.977 24.9805C281.867 25.207 281.707 25.3965 281.496 25.5488C281.285 25.6973 281.029 25.8105 280.729 25.8887C280.428 25.9629 280.088 26 279.709 26ZM284.771 24.2832L287.695 19.6602H288.785V26H287.695V21.377L284.771 26H283.693V19.6602H284.771V24.2832ZM294.762 19.6602V20.5566H291.697V19.6602H294.762ZM295.717 19.6602V26H294.633V19.6602H295.717ZM291.434 19.6602H292.523L292.359 22.7188C292.332 23.1914 292.287 23.6094 292.225 23.9727C292.166 24.332 292.084 24.6406 291.979 24.8984C291.877 25.1562 291.748 25.3672 291.592 25.5312C291.439 25.6914 291.256 25.8105 291.041 25.8887C290.826 25.9629 290.578 26 290.297 26H289.957V25.0449L290.191 25.0273C290.359 25.0156 290.502 24.9766 290.619 24.9102C290.74 24.8438 290.842 24.7461 290.924 24.6172C291.006 24.4844 291.072 24.3145 291.123 24.1074C291.178 23.9004 291.219 23.6543 291.246 23.3691C291.277 23.084 291.301 22.752 291.316 22.373L291.434 19.6602ZM301.201 24.916V21.6523C301.201 21.4023 301.15 21.1855 301.049 21.002C300.951 20.8145 300.803 20.6699 300.604 20.5684C300.404 20.4668 300.158 20.416 299.865 20.416C299.592 20.416 299.352 20.4629 299.145 20.5566C298.941 20.6504 298.781 20.7734 298.664 20.9258C298.551 21.0781 298.494 21.2422 298.494 21.418H297.41C297.41 21.1914 297.469 20.9668 297.586 20.7441C297.703 20.5215 297.871 20.3203 298.09 20.1406C298.312 19.957 298.578 19.8125 298.887 19.707C299.199 19.5977 299.547 19.543 299.93 19.543C300.391 19.543 300.797 19.6211 301.148 19.7773C301.504 19.9336 301.781 20.1699 301.98 20.4863C302.184 20.7988 302.285 21.1914 302.285 21.6641V24.6172C302.285 24.8281 302.303 25.0527 302.338 25.291C302.377 25.5293 302.434 25.7344 302.508 25.9062V26H301.377C301.322 25.875 301.279 25.709 301.248 25.502C301.217 25.291 301.201 25.0957 301.201 24.916ZM301.389 22.1562L301.4 22.918H300.305C299.996 22.918 299.721 22.9434 299.479 22.9941C299.236 23.041 299.033 23.1133 298.869 23.2109C298.705 23.3086 298.58 23.4316 298.494 23.5801C298.408 23.7246 298.365 23.8945 298.365 24.0898C298.365 24.2891 298.41 24.4707 298.5 24.6348C298.59 24.7988 298.725 24.9297 298.904 25.0273C299.088 25.1211 299.312 25.168 299.578 25.168C299.91 25.168 300.203 25.0977 300.457 24.957C300.711 24.8164 300.912 24.6445 301.061 24.4414C301.213 24.2383 301.295 24.041 301.307 23.8496L301.77 24.3711C301.742 24.5352 301.668 24.7168 301.547 24.916C301.426 25.1152 301.264 25.3066 301.061 25.4902C300.861 25.6699 300.623 25.8203 300.346 25.9414C300.072 26.0586 299.764 26.1172 299.42 26.1172C298.99 26.1172 298.613 26.0332 298.289 25.8652C297.969 25.6973 297.719 25.4727 297.539 25.1914C297.363 24.9062 297.275 24.5879 297.275 24.2363C297.275 23.8965 297.342 23.5977 297.475 23.3398C297.607 23.0781 297.799 22.8613 298.049 22.6895C298.299 22.5137 298.6 22.3809 298.951 22.291C299.303 22.2012 299.695 22.1562 300.129 22.1562H301.389ZM307.635 24.5586L309.791 19.6602H310.834L308.01 26H307.26L304.447 19.6602H305.49L307.635 24.5586ZM305.174 19.6602V26H304.09V19.6602H305.174ZM310.061 26V19.6602H311.15V26H310.061ZM314.068 24.2832L316.992 19.6602H318.082V26H316.992V21.377L314.068 26H312.99V19.6602H314.068V24.2832Z" fill="#FF7800"/>
<rect y="-0.00012207" width="24" height="24" rx="8" fill="#FF7800"/>
<path d="M19.2607 9.18817C19.6654 8.79537 19.6654 8.1458 19.2607 7.75301L18.151 6.67599C17.7631 6.29943 17.146 6.29943 16.7581 6.67599L10.1818 13.0588L7.24193 10.2054C6.85396 9.82884 6.23695 9.82884 5.84898 10.2054L4.73933 11.2824C4.33463 11.6752 4.33463 12.3248 4.73933 12.7176L10.1818 18L19.2607 9.18817Z" fill="white"/>
</svg>
