<svg width="548" height="174" viewBox="0 0 548 174" fill="none" xmlns="http://www.w3.org/2000/svg">
<g filter="url(#filter0_d_1955_471)">
<rect x="25" y="24" width="500" height="125" rx="10" fill="white"/>
</g>
<path d="M181.797 105.859H176.312V116H174.805V104.625H181.797V105.859ZM188.461 107.547V116H187.008V108.742H184.133L183.961 111.906C183.867 113.359 183.622 114.398 183.227 115.023C182.836 115.648 182.214 115.974 181.359 116H180.781V114.727L181.195 114.695C181.664 114.643 182 114.372 182.203 113.883C182.406 113.393 182.536 112.487 182.594 111.164L182.75 107.547H188.461ZM196 116C195.917 115.833 195.849 115.536 195.797 115.109C195.125 115.807 194.323 116.156 193.391 116.156C192.557 116.156 191.872 115.922 191.336 115.453C190.805 114.979 190.539 114.38 190.539 113.656C190.539 112.776 190.872 112.094 191.539 111.609C192.211 111.12 193.154 110.875 194.367 110.875H195.773V110.211C195.773 109.706 195.622 109.305 195.32 109.008C195.018 108.706 194.573 108.555 193.984 108.555C193.469 108.555 193.036 108.685 192.688 108.945C192.339 109.206 192.164 109.521 192.164 109.891H190.711C190.711 109.469 190.859 109.062 191.156 108.672C191.458 108.276 191.865 107.964 192.375 107.734C192.891 107.505 193.456 107.391 194.07 107.391C195.044 107.391 195.807 107.635 196.359 108.125C196.911 108.609 197.198 109.279 197.219 110.133V114.023C197.219 114.799 197.318 115.417 197.516 115.875V116H196ZM193.602 114.898C194.055 114.898 194.484 114.781 194.891 114.547C195.297 114.312 195.591 114.008 195.773 113.633V111.898H194.641C192.87 111.898 191.984 112.417 191.984 113.453C191.984 113.906 192.135 114.26 192.438 114.516C192.74 114.771 193.128 114.898 193.602 114.898ZM199.617 116V107.547H202.914C204.039 107.547 204.901 107.745 205.5 108.141C206.104 108.531 206.406 109.107 206.406 109.867C206.406 110.258 206.289 110.612 206.055 110.93C205.82 111.242 205.474 111.482 205.016 111.648C205.526 111.768 205.935 112.003 206.242 112.352C206.555 112.701 206.711 113.117 206.711 113.602C206.711 114.378 206.424 114.971 205.852 115.383C205.284 115.794 204.479 116 203.438 116H199.617ZM201.062 112.289V114.836H203.453C204.057 114.836 204.508 114.724 204.805 114.5C205.107 114.276 205.258 113.961 205.258 113.555C205.258 112.711 204.638 112.289 203.398 112.289H201.062ZM201.062 111.133H202.93C204.284 111.133 204.961 110.737 204.961 109.945C204.961 109.154 204.32 108.745 203.039 108.719H201.062V111.133ZM215.531 116H214.086V112.391H210.203V116H208.75V107.547H210.203V111.211H214.086V107.547H215.531V116ZM219.438 110.461H221.633C222.591 110.471 223.349 110.721 223.906 111.211C224.464 111.701 224.742 112.365 224.742 113.203C224.742 114.047 224.456 114.724 223.883 115.234C223.31 115.745 222.539 116 221.57 116H217.992V107.547H219.438V110.461ZM227.758 116H226.305V107.547H227.758V116ZM219.438 111.641V114.82H221.586C222.128 114.82 222.547 114.682 222.844 114.406C223.141 114.125 223.289 113.742 223.289 113.258C223.289 112.789 223.143 112.406 222.852 112.109C222.565 111.807 222.161 111.651 221.641 111.641H219.438ZM235.75 107.547H237.195V116H235.75V109.836L231.852 116H230.406V107.547H231.852V113.719L235.75 107.547ZM236.141 104.469C236.141 105.099 235.924 105.607 235.492 105.992C235.065 106.372 234.503 106.562 233.805 106.562C233.107 106.562 232.542 106.37 232.109 105.984C231.677 105.599 231.461 105.094 231.461 104.469H232.641C232.641 104.833 232.74 105.12 232.938 105.328C233.135 105.531 233.424 105.633 233.805 105.633C234.169 105.633 234.453 105.531 234.656 105.328C234.865 105.125 234.969 104.839 234.969 104.469H236.141ZM243.617 116V107.547H246.914C248.039 107.547 248.901 107.745 249.5 108.141C250.104 108.531 250.406 109.107 250.406 109.867C250.406 110.258 250.289 110.612 250.055 110.93C249.82 111.242 249.474 111.482 249.016 111.648C249.526 111.768 249.935 112.003 250.242 112.352C250.555 112.701 250.711 113.117 250.711 113.602C250.711 114.378 250.424 114.971 249.852 115.383C249.284 115.794 248.479 116 247.438 116H243.617ZM245.062 112.289V114.836H247.453C248.057 114.836 248.508 114.724 248.805 114.5C249.107 114.276 249.258 113.961 249.258 113.555C249.258 112.711 248.638 112.289 247.398 112.289H245.062ZM245.062 111.133H246.93C248.284 111.133 248.961 110.737 248.961 109.945C248.961 109.154 248.32 108.745 247.039 108.719H245.062V111.133ZM259.766 111.867C259.766 113.154 259.471 114.19 258.883 114.977C258.294 115.763 257.497 116.156 256.492 116.156C255.466 116.156 254.659 115.831 254.07 115.18V119.25H252.625V107.547H253.945L254.016 108.484C254.604 107.755 255.422 107.391 256.469 107.391C257.484 107.391 258.286 107.773 258.875 108.539C259.469 109.305 259.766 110.37 259.766 111.734V111.867ZM258.32 111.703C258.32 110.75 258.117 109.997 257.711 109.445C257.305 108.893 256.747 108.617 256.039 108.617C255.164 108.617 254.508 109.005 254.07 109.781V113.82C254.503 114.591 255.164 114.977 256.055 114.977C256.747 114.977 257.297 114.703 257.703 114.156C258.115 113.604 258.32 112.786 258.32 111.703ZM266.828 116C266.745 115.833 266.677 115.536 266.625 115.109C265.953 115.807 265.151 116.156 264.219 116.156C263.385 116.156 262.701 115.922 262.164 115.453C261.633 114.979 261.367 114.38 261.367 113.656C261.367 112.776 261.701 112.094 262.367 111.609C263.039 111.12 263.982 110.875 265.195 110.875H266.602V110.211C266.602 109.706 266.451 109.305 266.148 109.008C265.846 108.706 265.401 108.555 264.812 108.555C264.297 108.555 263.865 108.685 263.516 108.945C263.167 109.206 262.992 109.521 262.992 109.891H261.539C261.539 109.469 261.688 109.062 261.984 108.672C262.286 108.276 262.693 107.964 263.203 107.734C263.719 107.505 264.284 107.391 264.898 107.391C265.872 107.391 266.635 107.635 267.188 108.125C267.74 108.609 268.026 109.279 268.047 110.133V114.023C268.047 114.799 268.146 115.417 268.344 115.875V116H266.828ZM264.43 114.898C264.883 114.898 265.312 114.781 265.719 114.547C266.125 114.312 266.419 114.008 266.602 113.633V111.898H265.469C263.698 111.898 262.812 112.417 262.812 113.453C262.812 113.906 262.964 114.26 263.266 114.516C263.568 114.771 263.956 114.898 264.43 114.898ZM276.695 116H275.242V112.938C274.607 113.104 273.956 113.188 273.289 113.188C272.232 113.188 271.424 112.917 270.867 112.375C270.315 111.833 270.034 111.062 270.023 110.062V107.539H271.469V110.109C271.495 111.37 272.102 112 273.289 112C273.956 112 274.607 111.917 275.242 111.75V107.547H276.695V116ZM283.117 116V107.547H286.414C287.539 107.547 288.401 107.745 289 108.141C289.604 108.531 289.906 109.107 289.906 109.867C289.906 110.258 289.789 110.612 289.555 110.93C289.32 111.242 288.974 111.482 288.516 111.648C289.026 111.768 289.435 112.003 289.742 112.352C290.055 112.701 290.211 113.117 290.211 113.602C290.211 114.378 289.924 114.971 289.352 115.383C288.784 115.794 287.979 116 286.938 116H283.117ZM284.562 112.289V114.836H286.953C287.557 114.836 288.008 114.724 288.305 114.5C288.607 114.276 288.758 113.961 288.758 113.555C288.758 112.711 288.138 112.289 286.898 112.289H284.562ZM284.562 111.133H286.43C287.784 111.133 288.461 110.737 288.461 109.945C288.461 109.154 287.82 108.745 286.539 108.719H284.562V111.133ZM295.633 116.156C294.487 116.156 293.555 115.781 292.836 115.031C292.117 114.276 291.758 113.268 291.758 112.008V111.742C291.758 110.904 291.917 110.156 292.234 109.5C292.557 108.839 293.005 108.323 293.578 107.953C294.156 107.578 294.781 107.391 295.453 107.391C296.552 107.391 297.406 107.753 298.016 108.477C298.625 109.201 298.93 110.237 298.93 111.586V112.188H293.203C293.224 113.021 293.466 113.695 293.93 114.211C294.398 114.721 294.992 114.977 295.711 114.977C296.221 114.977 296.654 114.872 297.008 114.664C297.362 114.456 297.672 114.18 297.938 113.836L298.82 114.523C298.112 115.612 297.049 116.156 295.633 116.156ZM295.453 108.578C294.87 108.578 294.38 108.792 293.984 109.219C293.589 109.641 293.344 110.234 293.25 111H297.484V110.891C297.443 110.156 297.245 109.589 296.891 109.188C296.536 108.781 296.057 108.578 295.453 108.578ZM306.797 108.719H303.961V116H302.516V108.719H299.734V107.547H306.797V108.719ZM310.836 112.398H309.781V116H308.328V107.547H309.781V111.125H310.727L313.57 107.547H315.32L311.977 111.609L315.602 116H313.766L310.836 112.398ZM323.773 107.547V116H322.32V108.742H319.445L319.273 111.906C319.18 113.359 318.935 114.398 318.539 115.023C318.148 115.648 317.526 115.974 316.672 116H316.094V114.727L316.508 114.695C316.977 114.643 317.312 114.372 317.516 113.883C317.719 113.393 317.849 112.487 317.906 111.164L318.062 107.547H323.773ZM331.562 107.547H333.008V116H331.562V109.836L327.664 116H326.219V107.547H327.664V113.719L331.562 107.547ZM342.234 116H340.789V112.391H336.906V116H335.453V107.547H336.906V111.211H340.789V107.547H342.234V116ZM350.031 107.547H351.477V116H350.031V109.836L346.133 116H344.688V107.547H346.133V113.719L350.031 107.547ZM356.43 112.398H355.375V116H353.922V107.547H355.375V111.125H356.32L359.164 107.547H360.914L357.57 111.609L361.195 116H359.359L356.43 112.398ZM367.906 107.547H369.352V116H367.906V109.836L364.008 116H362.562V107.547H364.008V113.719L367.906 107.547Z" fill="#222222"/>
<path d="M128.839 72V56.3594H134.199C135.968 56.3594 137.314 56.7139 138.238 57.4229C139.162 58.1318 139.624 59.1882 139.624 60.5918C139.624 61.3079 139.431 61.9525 139.044 62.5254C138.657 63.0983 138.091 63.5423 137.347 63.8574C138.192 64.0866 138.843 64.5199 139.302 65.1572C139.767 65.7874 140 66.5465 140 67.4346C140 68.9027 139.527 70.0306 138.582 70.8184C137.644 71.6061 136.298 72 134.543 72H128.839ZM131.557 64.9424V69.8301H134.575C135.427 69.8301 136.093 69.6188 136.573 69.1963C137.053 68.7738 137.293 68.1865 137.293 67.4346C137.293 65.8089 136.462 64.9782 134.801 64.9424H131.557ZM131.557 62.9443H134.221C135.066 62.9443 135.725 62.7546 136.197 62.375C136.677 61.9883 136.917 61.444 136.917 60.7422C136.917 59.9688 136.695 59.4102 136.251 59.0664C135.814 58.7227 135.13 58.5508 134.199 58.5508H131.557V62.9443ZM141.977 66.0811C141.977 64.9424 142.202 63.9183 142.653 63.0088C143.104 62.0921 143.738 61.3903 144.555 60.9033C145.371 60.4092 146.309 60.1621 147.369 60.1621C148.938 60.1621 150.209 60.667 151.183 61.6768C152.164 62.6865 152.694 64.0257 152.772 65.6943L152.783 66.3066C152.783 67.4525 152.561 68.4766 152.117 69.3789C151.68 70.2812 151.05 70.9795 150.227 71.4736C149.41 71.9678 148.465 72.2148 147.391 72.2148C145.751 72.2148 144.437 71.6706 143.448 70.582C142.467 69.4863 141.977 68.029 141.977 66.21V66.0811ZM144.587 66.3066C144.587 67.5026 144.834 68.4408 145.328 69.1211C145.822 69.7943 146.51 70.1309 147.391 70.1309C148.271 70.1309 148.955 69.7871 149.442 69.0996C149.937 68.4121 150.184 67.4059 150.184 66.0811C150.184 64.9066 149.929 63.9756 149.421 63.2881C148.92 62.6006 148.236 62.2568 147.369 62.2568C146.517 62.2568 145.84 62.597 145.339 63.2773C144.838 63.9505 144.587 64.9603 144.587 66.3066ZM165.169 66.3066C165.169 68.1042 164.761 69.54 163.944 70.6143C163.128 71.6813 162.032 72.2148 160.657 72.2148C159.382 72.2148 158.362 71.7959 157.596 70.958V76.4688H154.985V60.377H157.392L157.499 61.5586C158.265 60.6276 159.307 60.1621 160.625 60.1621C162.043 60.1621 163.153 60.6921 163.955 61.752C164.764 62.8047 165.169 64.2692 165.169 66.1455V66.3066ZM162.569 66.0811C162.569 64.9209 162.337 64.0007 161.871 63.3203C161.413 62.64 160.754 62.2998 159.895 62.2998C158.827 62.2998 158.061 62.7402 157.596 63.6211V68.7773C158.068 69.6797 158.842 70.1309 159.916 70.1309C160.747 70.1309 161.395 69.7979 161.86 69.1318C162.333 68.4587 162.569 67.4417 162.569 66.0811ZM166.898 66.0811C166.898 64.9424 167.124 63.9183 167.575 63.0088C168.026 62.0921 168.66 61.3903 169.477 60.9033C170.293 60.4092 171.231 60.1621 172.291 60.1621C173.859 60.1621 175.131 60.667 176.104 61.6768C177.086 62.6865 177.616 64.0257 177.694 65.6943L177.705 66.3066C177.705 67.4525 177.483 68.4766 177.039 69.3789C176.602 70.2812 175.972 70.9795 175.148 71.4736C174.332 71.9678 173.387 72.2148 172.312 72.2148C170.673 72.2148 169.358 71.6706 168.37 70.582C167.389 69.4863 166.898 68.029 166.898 66.21V66.0811ZM169.509 66.3066C169.509 67.5026 169.756 68.4408 170.25 69.1211C170.744 69.7943 171.432 70.1309 172.312 70.1309C173.193 70.1309 173.877 69.7871 174.364 69.0996C174.858 68.4121 175.105 67.4059 175.105 66.0811C175.105 64.9066 174.851 63.9756 174.343 63.2881C173.841 62.6006 173.158 62.2568 172.291 62.2568C171.439 62.2568 170.762 62.597 170.261 63.2773C169.759 63.9505 169.509 64.9603 169.509 66.3066ZM185.386 61.0215C186.847 61.0215 188.018 61.512 188.898 62.4932C189.779 63.4671 190.22 64.792 190.22 66.4678V66.5967C190.22 68.2725 189.74 69.6296 188.78 70.668C187.828 71.7064 186.532 72.2256 184.892 72.2256C183.295 72.2256 182.006 71.6956 181.024 70.6357C180.043 69.5758 179.553 68.1292 179.553 66.2959V65.5439C179.553 63.0374 179.997 61.0537 180.885 59.5928C181.773 58.1318 183.098 57.2188 184.859 56.8535C185.848 56.653 186.485 56.4417 186.771 56.2197C187.065 55.9906 187.212 55.6826 187.212 55.2959H189.317C189.317 56.0192 189.199 56.6064 188.963 57.0576C188.727 57.5088 188.365 57.8776 187.878 58.1641C187.391 58.4434 186.553 58.7083 185.364 58.959C184.276 59.1882 183.445 59.5964 182.872 60.1836C182.306 60.7708 181.927 61.5837 181.733 62.6221C182.772 61.555 183.989 61.0215 185.386 61.0215ZM184.87 63.1162C184.025 63.1162 183.363 63.4027 182.883 63.9756C182.403 64.5413 182.163 65.415 182.163 66.5967C182.163 67.7139 182.399 68.584 182.872 69.207C183.345 69.8301 184.018 70.1416 184.892 70.1416C185.758 70.1416 186.428 69.8301 186.9 69.207C187.38 68.5768 187.62 67.6315 187.62 66.3711C187.62 65.3685 187.38 64.5771 186.9 63.9971C186.428 63.4098 185.751 63.1162 184.87 63.1162ZM194.882 64.0723H197.438C198.391 64.0723 199.222 64.237 199.931 64.5664C200.64 64.8958 201.177 65.3577 201.542 65.9521C201.914 66.5465 202.101 67.2376 202.101 68.0254C202.101 69.2214 201.678 70.181 200.833 70.9043C199.988 71.6276 198.864 71.9928 197.46 72H192.271V60.377H194.882V64.0723ZM194.882 66.167V69.916H197.428C198.065 69.916 198.566 69.7585 198.932 69.4434C199.304 69.1211 199.49 68.6663 199.49 68.0791C199.49 67.4919 199.308 67.0299 198.942 66.6934C198.584 66.3496 198.097 66.1742 197.481 66.167H194.882ZM209.309 72.2148C207.654 72.2148 206.312 71.6956 205.28 70.6572C204.256 69.6117 203.744 68.2223 203.744 66.4893V66.167C203.744 65.0068 203.966 63.972 204.41 63.0625C204.861 62.1458 205.492 61.4333 206.301 60.9248C207.11 60.4163 208.012 60.1621 209.008 60.1621C210.59 60.1621 211.812 60.667 212.671 61.6768C213.537 62.6865 213.971 64.1152 213.971 65.9629V67.0156H206.376C206.455 67.9753 206.773 68.7344 207.332 69.293C207.898 69.8516 208.607 70.1309 209.459 70.1309C210.655 70.1309 211.629 69.6475 212.381 68.6807L213.788 70.0234C213.323 70.7181 212.7 71.2588 211.919 71.6455C211.146 72.0251 210.275 72.2148 209.309 72.2148ZM208.997 62.2568C208.281 62.2568 207.701 62.5075 207.257 63.0088C206.82 63.5101 206.541 64.2083 206.419 65.1035H211.393V64.9102C211.335 64.0365 211.103 63.3776 210.694 62.9336C210.286 62.4824 209.72 62.2568 208.997 62.2568ZM216.205 72V60.377H220.921C222.511 60.377 223.721 60.6562 224.552 61.2148C225.382 61.7663 225.798 62.5612 225.798 63.5996C225.798 64.1367 225.63 64.6201 225.293 65.0498C224.964 65.4723 224.473 65.7982 223.821 66.0273C224.58 66.1849 225.182 66.5036 225.626 66.9834C226.07 67.4632 226.292 68.029 226.292 68.6807C226.292 69.762 225.891 70.5856 225.089 71.1514C224.294 71.7171 223.148 72 221.651 72H216.205ZM218.815 67.0479V69.9375H221.673C223.012 69.9375 223.682 69.4577 223.682 68.498C223.682 67.5312 223.001 67.0479 221.641 67.0479H218.815ZM218.815 65.1787H220.964C222.446 65.1787 223.188 64.7419 223.188 63.8682C223.188 62.9515 222.486 62.4788 221.082 62.4502H218.815V65.1787ZM235.498 72C235.383 71.778 235.283 71.4163 235.197 70.915C234.367 71.7816 233.35 72.2148 232.146 72.2148C230.979 72.2148 230.027 71.8818 229.289 71.2158C228.551 70.5498 228.183 69.7262 228.183 68.7451C228.183 67.5062 228.641 66.5573 229.558 65.8984C230.481 65.2324 231.799 64.8994 233.511 64.8994H235.111V64.1367C235.111 63.5352 234.943 63.0553 234.606 62.6973C234.27 62.332 233.758 62.1494 233.07 62.1494C232.476 62.1494 231.989 62.2998 231.609 62.6006C231.23 62.8942 231.04 63.2702 231.04 63.7285H228.43C228.43 63.0911 228.641 62.4967 229.063 61.9453C229.486 61.3867 230.059 60.9499 230.782 60.6348C231.513 60.3197 232.326 60.1621 233.221 60.1621C234.581 60.1621 235.666 60.5059 236.476 61.1934C237.285 61.8737 237.7 62.8333 237.722 64.0723V69.3145C237.722 70.36 237.868 71.1943 238.162 71.8174V72H235.498ZM232.63 70.1201C233.146 70.1201 233.629 69.9948 234.08 69.7441C234.538 69.4935 234.882 69.1569 235.111 68.7344V66.543H233.704C232.737 66.543 232.01 66.7113 231.523 67.0479C231.036 67.3844 230.793 67.8607 230.793 68.4766C230.793 68.9779 230.958 69.3789 231.287 69.6797C231.624 69.9733 232.071 70.1201 232.63 70.1201ZM249.71 56.3594L254.222 68.3477L258.723 56.3594H262.235V72H259.528V66.8438L259.797 59.9473L255.178 72H253.233L248.625 59.958L248.894 66.8438V72H246.187V56.3594H249.71ZM272.15 72C272.036 71.778 271.936 71.4163 271.85 70.915C271.019 71.7816 270.002 72.2148 268.799 72.2148C267.632 72.2148 266.679 71.8818 265.941 71.2158C265.204 70.5498 264.835 69.7262 264.835 68.7451C264.835 67.5062 265.293 66.5573 266.21 65.8984C267.134 65.2324 268.451 64.8994 270.163 64.8994H271.764V64.1367C271.764 63.5352 271.595 63.0553 271.259 62.6973C270.922 62.332 270.41 62.1494 269.723 62.1494C269.128 62.1494 268.641 62.2998 268.262 62.6006C267.882 62.8942 267.692 63.2702 267.692 63.7285H265.082C265.082 63.0911 265.293 62.4967 265.716 61.9453C266.138 61.3867 266.711 60.9499 267.435 60.6348C268.165 60.3197 268.978 60.1621 269.873 60.1621C271.234 60.1621 272.319 60.5059 273.128 61.1934C273.937 61.8737 274.353 62.8333 274.374 64.0723V69.3145C274.374 70.36 274.521 71.1943 274.814 71.8174V72H272.15ZM269.282 70.1201C269.798 70.1201 270.281 69.9948 270.732 69.7441C271.191 69.4935 271.535 69.1569 271.764 68.7344V66.543H270.356C269.39 66.543 268.663 66.7113 268.176 67.0479C267.689 67.3844 267.445 67.8607 267.445 68.4766C267.445 68.9779 267.61 69.3789 267.939 69.6797C268.276 69.9733 268.724 70.1201 269.282 70.1201ZM287.286 66.3066C287.286 68.1042 286.878 69.54 286.062 70.6143C285.245 71.6813 284.149 72.2148 282.774 72.2148C281.5 72.2148 280.479 71.7959 279.713 70.958V76.4688H277.103V60.377H279.509L279.616 61.5586C280.382 60.6276 281.424 60.1621 282.742 60.1621C284.16 60.1621 285.27 60.6921 286.072 61.752C286.882 62.8047 287.286 64.2692 287.286 66.1455V66.3066ZM284.687 66.0811C284.687 64.9209 284.454 64.0007 283.988 63.3203C283.53 62.64 282.871 62.2998 282.012 62.2998C280.945 62.2998 280.178 62.7402 279.713 63.6211V68.7773C280.186 69.6797 280.959 70.1309 282.033 70.1309C282.864 70.1309 283.512 69.7979 283.978 69.1318C284.45 68.4587 284.687 67.4417 284.687 66.0811ZM296.761 60.377H299.36V72H296.761V64.2441L292.206 72H289.606V60.377H292.206V68.1328L296.761 60.377ZM311.445 60.377V72H308.846V67.7354H306.407L303.926 72H301.219L303.958 67.3057C303.242 67.0049 302.69 66.5752 302.304 66.0166C301.924 65.458 301.734 64.8171 301.734 64.0938C301.734 63.0124 302.15 62.1279 302.98 61.4404C303.818 60.7458 304.946 60.3913 306.364 60.377H311.445ZM304.345 64.1582C304.345 64.6452 304.524 65.0426 304.882 65.3506C305.247 65.6514 305.713 65.8018 306.278 65.8018H308.846V62.4502H306.439C305.802 62.4502 305.294 62.6113 304.914 62.9336C304.535 63.2559 304.345 63.6641 304.345 64.1582ZM332.554 64.5879C332.554 66.1204 332.289 67.4668 331.759 68.627C331.229 69.7799 330.47 70.668 329.481 71.291C328.5 71.9069 327.369 72.2148 326.087 72.2148C324.819 72.2148 323.688 71.9069 322.692 71.291C321.704 70.668 320.938 69.7835 320.394 68.6377C319.856 67.4919 319.584 66.1706 319.577 64.6738V63.793C319.577 62.2676 319.846 60.9212 320.383 59.7539C320.927 58.5866 321.69 57.695 322.671 57.0791C323.659 56.4561 324.791 56.1445 326.065 56.1445C327.34 56.1445 328.468 56.4525 329.449 57.0684C330.438 57.6771 331.2 58.5579 331.737 59.7109C332.274 60.8568 332.547 62.1924 332.554 63.7178V64.5879ZM329.836 63.7715C329.836 62.0384 329.507 60.71 328.848 59.7861C328.196 58.8623 327.269 58.4004 326.065 58.4004C324.891 58.4004 323.971 58.8623 323.305 59.7861C322.646 60.7028 322.309 62.0026 322.295 63.6855V64.5879C322.295 66.3066 322.628 67.6351 323.294 68.5732C323.967 69.5114 324.898 69.9805 326.087 69.9805C327.29 69.9805 328.214 69.5221 328.858 68.6055C329.51 67.6888 329.836 66.3496 329.836 64.5879V63.7715ZM344.886 60.377V72H342.275V62.4824H338.988L338.773 66.5322C338.637 68.4801 338.261 69.8802 337.646 70.7324C337.037 71.5775 336.102 72 334.842 72H334.036L334.025 69.8301L334.562 69.7764C335.135 69.6976 335.551 69.3503 335.809 68.7344C336.074 68.1113 336.242 66.9798 336.313 65.3398L336.528 60.377H344.886ZM352.781 72.2148C351.127 72.2148 349.784 71.6956 348.753 70.6572C347.729 69.6117 347.217 68.2223 347.217 66.4893V66.167C347.217 65.0068 347.439 63.972 347.883 63.0625C348.334 62.1458 348.964 61.4333 349.773 60.9248C350.583 60.4163 351.485 60.1621 352.48 60.1621C354.063 60.1621 355.284 60.667 356.144 61.6768C357.01 62.6865 357.443 64.1152 357.443 65.9629V67.0156H349.849C349.927 67.9753 350.246 68.7344 350.805 69.293C351.37 69.8516 352.079 70.1309 352.932 70.1309C354.128 70.1309 355.102 69.6475 355.854 68.6807L357.261 70.0234C356.795 70.7181 356.172 71.2588 355.392 71.6455C354.618 72.0251 353.748 72.2148 352.781 72.2148ZM352.47 62.2568C351.754 62.2568 351.174 62.5075 350.729 63.0088C350.293 63.5101 350.013 64.2083 349.892 65.1035H354.865V64.9102C354.808 64.0365 354.575 63.3776 354.167 62.9336C353.759 62.4824 353.193 62.2568 352.47 62.2568ZM367.219 62.4824H362.17V72H359.57V60.377H367.219V62.4824ZM367.992 66.0811C367.992 64.9424 368.218 63.9183 368.669 63.0088C369.12 62.0921 369.754 61.3903 370.57 60.9033C371.387 60.4092 372.325 60.1621 373.385 60.1621C374.953 60.1621 376.224 60.667 377.198 61.6768C378.179 62.6865 378.709 64.0257 378.788 65.6943L378.799 66.3066C378.799 67.4525 378.577 68.4766 378.133 69.3789C377.696 70.2812 377.066 70.9795 376.242 71.4736C375.426 71.9678 374.48 72.2148 373.406 72.2148C371.766 72.2148 370.452 71.6706 369.464 70.582C368.483 69.4863 367.992 68.029 367.992 66.21V66.0811ZM370.603 66.3066C370.603 67.5026 370.85 68.4408 371.344 69.1211C371.838 69.7943 372.525 70.1309 373.406 70.1309C374.287 70.1309 374.971 69.7871 375.458 69.0996C375.952 68.4121 376.199 67.4059 376.199 66.0811C376.199 64.9066 375.945 63.9756 375.437 63.2881C374.935 62.6006 374.251 62.2568 373.385 62.2568C372.533 62.2568 371.856 62.597 371.354 63.2773C370.853 63.9505 370.603 64.9603 370.603 66.3066ZM381.205 72V60.377H385.921C387.511 60.377 388.721 60.6562 389.552 61.2148C390.382 61.7663 390.798 62.5612 390.798 63.5996C390.798 64.1367 390.63 64.6201 390.293 65.0498C389.964 65.4723 389.473 65.7982 388.821 66.0273C389.58 66.1849 390.182 66.5036 390.626 66.9834C391.07 67.4632 391.292 68.029 391.292 68.6807C391.292 69.762 390.891 70.5856 390.089 71.1514C389.294 71.7171 388.148 72 386.651 72H381.205ZM383.815 67.0479V69.9375H386.673C388.012 69.9375 388.682 69.4577 388.682 68.498C388.682 67.5312 388.001 67.0479 386.641 67.0479H383.815ZM383.815 65.1787H385.964C387.446 65.1787 388.188 64.7419 388.188 63.8682C388.188 62.9515 387.486 62.4788 386.082 62.4502H383.815V65.1787ZM403.398 72H400.788V67.3057H396.266V72H393.655V60.377H396.266V65.2217H400.788V60.377H403.398V72ZM413.131 72C413.016 71.778 412.916 71.4163 412.83 70.915C411.999 71.7816 410.982 72.2148 409.779 72.2148C408.612 72.2148 407.66 71.8818 406.922 71.2158C406.184 70.5498 405.815 69.7262 405.815 68.7451C405.815 67.5062 406.274 66.5573 407.19 65.8984C408.114 65.2324 409.432 64.8994 411.144 64.8994H412.744V64.1367C412.744 63.5352 412.576 63.0553 412.239 62.6973C411.903 62.332 411.391 62.1494 410.703 62.1494C410.109 62.1494 409.622 62.2998 409.242 62.6006C408.863 62.8942 408.673 63.2702 408.673 63.7285H406.062C406.062 63.0911 406.274 62.4967 406.696 61.9453C407.119 61.3867 407.692 60.9499 408.415 60.6348C409.146 60.3197 409.958 60.1621 410.854 60.1621C412.214 60.1621 413.299 60.5059 414.108 61.1934C414.918 61.8737 415.333 62.8333 415.354 64.0723V69.3145C415.354 70.36 415.501 71.1943 415.795 71.8174V72H413.131ZM410.263 70.1201C410.778 70.1201 411.262 69.9948 411.713 69.7441C412.171 69.4935 412.515 69.1569 412.744 68.7344V66.543H411.337C410.37 66.543 409.643 66.7113 409.156 67.0479C408.669 67.3844 408.426 67.8607 408.426 68.4766C408.426 68.9779 408.59 69.3789 408.92 69.6797C409.257 69.9733 409.704 70.1201 410.263 70.1201Z" fill="#1B274A"/>
<circle cx="507" cy="41" r="41" fill="#FFA14D"/>
<g clip-path="url(#clip0_1955_471)">
<path d="M522.416 46.75C525.592 46.75 528.166 44.1756 528.166 41C528.166 37.8244 525.592 35.25 522.416 35.25C519.24 35.25 516.666 37.8244 516.666 41C516.666 44.1756 519.24 46.75 522.416 46.75Z" fill="white"/>
<path d="M514.751 39.0833C515.809 39.0833 516.667 38.2252 516.667 37.1666C516.667 36.1081 515.809 35.25 514.751 35.25C513.692 35.25 512.834 36.1081 512.834 37.1666C512.834 38.2252 513.692 39.0833 514.751 39.0833Z" fill="white"/>
<path d="M518.584 35.25C519.642 35.25 520.5 34.3919 520.5 33.3334C520.5 32.2749 519.642 31.4167 518.584 31.4167C517.525 31.4167 516.667 32.2749 516.667 33.3334C516.667 34.3919 517.525 35.25 518.584 35.25Z" fill="white"/>
<path d="M526.251 35.25C527.309 35.25 528.167 34.3919 528.167 33.3334C528.167 32.2749 527.309 31.4167 526.251 31.4167C525.192 31.4167 524.334 32.2749 524.334 33.3334C524.334 34.3919 525.192 35.25 526.251 35.25Z" fill="white"/>
<path d="M530.084 39.0833C531.142 39.0833 532 38.2252 532 37.1666C532 36.1081 531.142 35.25 530.084 35.25C529.025 35.25 528.167 36.1081 528.167 37.1666C528.167 38.2252 529.025 39.0833 530.084 39.0833Z" fill="white"/>
<path d="M509.958 60.1666C504.139 60.1603 499.423 55.4443 499.416 49.625V42.9166H495.583V49.625C495.583 57.5641 502.019 64 509.958 64C517.897 64 524.333 57.5641 524.333 49.625H520.5C520.493 55.4443 515.777 60.1603 509.958 60.1666Z" fill="white"/>
<path d="M509 29.5V19.9166C509 18.8581 508.142 18 507.083 18H501.333V21.8334H505.167V29.5C505.167 33.7342 501.734 37.1666 497.5 37.1666C493.266 37.1666 489.833 33.7342 489.833 29.5V21.8334H493.667V18H487.917C486.858 18 486 18.8581 486 19.9166V29.5C486 35.8512 491.149 41 497.5 41C503.851 41 509 35.8512 509 29.5Z" fill="white"/>
</g>
<defs>
<filter id="filter0_d_1955_471" x="0" y="13" width="536" height="161" filterUnits="userSpaceOnUse" color-interpolation-filters="sRGB">
<feFlood flood-opacity="0" result="BackgroundImageFix"/>
<feColorMatrix in="SourceAlpha" type="matrix" values="0 0 0 0 0 0 0 0 0 0 0 0 0 0 0 0 0 0 127 0" result="hardAlpha"/>
<feOffset dx="-7" dy="7"/>
<feGaussianBlur stdDeviation="9"/>
<feColorMatrix type="matrix" values="0 0 0 0 0.105882 0 0 0 0 0.152941 0 0 0 0 0.290196 0 0 0 0.16 0"/>
<feBlend mode="normal" in2="BackgroundImageFix" result="effect1_dropShadow_1955_471"/>
<feBlend mode="normal" in="SourceGraphic" in2="effect1_dropShadow_1955_471" result="shape"/>
</filter>
<clipPath id="clip0_1955_471">
<rect width="46" height="46" fill="white" transform="translate(486 18)"/>
</clipPath>
</defs>
</svg>
