<svg width="675" height="557" viewBox="0 0 675 557" fill="none" xmlns="http://www.w3.org/2000/svg">
<path d="M675 317.5C675 480.148 570.685 556.5 405 556.5C239.315 556.5 105 480.148 105 317.5C105 154.852 219.315 23 385 23C550.685 23 675 154.852 675 317.5Z" fill="#EBF5FD"/>
<path fill-rule="evenodd" clip-rule="evenodd" d="M93.099 55.4673L93.0997 55.4664C94.7831 54.3826 96.2341 53.0624 97.4454 51.5594C103.098 44.5453 103.502 33.5953 97.7583 24.6639C94.4526 19.522 89.5976 15.7722 84.0885 14.106C78.3219 12.3607 72.5376 13.0775 67.7999 16.1246C63.0615 19.1727 60.0105 24.1396 59.2065 30.1104C58.4384 35.8142 59.8374 41.7866 63.1446 46.9267C70.12 57.7713 83.5576 61.6025 93.099 55.4673ZM58.124 48.1975C69.0819 57.0286 71.6904 72.0382 63.9392 81.656C56.1887 91.273 40.9684 91.9124 30.0106 83.0813C19.0501 74.248 16.4389 59.2379 24.1894 49.621C31.9406 40.0031 47.1635 39.3642 58.124 48.1975ZM106.388 61.2471C93.746 59.8725 81.4342 64.9617 73.4552 74.8622C65.4762 84.7627 63.1193 97.8747 67.1496 109.935L76.8592 138.999C78.4697 143.821 81.5257 147.91 85.6932 150.821C89.8616 153.734 94.7512 155.195 99.8355 155.05C104.919 154.901 109.716 153.158 113.71 150.008C117.703 146.859 120.516 142.598 121.844 137.688L121.932 137.358C125.354 125.068 133.792 114.672 145.128 108.797C148.051 107.282 150.577 105.215 152.6 102.706C153.7 101.341 154.651 99.8439 155.437 98.2343C157.667 93.6635 158.351 88.605 157.416 83.6047C156.481 78.6069 154.014 74.1379 150.282 70.6819C146.55 67.226 141.906 65.1093 136.851 64.5586L106.388 61.2471ZM59.5403 119.323C61.156 114.307 60.4146 108.909 57.4517 104.124C54.6329 99.5707 50.1005 96.1048 44.6879 94.3653C39.2772 92.629 33.5749 92.8065 28.6299 94.8647C23.4364 97.0274 19.6881 100.981 18.0802 105.993C14.8379 116.071 21.4998 127.263 32.9363 130.946C42.0467 133.868 51.4716 131.154 56.5644 124.835C57.8648 123.221 58.8825 121.372 59.5403 119.323ZM120.378 16.866L120.383 16.8654C130.626 14.1948 141.43 21.4702 144.469 33.0829C146.394 40.4743 144.724 47.8647 140.621 52.9554C138.267 55.8762 135.112 58.0408 131.376 59.0141C121.135 61.6853 110.331 54.4108 107.293 42.7972C104.263 31.181 110.134 19.55 120.378 16.866Z" fill="#EBF5FD"/>
</svg>
