<svg width="470" height="34" viewBox="0 0 470 34" fill="none" xmlns="http://www.w3.org/2000/svg">
<path d="M2.89062 12.3905L8.49219 3.62488H10V14.9999H8.49219V6.22644L2.89062 14.9999H1.39062V3.62488H2.89062V12.3905ZM17.3828 13.078L20.2578 6.54675H21.6484L17.8828 14.9999H16.8828L13.1328 6.54675H14.5234L17.3828 13.078ZM14.1016 6.54675V14.9999H12.6562V6.54675H14.1016ZM20.6172 14.9999V6.54675H22.0703V14.9999H20.6172ZM26.1094 10.9686H27.6719L25.2266 14.9999H23.6641L26.1094 10.9686ZM27.3203 6.54675H30.8516V14.9999H29.4062V7.71863H27.3203C26.9089 7.71863 26.5729 7.78894 26.3125 7.92957C26.0521 8.06498 25.862 8.24207 25.7422 8.46082C25.6224 8.67957 25.5625 8.90613 25.5625 9.1405C25.5625 9.36967 25.6172 9.59102 25.7266 9.80457C25.8359 10.0129 26.0078 10.1848 26.2422 10.3202C26.4766 10.4556 26.7786 10.5233 27.1484 10.5233H29.7969V11.7108H27.1484C26.6641 11.7108 26.2344 11.6457 25.8594 11.5155C25.4844 11.3853 25.1667 11.2056 24.9062 10.9764C24.6458 10.7421 24.4479 10.4686 24.3125 10.1561C24.1771 9.83842 24.1094 9.49467 24.1094 9.12488C24.1094 8.75509 24.1797 8.41394 24.3203 8.10144C24.4661 7.78894 24.6745 7.5155 24.9453 7.28113C25.2214 7.04675 25.5573 6.86707 25.9531 6.74207C26.3542 6.61186 26.8099 6.54675 27.3203 6.54675Z" fill="#1B274A" fill-opacity="0.32"/>
<line y1="33.4999" x2="470" y2="33.4999" stroke="#1B274A" stroke-opacity="0.32"/>
</svg>
