<svg width="470" height="34" viewBox="0 0 470 34" fill="none" xmlns="http://www.w3.org/2000/svg">
<path d="M5.52344 3.62488V14.9999H4.03906V3.62488H5.52344ZM9.17969 3.62488V4.85925H0.390625V3.62488H9.17969ZM13.375 15.1561C12.7865 15.1561 12.2526 15.0572 11.7734 14.8593C11.2995 14.6561 10.8906 14.3723 10.5469 14.0077C10.2083 13.6431 9.94792 13.2108 9.76562 12.7108C9.58333 12.2108 9.49219 11.6639 9.49219 11.0702V10.7421C9.49219 10.0546 9.59375 9.44259 9.79688 8.90613C10 8.36446 10.276 7.90613 10.625 7.53113C10.974 7.15613 11.3698 6.87227 11.8125 6.67957C12.2552 6.48686 12.7135 6.3905 13.1875 6.3905C13.7917 6.3905 14.3125 6.49467 14.75 6.703C15.1927 6.91134 15.5547 7.203 15.8359 7.578C16.1172 7.94779 16.3255 8.38529 16.4609 8.8905C16.5964 9.3905 16.6641 9.93738 16.6641 10.5311V11.1796H10.3516V9.99988H15.2188V9.8905C15.1979 9.5155 15.1198 9.15092 14.9844 8.79675C14.8542 8.44259 14.6458 8.15092 14.3594 7.92175C14.0729 7.69259 13.6823 7.578 13.1875 7.578C12.8594 7.578 12.5573 7.64832 12.2812 7.78894C12.0052 7.92436 11.7682 8.12748 11.5703 8.39832C11.3724 8.66915 11.2188 8.99988 11.1094 9.3905C11 9.78113 10.9453 10.2316 10.9453 10.7421V11.0702C10.9453 11.4712 11 11.8488 11.1094 12.203C11.224 12.552 11.388 12.8593 11.6016 13.1249C11.8203 13.3905 12.0833 13.5988 12.3906 13.7499C12.7031 13.9009 13.0573 13.9764 13.4531 13.9764C13.9635 13.9764 14.3958 13.8723 14.75 13.6639C15.1042 13.4556 15.4141 13.177 15.6797 12.828L16.5547 13.5233C16.3724 13.7994 16.1406 14.0624 15.8594 14.3124C15.5781 14.5624 15.2318 14.7655 14.8203 14.9218C14.4141 15.078 13.9323 15.1561 13.375 15.1561ZM24 6.54675V7.74207H19.9141V6.54675H24ZM25.2734 6.54675V14.9999H23.8281V6.54675H25.2734ZM19.5625 6.54675H21.0156L20.7969 10.6249C20.7604 11.2551 20.7005 11.8124 20.6172 12.2968C20.5391 12.7759 20.4297 13.1874 20.2891 13.5311C20.1536 13.8749 19.9818 14.1561 19.7734 14.3749C19.5703 14.5884 19.3255 14.7473 19.0391 14.8514C18.7526 14.9504 18.4219 14.9999 18.0469 14.9999H17.5938V13.7264L17.9062 13.703C18.1302 13.6874 18.3203 13.6353 18.4766 13.5468C18.638 13.4582 18.7734 13.328 18.8828 13.1561C18.9922 12.979 19.0807 12.7525 19.1484 12.4764C19.2214 12.2004 19.276 11.8723 19.3125 11.4921C19.3542 11.1119 19.3854 10.6691 19.4062 10.1639L19.5625 6.54675ZM31.1094 15.1561C30.5208 15.1561 29.987 15.0572 29.5078 14.8593C29.0339 14.6561 28.625 14.3723 28.2812 14.0077C27.9427 13.6431 27.6823 13.2108 27.5 12.7108C27.3177 12.2108 27.2266 11.6639 27.2266 11.0702V10.7421C27.2266 10.0546 27.3281 9.44259 27.5312 8.90613C27.7344 8.36446 28.0104 7.90613 28.3594 7.53113C28.7083 7.15613 29.1042 6.87227 29.5469 6.67957C29.9896 6.48686 30.4479 6.3905 30.9219 6.3905C31.526 6.3905 32.0469 6.49467 32.4844 6.703C32.9271 6.91134 33.2891 7.203 33.5703 7.578C33.8516 7.94779 34.0599 8.38529 34.1953 8.8905C34.3307 9.3905 34.3984 9.93738 34.3984 10.5311V11.1796H28.0859V9.99988H32.9531V9.8905C32.9323 9.5155 32.8542 9.15092 32.7188 8.79675C32.5885 8.44259 32.3802 8.15092 32.0938 7.92175C31.8073 7.69259 31.4167 7.578 30.9219 7.578C30.5938 7.578 30.2917 7.64832 30.0156 7.78894C29.7396 7.92436 29.5026 8.12748 29.3047 8.39832C29.1068 8.66915 28.9531 8.99988 28.8438 9.3905C28.7344 9.78113 28.6797 10.2316 28.6797 10.7421V11.0702C28.6797 11.4712 28.7344 11.8488 28.8438 12.203C28.9583 12.552 29.1224 12.8593 29.3359 13.1249C29.5547 13.3905 29.8177 13.5988 30.125 13.7499C30.4375 13.9009 30.7917 13.9764 31.1875 13.9764C31.6979 13.9764 32.1302 13.8723 32.4844 13.6639C32.8385 13.4556 33.1484 13.177 33.4141 12.828L34.2891 13.5233C34.1068 13.7994 33.875 14.0624 33.5938 14.3124C33.3125 14.5624 32.9661 14.7655 32.5547 14.9218C32.1484 15.078 31.6667 15.1561 31.1094 15.1561ZM45.8047 10.9218V11.0858C45.8047 11.6796 45.7396 12.2264 45.6094 12.7264C45.4792 13.2212 45.2839 13.6509 45.0234 14.0155C44.7682 14.3801 44.4505 14.6639 44.0703 14.8671C43.6901 15.065 43.25 15.1639 42.75 15.1639C42.3385 15.1639 41.9766 15.1093 41.6641 14.9999C41.3516 14.8853 41.0859 14.7212 40.8672 14.5077C40.6536 14.2941 40.4818 14.0389 40.3516 13.7421C40.2266 13.44 40.1406 13.1014 40.0938 12.7264V8.97644C40.1406 8.5754 40.2266 8.21602 40.3516 7.89832C40.4818 7.58061 40.6536 7.30977 40.8672 7.08582C41.0859 6.86186 41.349 6.68998 41.6562 6.57019C41.9635 6.4504 42.3229 6.3905 42.7344 6.3905C43.1406 6.3905 43.5052 6.46342 43.8281 6.60925C44.1562 6.74988 44.4427 6.953 44.6875 7.21863C44.9375 7.48425 45.1432 7.80457 45.3047 8.17957C45.4714 8.54936 45.5964 8.96602 45.6797 9.42957C45.763 9.89311 45.8047 10.3905 45.8047 10.9218ZM44.3594 11.0858V10.9218C44.3594 10.5572 44.3333 10.2108 44.2812 9.88269C44.2344 9.54936 44.1589 9.24467 44.0547 8.96863C43.9557 8.68738 43.8255 8.44259 43.6641 8.23425C43.5026 8.02592 43.3073 7.86446 43.0781 7.74988C42.8542 7.63529 42.5964 7.578 42.3047 7.578C41.9922 7.578 41.7318 7.61707 41.5234 7.69519C41.3203 7.77332 41.1615 7.87748 41.0469 8.00769C40.9323 8.13269 40.849 8.2655 40.7969 8.40613V13.3046C40.8594 13.4191 40.9505 13.5285 41.0703 13.6327C41.1901 13.7316 41.3516 13.815 41.5547 13.8827C41.7578 13.9452 42.013 13.9764 42.3203 13.9764C42.6849 13.9764 42.9948 13.9035 43.25 13.7577C43.5104 13.6066 43.7214 13.3983 43.8828 13.1327C44.0495 12.8671 44.1693 12.5598 44.2422 12.2108C44.3203 11.8619 44.3594 11.4869 44.3594 11.0858ZM35.7656 11.0858V10.9218C35.7656 10.3905 35.8073 9.89311 35.8906 9.42957C35.974 8.96602 36.099 8.54936 36.2656 8.17957C36.4323 7.80457 36.638 7.48425 36.8828 7.21863C37.1328 6.953 37.4193 6.74988 37.7422 6.60925C38.0703 6.46342 38.4375 6.3905 38.8438 6.3905C39.2448 6.3905 39.5938 6.4504 39.8906 6.57019C40.1927 6.68998 40.4479 6.86186 40.6562 7.08582C40.8646 7.30977 41.0312 7.58061 41.1562 7.89832C41.2812 8.21602 41.3698 8.5754 41.4219 8.97644V12.578C41.375 12.9738 41.2891 13.3306 41.1641 13.6483C41.0391 13.966 40.8724 14.2395 40.6641 14.4686C40.4557 14.6926 40.1979 14.8645 39.8906 14.9843C39.5885 15.104 39.2344 15.1639 38.8281 15.1639C38.3281 15.1639 37.888 15.065 37.5078 14.8671C37.1276 14.6639 36.8073 14.3801 36.5469 14.0155C36.2917 13.6509 36.0964 13.2212 35.9609 12.7264C35.8307 12.2264 35.7656 11.6796 35.7656 11.0858ZM37.2188 10.9218V11.0858C37.2188 11.4869 37.2526 11.8619 37.3203 12.2108C37.3932 12.5598 37.5052 12.8671 37.6562 13.1327C37.8125 13.3983 38.0156 13.6066 38.2656 13.7577C38.5156 13.9035 38.8229 13.9764 39.1875 13.9764C39.5 13.9764 39.7578 13.9374 39.9609 13.8593C40.1641 13.7811 40.3255 13.6796 40.4453 13.5546C40.5651 13.4296 40.6562 13.2994 40.7188 13.1639V8.40613C40.6667 8.2655 40.5807 8.13269 40.4609 8.00769C40.3464 7.87748 40.1875 7.77332 39.9844 7.69519C39.7812 7.61707 39.5208 7.578 39.2031 7.578C38.8385 7.578 38.5286 7.66654 38.2734 7.84363C38.0182 8.02071 37.8125 8.2629 37.6562 8.57019C37.5052 8.87748 37.3932 9.23425 37.3203 9.6405C37.2526 10.0415 37.2188 10.4686 37.2188 10.9218ZM40 18.2499V2.99988H41.4531V18.2499H40ZM47.3125 10.8671V10.6874C47.3125 10.078 47.401 9.5129 47.5781 8.99207C47.7552 8.46602 48.0104 8.01029 48.3438 7.62488C48.6771 7.23425 49.0807 6.93217 49.5547 6.71863C50.0286 6.49988 50.5599 6.3905 51.1484 6.3905C51.7422 6.3905 52.276 6.49988 52.75 6.71863C53.2292 6.93217 53.6354 7.23425 53.9688 7.62488C54.3073 8.01029 54.5651 8.46602 54.7422 8.99207C54.9193 9.5129 55.0078 10.078 55.0078 10.6874V10.8671C55.0078 11.4764 54.9193 12.0415 54.7422 12.5624C54.5651 13.0832 54.3073 13.5389 53.9688 13.9296C53.6354 14.315 53.2318 14.6171 52.7578 14.8358C52.2891 15.0494 51.7578 15.1561 51.1641 15.1561C50.5703 15.1561 50.0365 15.0494 49.5625 14.8358C49.0885 14.6171 48.6823 14.315 48.3438 13.9296C48.0104 13.5389 47.7552 13.0832 47.5781 12.5624C47.401 12.0415 47.3125 11.4764 47.3125 10.8671ZM48.7578 10.6874V10.8671C48.7578 11.2889 48.8073 11.6874 48.9062 12.0624C49.0052 12.4322 49.1536 12.7603 49.3516 13.0468C49.5547 13.3332 49.8073 13.5598 50.1094 13.7264C50.4115 13.8879 50.763 13.9686 51.1641 13.9686C51.5599 13.9686 51.9062 13.8879 52.2031 13.7264C52.5052 13.5598 52.7552 13.3332 52.9531 13.0468C53.151 12.7603 53.2995 12.4322 53.3984 12.0624C53.5026 11.6874 53.5547 11.2889 53.5547 10.8671V10.6874C53.5547 10.2707 53.5026 9.87748 53.3984 9.50769C53.2995 9.13269 53.1484 8.80196 52.9453 8.5155C52.7474 8.22384 52.4974 7.99467 52.1953 7.828C51.8984 7.66134 51.5495 7.578 51.1484 7.578C50.7526 7.578 50.4036 7.66134 50.1016 7.828C49.8047 7.99467 49.5547 8.22384 49.3516 8.5155C49.1536 8.80196 49.0052 9.13269 48.9062 9.50769C48.8073 9.87748 48.7578 10.2707 48.7578 10.6874ZM62.5547 10.2108V11.3827H58.0859V10.2108H62.5547ZM58.3906 6.54675V14.9999H56.9453V6.54675H58.3906ZM63.7266 6.54675V14.9999H62.2734V6.54675H63.7266Z" fill="#C2C2C2"/>
<line y1="33.4999" x2="470" y2="33.4999" stroke="#C2C2C2"/>
</svg>
