<svg width="79" height="27" viewBox="0 0 79 27" fill="none" xmlns="http://www.w3.org/2000/svg">
<path fill-rule="evenodd" clip-rule="evenodd" d="M1.99988 2H77.9999V25.9997H1.99988V2Z" fill="white"/>
<path d="M23.6714 11.0283H19.9009V18H18.8643V10.1797H23.6714V11.0283ZM30.5947 14.3423C30.5947 15.1086 30.4658 15.7782 30.208 16.3511C29.9502 16.9204 29.585 17.3555 29.1123 17.6562C28.6396 17.957 28.0882 18.1074 27.458 18.1074C26.8421 18.1074 26.2961 17.957 25.8198 17.6562C25.3436 17.3519 24.973 16.9204 24.708 16.3618C24.4466 15.7996 24.3123 15.1497 24.3052 14.4121V13.8481C24.3052 13.0962 24.4359 12.432 24.6973 11.8555C24.9587 11.279 25.3275 10.8385 25.8037 10.5342C26.2835 10.2262 26.8314 10.0723 27.4473 10.0723C28.0739 10.0723 28.6253 10.2244 29.1016 10.5288C29.5814 10.8296 29.9502 11.2682 30.208 11.8447C30.4658 12.4176 30.5947 13.0854 30.5947 13.8481V14.3423ZM29.5688 13.8374C29.5688 12.91 29.3826 12.1992 29.0103 11.7051C28.6379 11.2074 28.1169 10.9585 27.4473 10.9585C26.7956 10.9585 26.2817 11.2074 25.9058 11.7051C25.5334 12.1992 25.3418 12.8867 25.3311 13.7676V14.3423C25.3311 15.241 25.519 15.9482 25.895 16.4639C26.2746 16.9759 26.7956 17.2319 27.458 17.2319C28.124 17.2319 28.6396 16.9902 29.0049 16.5068C29.3701 16.0199 29.5581 15.3234 29.5688 14.4175V13.8374ZM33.1729 14.9385V18H32.1416V10.1797H35.0259C35.8817 10.1797 36.5513 10.3981 37.0347 10.835C37.5216 11.2718 37.7651 11.8501 37.7651 12.5698C37.7651 13.3289 37.527 13.9144 37.0508 14.3262C36.5781 14.7344 35.8996 14.9385 35.0151 14.9385H33.1729ZM33.1729 14.0952H35.0259C35.5773 14.0952 35.9998 13.9663 36.2935 13.7085C36.5871 13.4471 36.7339 13.0711 36.7339 12.5806C36.7339 12.1151 36.5871 11.7427 36.2935 11.4634C35.9998 11.1841 35.597 11.0391 35.085 11.0283H33.1729V14.0952ZM45.0967 14.3423C45.0967 15.1086 44.9678 15.7782 44.71 16.3511C44.4521 16.9204 44.0869 17.3555 43.6143 17.6562C43.1416 17.957 42.5902 18.1074 41.96 18.1074C41.3441 18.1074 40.798 17.957 40.3218 17.6562C39.8455 17.3519 39.4749 16.9204 39.21 16.3618C38.9486 15.7996 38.8143 15.1497 38.8071 14.4121V13.8481C38.8071 13.0962 38.9378 12.432 39.1992 11.8555C39.4606 11.279 39.8294 10.8385 40.3057 10.5342C40.7855 10.2262 41.3333 10.0723 41.9492 10.0723C42.5758 10.0723 43.1273 10.2244 43.6035 10.5288C44.0833 10.8296 44.4521 11.2682 44.71 11.8447C44.9678 12.4176 45.0967 13.0854 45.0967 13.8481V14.3423ZM44.0708 13.8374C44.0708 12.91 43.8846 12.1992 43.5122 11.7051C43.1398 11.2074 42.6188 10.9585 41.9492 10.9585C41.2975 10.9585 40.7837 11.2074 40.4077 11.7051C40.0353 12.1992 39.8438 12.8867 39.833 13.7676V14.3423C39.833 15.241 40.021 15.9482 40.397 16.4639C40.7765 16.9759 41.2975 17.2319 41.96 17.2319C42.626 17.2319 43.1416 16.9902 43.5068 16.5068C43.8721 16.0199 44.0601 15.3234 44.0708 14.4175V13.8374ZM53.4971 19.9175H52.4712V18H46.8584V19.9229H45.8271L45.8218 17.1567H46.4609C46.7975 16.7772 47.0643 16.2687 47.2612 15.6313C47.4618 14.9904 47.5871 14.2886 47.6372 13.5259L47.8091 10.1797H52.4873V17.1567H53.5078L53.4971 19.9175ZM47.6372 17.1567H51.4507V11.0283H48.8027L48.6899 13.3271C48.6434 14.2259 48.5234 14.9922 48.3301 15.626C48.1403 16.2598 47.9093 16.77 47.6372 17.1567ZM59.1367 15.959H55.8604L55.1245 18H54.061L57.0474 10.1797H57.9497L60.9414 18H59.8833L59.1367 15.959ZM56.1719 15.1104H58.8306L57.4985 11.4526L56.1719 15.1104Z" fill="#070716"/>
</svg>
