<svg width="113" height="24" viewBox="0 0 113 24" fill="none" xmlns="http://www.w3.org/2000/svg">
<path fill-rule="evenodd" clip-rule="evenodd" d="M0 -0.00012207H112V23.9999H0V-0.00012207Z" fill="black"/>
<path d="M18.4189 8.17969V16H17.3877V9.02832H13.5312V16H12.4946V8.17969H18.4189ZM23.1831 12.9331H21.0938V12.0898H23.1831C23.5877 12.0898 23.9154 12.0254 24.166 11.8965C24.4167 11.7676 24.5993 11.5885 24.7139 11.3594C24.832 11.1302 24.8911 10.8688 24.8911 10.5752C24.8911 10.3066 24.832 10.0542 24.7139 9.81787C24.5993 9.58154 24.4167 9.39176 24.166 9.24854C23.9154 9.10173 23.5877 9.02832 23.1831 9.02832H21.3354V16H20.2988V8.17969H23.1831C23.7739 8.17969 24.2734 8.28174 24.6816 8.48584C25.0898 8.68994 25.3996 8.97282 25.6108 9.33447C25.8221 9.69255 25.9277 10.1025 25.9277 10.5645C25.9277 11.0658 25.8221 11.4937 25.6108 11.8481C25.3996 12.2026 25.0898 12.473 24.6816 12.6592C24.2734 12.8418 23.7739 12.9331 23.1831 12.9331ZM32.2065 15.1567V16H28.0654V15.1567H32.2065ZM28.2749 8.17969V16H27.2383V8.17969H28.2749ZM31.6587 11.542V12.3853H28.0654V11.542H31.6587ZM32.1528 8.17969V9.02832H28.0654V8.17969H32.1528ZM34.5698 14.2061L38.4209 8.17969H39.4575V16H38.4209V9.96826L34.5698 16H33.5386V8.17969H34.5698V14.2061ZM41.6704 8.17969H42.6748L45.2368 14.5552L47.7935 8.17969H48.8032L45.6235 16H44.8394L41.6704 8.17969ZM41.3428 8.17969H42.229L42.374 12.9492V16H41.3428V8.17969ZM48.2393 8.17969H49.1255V16H48.0942V12.9492L48.2393 8.17969ZM53.3687 13.4058L55.4365 8.17969H56.6289L53.8628 14.6948C53.784 14.8774 53.6963 15.0547 53.5996 15.2266C53.5029 15.3949 53.3848 15.5452 53.2451 15.6777C53.1055 15.8102 52.9318 15.9159 52.7241 15.9946C52.52 16.0734 52.2658 16.1128 51.9614 16.1128C51.8755 16.1128 51.7734 16.1074 51.6553 16.0967C51.5371 16.0895 51.4601 16.0806 51.4243 16.0698L51.4565 15.2427C51.4959 15.2498 51.5729 15.257 51.6875 15.2642C51.8021 15.2677 51.8862 15.2695 51.9399 15.2695C52.144 15.2695 52.3052 15.2284 52.4233 15.146C52.5415 15.0636 52.6364 14.9598 52.708 14.8345C52.7832 14.7056 52.8512 14.5749 52.9121 14.4424L53.3687 13.4058ZM51.6123 8.17969L53.7876 13.0513L54.0454 14.0127L53.1753 14.0771L50.4521 8.17969H51.6123ZM67.1562 15.1836L67.0596 17.8853H66.168V16H65.4106V15.1836H67.1562ZM57.9019 8.17969H58.9438V15.1567H61.6294V8.17969H62.6606V15.1567H65.3301V8.17969H66.3667V16H57.9019V8.17969ZM73.4888 15.1567V16H69.3477V15.1567H73.4888ZM69.5571 8.17969V16H68.5205V8.17969H69.5571ZM72.9409 11.542V12.3853H69.3477V11.542H72.9409ZM73.4351 8.17969V9.02832H69.3477V8.17969H73.4351ZM79.4937 13.5132H80.5249C80.4712 14.0073 80.3298 14.4495 80.1006 14.8398C79.8714 15.2301 79.5474 15.5399 79.1284 15.769C78.7095 15.9946 78.1867 16.1074 77.5601 16.1074C77.1017 16.1074 76.6846 16.0215 76.3086 15.8496C75.9362 15.6777 75.6157 15.4342 75.3472 15.1191C75.0786 14.8005 74.8709 14.4191 74.7241 13.9751C74.5809 13.5275 74.5093 13.0298 74.5093 12.4819V11.7031C74.5093 11.1553 74.5809 10.6593 74.7241 10.2153C74.8709 9.76774 75.0804 9.3846 75.3525 9.06592C75.6283 8.74723 75.9595 8.50195 76.3462 8.33008C76.7329 8.1582 77.168 8.07227 77.6514 8.07227C78.2422 8.07227 78.7417 8.18327 79.1499 8.40527C79.5581 8.62728 79.875 8.93522 80.1006 9.3291C80.3298 9.7194 80.4712 10.1724 80.5249 10.688H79.4937C79.4435 10.3228 79.3504 10.0094 79.2144 9.74805C79.0783 9.48307 78.8849 9.27897 78.6343 9.13574C78.3836 8.99251 78.056 8.9209 77.6514 8.9209C77.304 8.9209 76.9979 8.98714 76.7329 9.11963C76.4715 9.25212 76.2513 9.4401 76.0723 9.68359C75.8968 9.92708 75.7643 10.2189 75.6748 10.5591C75.5853 10.8993 75.5405 11.277 75.5405 11.6924V12.4819C75.5405 12.8651 75.5799 13.2249 75.6587 13.5615C75.741 13.8981 75.8646 14.1935 76.0293 14.4478C76.194 14.702 76.4035 14.9025 76.6577 15.0493C76.9119 15.1925 77.2127 15.2642 77.5601 15.2642C78.0005 15.2642 78.3514 15.1943 78.6128 15.0547C78.8742 14.915 79.0711 14.7145 79.2036 14.4531C79.3397 14.1917 79.4364 13.8784 79.4937 13.5132ZM84.666 8.17969V16H83.6455V8.17969H84.666ZM87.1797 8.17969V9.02832H81.1372V8.17969H87.1797ZM91.1274 12.3423H89.1455L89.1348 11.5098H90.9341C91.2313 11.5098 91.4909 11.4596 91.7129 11.3594C91.9349 11.2591 92.1068 11.1159 92.2285 10.9297C92.3538 10.7399 92.4165 10.5143 92.4165 10.2529C92.4165 9.96647 92.361 9.73372 92.25 9.55469C92.1426 9.37207 91.9761 9.23958 91.7505 9.15723C91.5285 9.07129 91.2456 9.02832 90.9019 9.02832H89.3765V16H88.3398V8.17969H90.9019C91.3029 8.17969 91.661 8.22087 91.9761 8.30322C92.2912 8.382 92.5579 8.50732 92.7764 8.6792C92.9984 8.84749 93.1667 9.06234 93.2812 9.32373C93.3958 9.58512 93.4531 9.89844 93.4531 10.2637C93.4531 10.5859 93.3708 10.8778 93.2061 11.1392C93.0413 11.397 92.8122 11.6082 92.5186 11.7729C92.2285 11.9377 91.8883 12.0433 91.498 12.0898L91.1274 12.3423ZM91.0791 16H88.7373L89.3228 15.1567H91.0791C91.4085 15.1567 91.6878 15.0994 91.917 14.9849C92.1497 14.8703 92.327 14.7091 92.4487 14.5015C92.5705 14.2902 92.6313 14.0413 92.6313 13.7549C92.6313 13.4648 92.5794 13.2142 92.4756 13.0029C92.3717 12.7917 92.2088 12.6287 91.9868 12.5142C91.7648 12.3996 91.4784 12.3423 91.1274 12.3423H89.6504L89.6611 11.5098H91.6807L91.9009 11.8105C92.2769 11.8428 92.5955 11.9502 92.8569 12.1328C93.1183 12.3118 93.3171 12.541 93.4531 12.8203C93.5928 13.0996 93.6626 13.4076 93.6626 13.7441C93.6626 14.2311 93.5552 14.6429 93.3403 14.9795C93.1291 15.3125 92.8301 15.5667 92.4434 15.7422C92.0566 15.9141 91.6019 16 91.0791 16ZM98.0884 8.87256L95.4995 16H94.4414L97.4224 8.17969H98.1045L98.0884 8.87256ZM100.258 16L97.6641 8.87256L97.6479 8.17969H98.3301L101.322 16H100.258ZM100.124 13.105V13.9536H95.7305V13.105H100.124Z" fill="white"/>
</svg>
