<svg width="112" height="24" viewBox="0 0 112 24" fill="none" xmlns="http://www.w3.org/2000/svg">
<rect width="112" height="24" fill="#F2F2F2"/>
<rect x="-904" y="-2619" width="1920" height="5250" fill="white"/>
<path fill-rule="evenodd" clip-rule="evenodd" d="M-903.04 -57H1015.04V442H-903.04V-57Z" fill="#070716"/>
<path fill-rule="evenodd" clip-rule="evenodd" d="M-3.50475e-05 -2.02656e-06H112V23.9997H-3.50475e-05V-2.02656e-06Z" fill="white"/>
<path d="M14.5083 16V8.17969H17.0649C17.9136 8.17969 18.5509 8.35514 18.9771 8.70605C19.4067 9.05697 19.6216 9.57617 19.6216 10.2637C19.6216 10.6289 19.5177 10.953 19.3101 11.2358C19.1024 11.5151 18.8195 11.7318 18.4614 11.8857C18.884 12.0039 19.217 12.2295 19.4604 12.5625C19.7075 12.8919 19.8311 13.2858 19.8311 13.7441C19.8311 14.446 19.6037 14.9974 19.1489 15.3984C18.6942 15.7995 18.0514 16 17.2207 16H14.5083ZM15.5396 12.3423V15.1567H17.2422C17.722 15.1567 18.0998 15.0332 18.3755 14.7861C18.6548 14.5355 18.7944 14.1917 18.7944 13.7549C18.7944 12.8132 18.2824 12.3423 17.2583 12.3423H15.5396ZM15.5396 11.5151H17.0972C17.5483 11.5151 17.9082 11.4023 18.1768 11.1768C18.4489 10.9512 18.585 10.645 18.585 10.2583C18.585 9.82861 18.4596 9.51709 18.209 9.32373C17.9583 9.12679 17.577 9.02832 17.0649 9.02832H15.5396V11.5151ZM27.3774 12.3423C27.3774 13.1086 27.2485 13.7782 26.9907 14.3511C26.7329 14.9204 26.3677 15.3555 25.895 15.6562C25.4224 15.957 24.8709 16.1074 24.2407 16.1074C23.6248 16.1074 23.0788 15.957 22.6025 15.6562C22.1263 15.3519 21.7557 14.9204 21.4907 14.3618C21.2293 13.7996 21.0951 13.1497 21.0879 12.4121V11.8481C21.0879 11.0962 21.2186 10.432 21.48 9.85547C21.7414 9.27897 22.1102 8.83854 22.5864 8.53418C23.0662 8.22624 23.6141 8.07227 24.23 8.07227C24.8566 8.07227 25.408 8.22445 25.8843 8.52881C26.3641 8.82959 26.7329 9.26823 26.9907 9.84473C27.2485 10.4176 27.3774 11.0854 27.3774 11.8481V12.3423ZM26.3516 11.8374C26.3516 10.91 26.1654 10.1992 25.793 9.70508C25.4206 9.20736 24.8996 8.9585 24.23 8.9585C23.5783 8.9585 23.0645 9.20736 22.6885 9.70508C22.3161 10.1992 22.1245 10.8867 22.1138 11.7676V12.3423C22.1138 13.241 22.3018 13.9482 22.6777 14.4639C23.0573 14.9759 23.5783 15.2319 24.2407 15.2319C24.9067 15.2319 25.4224 14.9902 25.7876 14.5068C26.1528 14.0199 26.3408 13.3234 26.3516 12.4175V11.8374ZM32.9365 10.2798C32.9365 9.86442 32.7843 9.53499 32.48 9.2915C32.1792 9.04443 31.7549 8.9209 31.207 8.9209C30.7487 8.9209 30.3638 9.04801 30.0522 9.30225C29.7443 9.5529 29.5903 9.86442 29.5903 10.2368H28.5591C28.5591 9.82145 28.6719 9.44906 28.8975 9.11963C29.1266 8.7902 29.4453 8.53418 29.8535 8.35156C30.2617 8.16536 30.7129 8.07227 31.207 8.07227C32.0807 8.07227 32.7593 8.26921 33.2427 8.66309C33.7261 9.05339 33.9678 9.59766 33.9678 10.2959C33.9678 10.6576 33.8568 10.987 33.6348 11.2842C33.4128 11.5814 33.103 11.8159 32.7056 11.9878C33.6258 12.2957 34.0859 12.9062 34.0859 13.8193C34.0859 14.5212 33.8245 15.078 33.3018 15.4897C32.779 15.9015 32.0807 16.1074 31.207 16.1074C30.6878 16.1074 30.2152 16.0161 29.7891 15.8335C29.3665 15.6473 29.0371 15.3841 28.8008 15.0439C28.5645 14.7038 28.4463 14.2992 28.4463 13.8301H29.4775C29.4775 14.2419 29.6405 14.5856 29.9663 14.8613C30.2922 15.1335 30.7057 15.2695 31.207 15.2695C31.7692 15.2695 32.2168 15.1388 32.5498 14.8774C32.8864 14.616 33.0547 14.2705 33.0547 13.8408C33.0547 12.9242 32.4871 12.4569 31.3521 12.439H30.3853V11.5903H31.3467C31.8695 11.5796 32.2651 11.4614 32.5337 11.2358C32.8022 11.0103 32.9365 10.6916 32.9365 10.2798ZM36.7876 8.17969L39.3442 14.5605L41.9009 8.17969H43.2383V16H42.207V12.9546L42.3037 9.66748L39.7363 16H38.9468L36.3848 9.68359L36.4868 12.9546V16H35.4556V8.17969H36.7876ZM51.0747 12.3423C51.0747 13.1086 50.9458 13.7782 50.688 14.3511C50.4302 14.9204 50.0649 15.3555 49.5923 15.6562C49.1196 15.957 48.5682 16.1074 47.938 16.1074C47.3221 16.1074 46.776 15.957 46.2998 15.6562C45.8236 15.3519 45.453 14.9204 45.188 14.3618C44.9266 13.7996 44.7923 13.1497 44.7852 12.4121V11.8481C44.7852 11.0962 44.9159 10.432 45.1772 9.85547C45.4386 9.27897 45.8075 8.83854 46.2837 8.53418C46.7635 8.22624 47.3114 8.07227 47.9272 8.07227C48.5539 8.07227 49.1053 8.22445 49.5815 8.52881C50.0614 8.82959 50.4302 9.26823 50.688 9.84473C50.9458 10.4176 51.0747 11.0854 51.0747 11.8481V12.3423ZM50.0488 11.8374C50.0488 10.91 49.8626 10.1992 49.4902 9.70508C49.1178 9.20736 48.5968 8.9585 47.9272 8.9585C47.2756 8.9585 46.7617 9.20736 46.3857 9.70508C46.0133 10.1992 45.8218 10.8867 45.811 11.7676V12.3423C45.811 13.241 45.999 13.9482 46.375 14.4639C46.7546 14.9759 47.2756 15.2319 47.938 15.2319C48.604 15.2319 49.1196 14.9902 49.4849 14.5068C49.8501 14.0199 50.0381 13.3234 50.0488 12.4175V11.8374ZM57.998 12.4336H57.1602V16H56.1289V12.4336H55.2427L53.0298 16H51.7407L54.3726 11.875L51.9448 8.17969H53.1641L55.2427 11.5742H56.1289V8.17969H57.1602V11.5742H58.0088L60.0874 8.17969H61.3013L58.8735 11.8696L61.5054 16H60.2217L57.998 12.4336ZM68.5039 16H67.4673V12.3853H63.5249V16H62.4937V8.17969H63.5249V11.542H67.4673V8.17969H68.5039V16ZM76.3511 12.3423C76.3511 13.1086 76.2222 13.7782 75.9644 14.3511C75.7065 14.9204 75.3413 15.3555 74.8687 15.6562C74.396 15.957 73.8446 16.1074 73.2144 16.1074C72.5985 16.1074 72.0524 15.957 71.5762 15.6562C71.0999 15.3519 70.7293 14.9204 70.4644 14.3618C70.203 13.7996 70.0687 13.1497 70.0615 12.4121V11.8481C70.0615 11.0962 70.1922 10.432 70.4536 9.85547C70.715 9.27897 71.0838 8.83854 71.5601 8.53418C72.0399 8.22624 72.5877 8.07227 73.2036 8.07227C73.8302 8.07227 74.3817 8.22445 74.8579 8.52881C75.3377 8.82959 75.7065 9.26823 75.9644 9.84473C76.2222 10.4176 76.3511 11.0854 76.3511 11.8481V12.3423ZM75.3252 11.8374C75.3252 10.91 75.139 10.1992 74.7666 9.70508C74.3942 9.20736 73.8732 8.9585 73.2036 8.9585C72.5519 8.9585 72.0381 9.20736 71.6621 9.70508C71.2897 10.1992 71.0981 10.8867 71.0874 11.7676V12.3423C71.0874 13.241 71.2754 13.9482 71.6514 14.4639C72.0309 14.9759 72.5519 15.2319 73.2144 15.2319C73.8804 15.2319 74.396 14.9902 74.7612 14.5068C75.1265 14.0199 75.3145 13.3234 75.3252 12.4175V11.8374ZM83.6504 13.5186C83.5537 14.3457 83.2476 14.9849 82.7319 15.436C82.2199 15.8836 81.5378 16.1074 80.6855 16.1074C79.7617 16.1074 79.0205 15.7762 78.4619 15.1138C77.9069 14.4513 77.6294 13.5651 77.6294 12.4551V11.7031C77.6294 10.9762 77.7583 10.3371 78.0161 9.78564C78.2775 9.23421 78.6463 8.81169 79.1226 8.51807C79.5988 8.22087 80.1502 8.07227 80.7769 8.07227C81.6076 8.07227 82.2736 8.30501 82.7749 8.77051C83.2762 9.23242 83.568 9.87337 83.6504 10.6934H82.6138C82.5243 10.0703 82.3291 9.61914 82.0283 9.33984C81.7311 9.06055 81.314 8.9209 80.7769 8.9209C80.118 8.9209 79.6006 9.16439 79.2246 9.65137C78.8522 10.1383 78.666 10.8312 78.666 11.73V12.4873C78.666 13.3359 78.8433 14.0109 79.1978 14.5122C79.5522 15.0135 80.0482 15.2642 80.6855 15.2642C81.2585 15.2642 81.6971 15.1353 82.0015 14.8774C82.3094 14.616 82.5135 14.1631 82.6138 13.5186H83.6504ZM90.3052 9.02832H87.7915V16H86.7656V9.02832H84.2573V8.17969H90.3052V9.02832ZM96.396 8.17969H97.4272V16H96.396V9.97363L92.5449 16H91.5083V8.17969H92.5449V14.2061L96.396 8.17969Z" fill="#070716"/>
</svg>
